<svg width="375" height="812" viewBox="0 0 375 812" fill="none" xmlns="http://www.w3.org/2000/svg">
<g clip-path="url(#clip0_1210_12488)">
<rect width="375" height="812" fill="url(#paint0_linear_1210_12488)"/>
<g opacity="0.4">
<path opacity="0.5" d="M375 782.087V811.64H0V782.087C6.87 776.22 15.315 772.156 24.6075 770.616C24.1125 768.295 23.8425 765.891 23.8425 763.427C23.8425 744.594 39.0825 729.337 57.8775 729.337C62.355 729.337 66.63 730.209 70.545 731.779C79.26 716.965 95.34 707.011 113.76 707.011C120.045 707.011 126.067 708.183 131.61 710.302C139.35 686.796 161.438 669.827 187.5 669.827C213.555 669.827 235.65 686.796 243.39 710.302C248.932 708.183 254.955 707.011 261.247 707.011C279.66 707.011 295.74 716.965 304.455 731.779C308.37 730.209 312.645 729.337 317.122 729.337C335.917 729.337 351.157 744.594 351.157 763.427C351.157 765.891 350.888 768.295 350.393 770.616C359.685 772.156 368.13 776.22 375 782.087Z" fill="#2B5A72"/>
<path d="M344.496 780.868V769.553H332.347V741.947L329.337 739.801V731.555H329.697V729.452H326.418V718.037H327.514L328.737 716.808V715.754L329.397 715.091V714.232H329.014V707.585H329.397V706.1H325.23V696.472H325.921L326.914 695.578V694.811L327.451 694.329V693.705H326.815C327.615 693.283 329.182 692.101 329.382 689.25C329.651 685.403 327.495 684.256 324.463 682.029C322.206 680.372 320.289 677.41 319.454 676.002V675.461C320.002 675.393 320.398 675.202 320.398 674.977C320.398 674.752 320.002 674.561 319.454 674.492V673.635C319.594 673.21 319.683 672.428 319.683 671.013C319.683 669.176 319.351 666.765 319.151 665.484C319.125 665.317 318.885 665.317 318.859 665.484C318.659 666.765 318.327 669.176 318.327 671.013C318.327 672.428 318.415 673.21 318.556 673.635V674.492C318.007 674.561 317.612 674.752 317.612 674.977C317.612 675.202 318.007 675.393 318.556 675.461V676.003C317.721 677.411 315.803 680.372 313.547 682.03C310.515 684.257 308.359 685.404 308.629 689.251C308.828 692.102 310.396 693.284 311.195 693.706H310.56V694.33L311.096 694.812V695.578L312.09 696.472H312.781V706.101H308.614V707.586H308.996V714.233H308.614V715.092L309.274 715.755V716.808L310.497 718.037H311.593V729.453H308.314V731.556H308.674V739.802L305.664 741.948V758.379H299.096V710.774H296.807V700.98H297.955V696.679L299.211 695.485V692.872L300.942 691.227V689.098H296.371C298.687 687.437 301.949 683.846 302.424 676.637C303.17 665.295 297.199 661.912 288.802 655.345C282.331 650.285 276.858 641.09 274.687 637.137C274.654 637.077 274.618 637.024 274.579 636.973V636.049C276.277 635.901 277.543 635.34 277.543 634.67C277.543 633.999 276.278 633.439 274.579 633.291V629.734H274.573C274.576 629.58 274.579 629.419 274.579 629.246C274.579 628.322 274.461 627.249 274.312 626.256C277.044 626.079 279.329 624.26 280.193 621.773C279.124 623.073 277.505 623.903 275.692 623.903C272.474 623.903 269.866 621.289 269.866 618.067C269.866 615.854 271.096 613.929 272.908 612.939C269.669 613.408 267.181 616.198 267.181 619.571C267.181 623 269.752 625.825 273.067 626.224C272.915 627.226 272.795 628.312 272.795 629.246C272.795 629.419 272.797 629.58 272.801 629.734H272.795V633.291C271.096 633.439 269.83 633.999 269.83 634.67C269.83 635.341 271.096 635.901 272.795 636.049V636.973C272.756 637.023 272.719 637.077 272.687 637.137C270.516 641.09 265.042 650.285 258.573 655.345C250.176 661.912 244.204 665.295 244.951 676.637C245.425 683.846 248.688 687.437 251.003 689.098H246.432V691.227L248.163 692.872V695.485L249.419 696.679V700.98H250.567V710.774H248.278V747.577H128.478V721.306L124.576 718.525V707.837H125.043V705.11H120.793V690.314H122.214L123.799 688.721V687.355L124.654 686.496V685.383H124.159V676.767H124.654V674.842H119.253V662.362H120.148L121.435 661.203V660.21L122.131 659.584V658.775H121.307C122.343 658.229 124.375 656.697 124.634 653.001C124.984 648.016 122.189 646.528 118.258 643.641C115.333 641.493 112.849 637.656 111.766 635.83V635.128C112.477 635.039 112.989 634.791 112.989 634.5C112.989 634.209 112.477 633.961 111.766 633.872V632.761C111.948 632.211 112.063 631.197 112.063 629.363C112.063 626.982 111.632 623.857 111.373 622.197C111.34 621.98 111.028 621.98 110.994 622.197C110.736 623.858 110.305 626.982 110.305 629.363C110.305 631.197 110.42 632.211 110.602 632.761V633.872C109.891 633.961 109.379 634.209 109.379 634.5C109.379 634.791 109.891 635.039 110.602 635.128V635.83C109.519 637.656 107.035 641.493 104.11 643.641C100.18 646.528 97.3851 648.015 97.7339 653.001C97.9926 656.697 100.025 658.229 101.061 658.775H100.237V659.584L100.933 660.21V661.203L102.221 662.362H103.116V674.842H97.7144V676.767H98.2102V685.383H97.7144V686.496L98.5701 687.355V688.721L100.155 690.314H101.577V705.11H97.3266V707.837H97.7932V718.525L93.8916 721.306V748.361H83.6069V739.952H81.9794V732.992H82.7954V729.935L83.6879 729.086V727.229L84.9179 726.059V724.546H81.6689C83.3144 723.366 85.6334 720.813 85.9709 715.69C86.5011 707.629 82.2576 705.224 76.2891 700.557C71.6901 696.961 67.8007 690.425 66.2572 687.616C66.2339 687.574 66.2076 687.535 66.1799 687.499V686.843C67.3874 686.737 68.2866 686.339 68.2866 685.862C68.2866 685.386 67.3874 684.987 66.1799 684.882V682.354H66.1762C66.1784 682.245 66.1799 682.13 66.1799 682.007C66.1799 681.351 66.0967 680.588 65.9902 679.882C67.9326 679.756 69.5564 678.464 70.1699 676.696C69.4101 677.62 68.2596 678.21 66.9711 678.21C64.6836 678.21 62.8296 676.353 62.8296 674.062C62.8296 672.489 63.7034 671.121 64.9911 670.417C62.6894 670.75 60.9209 672.733 60.9209 675.131C60.9209 677.568 62.7479 679.576 65.1044 679.859C64.9964 680.572 64.9109 681.343 64.9109 682.007C64.9109 682.13 64.9124 682.245 64.9146 682.354H64.9109V684.882C63.7034 684.987 62.8041 685.386 62.8041 685.862C62.8041 686.339 63.7034 686.737 64.9109 686.843V687.499C64.8831 687.535 64.8569 687.574 64.8336 687.616C63.2909 690.425 59.4006 696.961 54.8024 700.557C48.8339 705.224 44.5904 707.629 45.1206 715.69C45.4581 720.813 47.7764 723.366 49.4227 724.546H46.1736V726.059L47.4044 727.229V729.086L48.2969 729.935V732.992H49.1129V739.952H47.4861V769.554H30.5039V780.869H14.6812V811.642H30.5032H34.0154H35.8034V785.956H37.0686C37.0686 782.908 40.8682 780.436 45.5557 780.436C50.2424 780.436 54.0426 782.908 54.0426 785.956H55.3079V811.642H61.6116V785.956H62.8769C62.8769 782.908 66.6764 780.436 71.3639 780.436C76.0514 780.436 79.8509 782.908 79.8509 785.956H81.1161V811.642H83.6076H87.4199V785.956H88.6851C88.6851 782.908 92.4847 780.436 97.1722 780.436C101.86 780.436 105.659 782.908 105.659 785.956H106.924V811.642H113.228V785.956H114.493C114.493 782.908 118.293 780.436 122.98 780.436C127.668 780.436 131.467 782.908 131.467 785.956H132.733V811.642H139.036V785.956H140.302C140.302 782.908 144.101 780.436 148.789 780.436C153.476 780.436 157.276 782.908 157.276 785.956H158.541V811.642H164.845V785.956H166.11C166.11 782.908 169.909 780.436 174.597 780.436C179.284 780.436 183.084 782.908 183.084 785.956H184.349V811.642H190.653V785.956H191.918C191.918 782.908 195.718 780.436 200.405 780.436C205.093 780.436 208.892 782.908 208.892 785.956H210.157V811.642H216.461V785.956H217.726C217.726 782.908 221.526 780.436 226.213 780.436C230.901 780.436 234.7 782.908 234.7 785.956H235.966V811.642H242.269V785.956H243.535C243.535 782.908 247.334 780.436 252.022 780.436C256.709 780.436 260.509 782.908 260.509 785.956H261.774V811.642H268.078V785.956H269.343C269.343 782.908 273.142 780.436 277.83 780.436C282.517 780.436 286.317 782.908 286.317 785.956H287.582V811.642H290.783H293.885V785.956H295.15C295.15 782.908 298.95 780.436 303.637 780.436C308.324 780.436 312.124 782.908 312.124 785.956H313.39V811.642H314.194H319.693V785.956H320.959C320.959 782.908 324.758 780.436 329.446 780.436C334.133 780.436 337.933 782.908 337.933 785.956H339.198V811.642H340.986H344.498H360.32V780.869H344.496V780.868ZM55.0424 739.952H51.0824V734.8H51.6524C51.9239 734.163 52.4534 733.731 53.0624 733.731C53.6714 733.731 54.2009 734.163 54.4724 734.8H55.0424V739.952ZM61.2854 739.952H57.3246V734.8H57.8946C58.1661 734.163 58.6956 733.731 59.3046 733.731C59.9136 733.731 60.4432 734.163 60.7147 734.8H61.2846L61.2854 739.952ZM67.5284 739.952H63.5677V734.8H64.1376C64.4091 734.163 64.9387 733.731 65.5477 733.731C66.1567 733.731 66.6861 734.163 66.9576 734.8H67.5284V739.952ZM73.7706 739.952H69.8106V734.8H70.3807C70.6522 734.163 71.1816 733.731 71.7906 733.731C72.3996 733.731 72.9291 734.163 73.2006 734.8H73.7706V739.952ZM80.0136 739.952H76.0529V734.8H76.6229C76.8944 734.163 77.4239 733.731 78.0329 733.731C78.6419 733.731 79.1714 734.163 79.4429 734.8H80.0129V739.952H80.0136ZM258.906 710.773H253.333V703.524H254.136C254.518 702.629 255.263 702.02 256.12 702.02C256.976 702.02 257.721 702.628 258.103 703.524H258.906V710.773ZM267.69 710.773H262.117V703.524H262.92C263.302 702.629 264.047 702.02 264.904 702.02C265.76 702.02 266.505 702.628 266.887 703.524H267.69V710.773ZM276.473 710.773H270.901V703.524H271.703C272.086 702.629 272.83 702.02 273.687 702.02C274.543 702.02 275.288 702.628 275.671 703.524H276.473V710.773ZM285.256 710.773H279.684V703.524H280.486C280.869 702.629 281.614 702.02 282.47 702.02C283.327 702.02 284.072 702.628 284.454 703.524H285.256V710.773ZM294.04 710.773H288.468V703.524H289.27C289.653 702.629 290.398 702.02 291.254 702.02C292.111 702.02 292.856 702.628 293.238 703.524H294.04V710.773Z" fill="#2B546A"/>
</g>
<g opacity="0.6">
<path d="M77.5991 653.79C80.4135 654.078 80.6463 654.312 80.934 657.131C81.2217 654.312 81.4545 654.078 84.2689 653.79C81.4545 653.502 81.2217 653.269 80.934 650.45C80.6463 653.269 80.4127 653.503 77.5991 653.79Z" fill="white"/>
<path d="M360.009 693.839C362.823 694.127 363.056 694.36 363.344 697.179C363.631 694.36 363.864 694.127 366.679 693.839C363.864 693.551 363.631 693.317 363.344 690.499C363.056 693.317 362.823 693.551 360.009 693.839Z" fill="white"/>
<path d="M319.167 621.8C324.796 622.376 325.262 622.843 325.836 628.481C326.411 622.843 326.877 622.377 332.506 621.8C326.877 621.225 326.411 620.758 325.836 615.12C325.262 620.758 324.796 621.225 319.167 621.8Z" fill="white"/>
<path d="M143.149 617.57C147.149 617.979 147.48 618.31 147.888 622.316C148.297 618.31 148.628 617.978 152.627 617.57C148.628 617.16 148.296 616.829 147.888 612.823C147.48 616.829 147.149 617.161 143.149 617.57Z" fill="white"/>
<path d="M233.785 649.699C237.785 650.109 238.116 650.44 238.524 654.446C238.933 650.44 239.264 650.108 243.264 649.699C239.264 649.29 238.933 648.958 238.524 644.952C238.116 648.958 237.786 649.29 233.785 649.699Z" fill="white"/>
<path d="M5.8811 670.669C9.88071 671.078 10.2123 671.41 10.6204 675.416C11.0293 671.41 11.36 671.078 15.3596 670.669C11.36 670.259 11.0285 669.928 10.6204 665.922C10.2123 669.928 9.88071 670.26 5.8811 670.669Z" fill="white"/>
<path d="M50.1357 618.607C54.1353 619.016 54.4669 619.348 54.875 623.354C55.2831 619.348 55.6147 619.016 59.6143 618.607C55.6147 618.198 55.2831 617.866 54.875 613.86C54.4669 617.866 54.1361 618.198 50.1357 618.607Z" fill="white"/>
<path d="M11.5469 584.918C13.404 585.108 13.557 585.262 13.7467 587.122C13.9364 585.261 14.0903 585.108 15.9466 584.918C14.0895 584.728 13.9364 584.574 13.7467 582.715C13.557 584.574 13.4032 584.728 11.5469 584.918Z" fill="white"/>
<path d="M0 740.882C1.85633 741.072 2.01016 741.226 2.19986 743.085C2.38956 741.226 2.54339 741.072 4.39972 740.882C2.54259 740.692 2.38956 740.538 2.19986 738.678C2.01016 740.538 1.85713 740.692 0 740.882Z" fill="white"/>
<path d="M5.6416 530.203C7.49793 530.393 7.65177 530.547 7.84147 532.407C8.03116 530.547 8.18499 530.393 10.0413 530.203C8.18419 530.013 8.03116 529.859 7.84147 528C7.65256 529.859 7.49873 530.013 5.6416 530.203Z" fill="white"/>
<path d="M302.364 594.431C304.22 594.621 304.374 594.775 304.564 596.635C304.753 594.774 304.907 594.621 306.763 594.431C304.907 594.241 304.753 594.087 304.564 592.228C304.375 594.087 304.221 594.241 302.364 594.431Z" fill="white"/>
<path d="M365.609 550.818C367.465 551.008 367.619 551.162 367.809 553.021C367.998 551.162 368.152 551.008 370.009 550.818C368.152 550.628 367.998 550.474 367.809 548.614C367.619 550.474 367.465 550.628 365.609 550.818Z" fill="white"/>
<path d="M21.1465 715.063C23.0028 715.253 23.1566 715.407 23.3463 717.267C23.536 715.407 23.6899 715.253 25.5462 715.063C23.6891 714.873 23.536 714.719 23.3463 712.86C23.1566 714.719 23.0028 714.873 21.1465 715.063Z" fill="white"/>
<path d="M97.3682 603.414C99.2245 603.604 99.3783 603.758 99.568 605.617C99.7577 603.757 99.9116 603.604 101.768 603.414C99.9116 603.224 99.7577 603.07 99.568 601.211C99.3791 603.07 99.2253 603.224 97.3682 603.414Z" fill="white"/>
<path d="M370.6 584.762C372.457 584.952 372.611 585.106 372.8 586.966C372.99 585.106 373.144 584.952 375 584.762C373.144 584.572 372.99 584.418 372.8 582.559C372.611 584.418 372.457 584.572 370.6 584.762Z" fill="white"/>
<path d="M343.609 643.47C345.465 643.66 345.619 643.814 345.809 645.673C345.998 643.813 346.152 643.66 348.009 643.47C346.152 643.28 345.998 643.126 345.809 641.267C345.619 643.126 345.465 643.28 343.609 643.47Z" fill="white"/>
<path d="M247.748 626.211C249.604 626.401 249.758 626.555 249.948 628.415C250.138 626.554 250.291 626.401 252.148 626.211C250.291 626.021 250.138 625.867 249.948 624.008C249.758 625.867 249.604 626.021 247.748 626.211Z" fill="white"/>
<path d="M148.287 649.699C150.144 649.889 150.297 650.043 150.487 651.902C150.676 650.043 150.83 649.889 152.687 649.699C150.829 649.509 150.676 649.355 150.487 647.495C150.297 649.355 150.144 649.509 148.287 649.699Z" fill="white"/>
</g>
</g>
<defs>
<linearGradient id="paint0_linear_1210_12488" x1="187.5" y1="0" x2="187.5" y2="812" gradientUnits="userSpaceOnUse">
<stop stop-color="#140442"/>
<stop offset="1" stop-color="#003232"/>
</linearGradient>
<clipPath id="clip0_1210_12488">
<rect width="375" height="812" fill="white"/>
</clipPath>
</defs>
</svg>
