<svg width="492" height="340" viewBox="0 0 492 340" fill="none" xmlns="http://www.w3.org/2000/svg">
<path d="M162.7 390.393C218.554 390.393 263.894 343.785 263.894 286.369C263.894 228.953 218.554 182.345 162.7 182.345C106.846 182.345 61.5057 228.953 61.5057 286.369C61.5057 343.785 106.846 390.393 162.7 390.393Z" fill="#A46CEF"/>
<path d="M82.4018 135.46C127.875 135.46 164.804 97.4985 164.804 50.7543C164.804 4.01014 127.875 -33.9516 82.4018 -33.9516C36.9291 -33.9516 0 4.01014 0 50.7543C0 97.4985 36.9291 135.46 82.4018 135.46Z" fill="#C767CC"/>
<path d="M378.614 426.297C424.087 426.297 461.016 388.335 461.016 341.591C461.016 294.847 424.087 256.885 378.614 256.885C333.142 256.885 296.213 294.847 296.213 341.591C296.213 388.335 333.142 426.297 378.614 426.297Z" fill="#C767CC"/>
<path d="M416.478 186.662L517.411 126.814C526.477 121.41 532 111.549 532 100.877V-18.8178C532 -29.4897 526.481 -39.4878 517.411 -44.892L416.478 -104.739C407.412 -110.144 396.237 -110.144 387.304 -104.739L286.371 -44.892C277.305 -39.4878 271.782 -29.6263 271.782 -18.9544V100.74C271.782 111.412 277.301 121.41 286.371 126.678L387.304 186.525C396.37 191.929 407.545 191.929 416.478 186.525V186.662Z" fill="#FFAE43"/>
</svg>
