<svg width="671" height="340" viewBox="0 0 671 340" fill="none" xmlns="http://www.w3.org/2000/svg">
<path d="M244.9 431.948C328.973 431.948 397.22 363.702 397.22 279.628C397.22 195.555 328.973 127.308 244.9 127.308C160.827 127.308 92.58 195.555 92.58 279.628C92.58 363.702 160.827 431.948 244.9 431.948Z" fill="#A46CEF"/>
<path d="M124.033 58.6551C192.48 58.6551 248.067 3.06839 248.067 -65.3783C248.067 -133.825 192.48 -189.412 124.033 -189.412C55.5867 -189.412 0 -133.825 0 -65.3783C0 3.06839 55.5867 58.6551 124.033 58.6551Z" fill="#C767CC"/>
<path d="M569.9 484.522C638.347 484.522 693.933 428.935 693.933 360.488C693.933 292.042 638.347 236.455 569.9 236.455C501.453 236.455 445.867 292.042 445.867 360.488C445.867 428.935 501.453 484.522 569.9 484.522Z" fill="#C767CC"/>
<path d="M626.893 133.628L778.82 45.995C792.467 38.0817 800.78 23.6417 800.78 8.01501V-167.252C800.78 -182.878 792.473 -197.518 778.82 -205.432L626.893 -293.065C613.247 -300.978 596.427 -300.978 582.98 -293.065L431.053 -205.432C417.407 -197.518 409.093 -183.078 409.093 -167.452V7.815C409.093 23.4417 417.4 38.0817 431.053 45.795L582.98 133.428C596.627 141.342 613.447 141.342 626.893 133.428V133.628Z" fill="#FFAE43"/>
</svg>
