<svg version="1.2" xmlns="http://www.w3.org/2000/svg" viewBox="0 0 13 12" width="13" height="12"><defs><clipPath clipPathUnits="userSpaceOnUse" id="cp1"><path d="m0.1 0h12.8v12h-12.8z"/></clipPath></defs><style>.a{fill:#1b8354}</style><g clip-path="url(#cp1)"><path class="a" d="m6.4 0q1.3 0 2.4 0.5 1 0.4 1.9 1.3 0.8 0.8 1.2 1.9 0.5 1.1 0.5 2.3 0 1.2-0.5 2.3-0.4 1.1-1.2 1.9-0.9 0.9-1.9 1.3-1.1 0.5-2.4 0.5-1.2 0-2.3-0.5-1.1-0.4-1.9-1.3-0.8-0.8-1.3-1.9-0.5-1.1-0.5-2.3 0-1.2 0.5-2.3 0.5-1.1 1.3-1.9 0.8-0.9 1.9-1.3 1.1-0.5 2.3-0.5zm0 1.2q-2 0-3.4 1.4-1.4 1.4-1.4 3.4 0 2 1.4 3.4 1.4 1.4 3.4 1.4 2 0 3.4-1.4 1.4-1.4 1.4-3.4 0-2-1.4-3.4-1.4-1.4-3.4-1.4zm0 1.8q-0.2 0-0.4 0.2-0.2 0.1-0.2 0.4 0 0.3 0.2 0.4 0.2 0.2 0.4 0.2 0.3 0 0.4-0.2 0.2-0.1 0.2-0.4 0-0.3-0.2-0.4-0.1-0.2-0.4-0.2zm0 2.4q-0.2 0-0.4 0.2-0.2 0.1-0.2 0.4v2.4q0 0.3 0.2 0.4 0.2 0.2 0.4 0.2 0.3 0 0.4-0.2 0.2-0.1 0.2-0.4v-2.4q0-0.3-0.2-0.4-0.1-0.2-0.4-0.2z"/></g></svg>