<svg width="54" height="54" viewBox="0 0 54 54" fill="none" xmlns="http://www.w3.org/2000/svg">
<path d="M12.7226 20.3742C12.1953 20.9999 11.3516 21.492 10.5079 21.4217C10.4024 20.5781 10.8172 19.6781 11.3024 19.1297C11.8297 18.49 12.7507 18.033 13.503 17.9978C13.5873 18.8696 13.2428 19.7344 12.7226 20.3742ZM13.4889 21.5834C12.2656 21.5131 11.218 22.2795 10.6415 22.2795C10.0509 22.2795 9.16504 21.6186 8.1948 21.6397C6.93631 21.6608 5.76922 22.3709 5.12943 23.5028C3.80766 25.7737 4.78493 29.1274 6.06451 30.9764C6.69024 31.8904 7.43549 32.8958 8.41978 32.8606C9.35486 32.8255 9.72046 32.256 10.8454 32.256C11.9773 32.256 12.3077 32.8606 13.292 32.8466C14.3115 32.8255 14.9513 31.9326 15.577 31.0186C16.2871 29.9781 16.5824 28.9727 16.5965 28.9164C16.5754 28.8953 14.6279 28.1501 14.6068 25.9003C14.5857 24.0161 16.1465 23.1232 16.2168 23.0669C15.338 21.7592 13.967 21.6186 13.4889 21.5834ZM20.5477 19.0383V32.7411H22.678V28.0587H25.6238C28.3166 28.0587 30.2008 26.2096 30.2008 23.538C30.2008 20.8663 28.3447 19.0383 25.6941 19.0383H20.5477ZM22.678 20.8312H25.1317C26.9808 20.8312 28.0354 21.8155 28.0354 23.545C28.0354 25.2745 26.9808 26.2729 25.1247 26.2729H22.678V20.8312ZM34.0817 32.8466C35.4176 32.8466 36.655 32.1716 37.2174 31.0959H37.2596V32.7411H39.2282V25.9214C39.2282 23.9458 37.6463 22.6662 35.2137 22.6662C32.9568 22.6662 31.2835 23.9598 31.2203 25.7315H33.1396C33.3013 24.8879 34.0817 24.3324 35.1504 24.3324C36.4511 24.3324 37.1823 24.9371 37.1823 26.055V26.8143L34.5247 26.976C32.0569 27.1236 30.7211 28.136 30.7211 29.8937C30.7281 31.6654 32.1061 32.8466 34.0817 32.8466ZM34.6583 31.2225C33.5263 31.2225 32.8022 30.6741 32.8022 29.8445C32.8022 28.9797 33.4982 28.4805 34.827 28.4032L37.1893 28.2556V29.0289C37.1893 30.3085 36.0995 31.2225 34.6583 31.2225ZM41.8647 36.4674C43.9387 36.4674 44.916 35.6729 45.7667 33.2755L49.5 22.7998H47.3346L44.8316 30.8921H44.7894L42.2865 22.7998H40.0648L43.6645 32.7763L43.4677 33.3809C43.1443 34.4074 42.617 34.8081 41.6749 34.8081C41.5061 34.8081 41.1827 34.787 41.0491 34.773V36.4182C41.1757 36.4463 41.703 36.4674 41.8647 36.4674Z" fill="white"/>
</svg>
