<svg width="28" height="17" viewBox="0 0 28 17" fill="none" xmlns="http://www.w3.org/2000/svg">
<mask id="path-1-inside-1_1958_89308" fill="white">
<path d="M2.92773 16.1422C3.11331 15.8561 3.2792 15.5855 3.46407 15.3296C3.49922 15.2811 3.61028 15.2727 3.6869 15.2727C5.53421 15.2698 7.38222 15.2769 9.22953 15.2642C9.5107 15.2621 9.70471 15.3155 9.83827 15.5805C9.93668 15.7767 10.085 15.9475 10.2207 16.1429H2.92914L2.92773 16.1422Z"/>
</mask>
<path d="M2.92773 16.1422C3.11331 15.8561 3.2792 15.5855 3.46407 15.3296C3.49922 15.2811 3.61028 15.2727 3.6869 15.2727C5.53421 15.2698 7.38222 15.2769 9.22953 15.2642C9.5107 15.2621 9.70471 15.3155 9.83827 15.5805C9.93668 15.7767 10.085 15.9475 10.2207 16.1429H2.92914L2.92773 16.1422Z" fill="#12141B" stroke="#12141B" stroke-width="2" mask="url(#path-1-inside-1_1958_89308)"/>
<mask id="path-2-inside-2_1958_89308" fill="white">
<path d="M10.3679 15.2675C10.6765 15.2675 10.9464 15.2647 11.2163 15.2704C11.262 15.2711 11.3225 15.2971 11.3506 15.3315C11.6353 15.6851 11.915 16.0429 12.1948 16.4C12.2004 16.407 12.1948 16.4218 12.1948 16.4485C11.8651 16.4485 11.5376 16.4506 11.2093 16.4457C11.1713 16.4457 11.12 16.4126 11.0982 16.3796C10.8599 16.0225 10.6259 15.6626 10.3672 15.2675H10.3679Z"/>
</mask>
<path d="M10.3679 15.2675C10.6765 15.2675 10.9464 15.2647 11.2163 15.2704C11.262 15.2711 11.3225 15.2971 11.3506 15.3315C11.6353 15.6851 11.915 16.0429 12.1948 16.4C12.2004 16.407 12.1948 16.4218 12.1948 16.4485C11.8651 16.4485 11.5376 16.4506 11.2093 16.4457C11.1713 16.4457 11.12 16.4126 11.0982 16.3796C10.8599 16.0225 10.6259 15.6626 10.3672 15.2675H10.3679Z" fill="#12141B" stroke="#12141B" stroke-width="2" mask="url(#path-2-inside-2_1958_89308)"/>
<mask id="path-3-inside-3_1958_89308" fill="white">
<path d="M0.858125 16.4484C1.1646 16.0597 1.44015 15.7076 1.72062 15.3589C1.75366 15.3181 1.81341 15.276 1.86121 15.2745C2.13606 15.2668 2.41161 15.2703 2.7223 15.2703C2.61757 15.4292 2.52829 15.5642 2.43972 15.6991C2.36521 15.8123 2.27032 15.917 2.22181 16.04C2.07631 16.4077 1.80708 16.5019 1.44086 16.4527C1.26372 16.4288 1.08025 16.4484 0.857422 16.4484H0.858125Z"/>
</mask>
<path d="M0.858125 16.4484C1.1646 16.0597 1.44015 15.7076 1.72062 15.3589C1.75366 15.3181 1.81341 15.276 1.86121 15.2745C2.13606 15.2668 2.41161 15.2703 2.7223 15.2703C2.61757 15.4292 2.52829 15.5642 2.43972 15.6991C2.36521 15.8123 2.27032 15.917 2.22181 16.04C2.07631 16.4077 1.80708 16.5019 1.44086 16.4527C1.26372 16.4288 1.08025 16.4484 0.857422 16.4484H0.858125Z" fill="#12141B" stroke="#12141B" stroke-width="2" mask="url(#path-3-inside-3_1958_89308)"/>
<mask id="path-4-inside-4_1958_89308" fill="white">
<path d="M12.8228 1.975C12.3181 1.01971 11.5484 0.469314 10.4378 0.465096C10.0716 0.46369 9.70532 0.468611 9.3391 0.468611C7.08901 0.467908 4.83892 0.46369 2.58953 0.468611C2.37513 0.468611 2.15441 0.503055 1.94775 0.562804C0.784395 0.900213 0.0540478 1.96235 0.0118718 3.13976C-0.0148397 3.87714 0.0118718 4.61593 0.0118718 5.35401C0.0111688 7.43892 0.00765434 9.52382 0.00765434 11.6087C0.00765434 11.6713 0.0196037 11.7388 0.0456123 11.795C0.452611 12.6702 0.862421 13.5432 1.27223 14.417C1.27926 14.4324 1.29262 14.4451 1.32776 14.4929V13.7196C1.35237 13.7091 1.36291 13.7007 1.37345 13.7007C2.01734 13.6993 2.66052 13.7007 3.30441 13.6964C3.40845 13.6964 3.43586 13.7393 3.43375 13.8349C3.42953 14.0634 3.43235 14.2925 3.43235 14.5161H9.39955V13.7119H11.8064V14.45C11.8169 14.4514 11.8268 14.4528 11.8373 14.4542C12.2577 13.5552 12.6794 12.6561 13.097 11.7556C13.1202 11.7057 13.1195 11.6411 13.1195 11.5834C13.1209 8.81948 13.1209 6.05484 13.1209 3.2909C13.1209 2.82977 13.0372 2.38341 12.8214 1.975H12.8228ZM4.93381 1.87589C5.06737 1.7346 5.2424 1.68469 5.43149 1.68399C6.19839 1.68328 6.96529 1.67907 7.73219 1.6868C8.10615 1.69031 8.35007 1.93634 8.34163 2.27445C8.3339 2.58726 8.07803 2.80587 7.71602 2.80728C7.33222 2.80868 6.94912 2.80728 6.56532 2.80728C6.16395 2.80728 5.76257 2.8122 5.3619 2.80517C5.11025 2.80095 4.91835 2.67864 4.82064 2.44597C4.73348 2.2386 4.77776 2.03967 4.93311 1.87518L4.93381 1.87589ZM3.57012 11.7001H1.32987V10.8453H3.57012V11.7001ZM8.16801 9.45985H4.93943V8.81245H8.16801V9.45985ZM8.17363 8.58611H4.94436V7.94714H8.17363V8.58611ZM11.798 11.7107H9.54224C9.54224 11.4597 9.53732 11.2024 9.54787 10.9459C9.54927 10.9079 9.62238 10.8404 9.66245 10.8404C10.3703 10.8341 11.0774 10.8355 11.7987 10.8355V11.7099L11.798 11.7107ZM11.8099 6.01266C11.8085 6.30227 11.6117 6.55462 11.2722 6.66006C11.0789 6.71981 10.868 6.74652 10.6648 6.74723C8.68115 6.75285 6.69817 6.75004 4.7145 6.74934C3.93565 6.74934 3.1568 6.75496 2.37795 6.74512C2.1987 6.74301 2.01172 6.71278 1.84231 6.65374C1.46624 6.52299 1.31862 6.28821 1.31862 5.88894C1.31862 5.36947 1.31862 4.8493 1.31862 4.32983C1.31862 3.82583 1.56465 3.532 2.06655 3.44765C2.19378 3.42656 2.32452 3.41672 2.45386 3.41672C3.83021 3.41461 5.20585 3.41531 6.58219 3.41531C7.95221 3.41531 9.32222 3.41391 10.6929 3.41602C11.0486 3.41602 11.398 3.46593 11.6412 3.75905C11.7284 3.86449 11.7994 4.01843 11.8036 4.15269C11.8205 4.77268 11.8134 5.39267 11.8099 6.01266Z"/>
</mask>
<path d="M12.8228 1.975C12.3181 1.01971 11.5484 0.469314 10.4378 0.465096C10.0716 0.46369 9.70532 0.468611 9.3391 0.468611C7.08901 0.467908 4.83892 0.46369 2.58953 0.468611C2.37513 0.468611 2.15441 0.503055 1.94775 0.562804C0.784395 0.900213 0.0540478 1.96235 0.0118718 3.13976C-0.0148397 3.87714 0.0118718 4.61593 0.0118718 5.35401C0.0111688 7.43892 0.00765434 9.52382 0.00765434 11.6087C0.00765434 11.6713 0.0196037 11.7388 0.0456123 11.795C0.452611 12.6702 0.862421 13.5432 1.27223 14.417C1.27926 14.4324 1.29262 14.4451 1.32776 14.4929V13.7196C1.35237 13.7091 1.36291 13.7007 1.37345 13.7007C2.01734 13.6993 2.66052 13.7007 3.30441 13.6964C3.40845 13.6964 3.43586 13.7393 3.43375 13.8349C3.42953 14.0634 3.43235 14.2925 3.43235 14.5161H9.39955V13.7119H11.8064V14.45C11.8169 14.4514 11.8268 14.4528 11.8373 14.4542C12.2577 13.5552 12.6794 12.6561 13.097 11.7556C13.1202 11.7057 13.1195 11.6411 13.1195 11.5834C13.1209 8.81948 13.1209 6.05484 13.1209 3.2909C13.1209 2.82977 13.0372 2.38341 12.8214 1.975H12.8228ZM4.93381 1.87589C5.06737 1.7346 5.2424 1.68469 5.43149 1.68399C6.19839 1.68328 6.96529 1.67907 7.73219 1.6868C8.10615 1.69031 8.35007 1.93634 8.34163 2.27445C8.3339 2.58726 8.07803 2.80587 7.71602 2.80728C7.33222 2.80868 6.94912 2.80728 6.56532 2.80728C6.16395 2.80728 5.76257 2.8122 5.3619 2.80517C5.11025 2.80095 4.91835 2.67864 4.82064 2.44597C4.73348 2.2386 4.77776 2.03967 4.93311 1.87518L4.93381 1.87589ZM3.57012 11.7001H1.32987V10.8453H3.57012V11.7001ZM8.16801 9.45985H4.93943V8.81245H8.16801V9.45985ZM8.17363 8.58611H4.94436V7.94714H8.17363V8.58611ZM11.798 11.7107H9.54224C9.54224 11.4597 9.53732 11.2024 9.54787 10.9459C9.54927 10.9079 9.62238 10.8404 9.66245 10.8404C10.3703 10.8341 11.0774 10.8355 11.7987 10.8355V11.7099L11.798 11.7107ZM11.8099 6.01266C11.8085 6.30227 11.6117 6.55462 11.2722 6.66006C11.0789 6.71981 10.868 6.74652 10.6648 6.74723C8.68115 6.75285 6.69817 6.75004 4.7145 6.74934C3.93565 6.74934 3.1568 6.75496 2.37795 6.74512C2.1987 6.74301 2.01172 6.71278 1.84231 6.65374C1.46624 6.52299 1.31862 6.28821 1.31862 5.88894C1.31862 5.36947 1.31862 4.8493 1.31862 4.32983C1.31862 3.82583 1.56465 3.532 2.06655 3.44765C2.19378 3.42656 2.32452 3.41672 2.45386 3.41672C3.83021 3.41461 5.20585 3.41531 6.58219 3.41531C7.95221 3.41531 9.32222 3.41391 10.6929 3.41602C11.0486 3.41602 11.398 3.46593 11.6412 3.75905C11.7284 3.86449 11.7994 4.01843 11.8036 4.15269C11.8205 4.77268 11.8134 5.39267 11.8099 6.01266Z" fill="#12141B" stroke="#12141B" stroke-width="2" mask="url(#path-4-inside-4_1958_89308)"/>
<mask id="path-5-inside-5_1958_89308" fill="white">
<path d="M27.4466 8.51298C27.3463 8.74612 27.2513 8.96606 27.151 9.20096C26.251 8.80682 25.3562 8.41533 24.4395 8.01415C24.2381 8.45844 24.0357 8.90272 23.8351 9.34876C23.6988 9.6514 23.558 9.9514 23.4375 10.2602C23.4076 10.3367 23.4199 10.4634 23.4656 10.5303C23.8897 11.1514 24.3304 11.762 24.7545 12.3831C24.8117 12.4667 24.8398 12.5986 24.824 12.6989C24.6964 13.5224 24.5574 14.345 24.4149 15.1658C24.4052 15.2212 24.341 15.311 24.3005 15.3118C23.9258 15.3233 23.5501 15.3189 23.1516 15.3189C23.2589 14.6344 23.3521 13.9728 23.4692 13.3156C23.5158 13.0544 23.5096 12.8485 23.2906 12.647C23.0372 12.4139 22.8313 12.1306 22.607 11.8711C22.5824 11.8816 22.563 11.8843 22.5586 11.8931C22.1046 12.8634 21.3542 13.6192 20.7102 14.4523C20.5299 14.6863 20.331 14.9063 20.1639 15.1491C20.0557 15.3066 19.965 15.296 19.8243 15.2054C19.5454 15.0259 19.2586 14.8596 18.9551 14.6758C19.2674 14.2385 19.5788 13.8022 19.8903 13.3667C20.1692 12.9769 20.4824 12.6057 20.7172 12.1913C20.9284 11.8192 21.0788 11.4057 21.2108 10.9966C21.5891 9.82296 21.9445 8.64231 22.3255 7.40975C21.9366 7.49245 21.6067 7.55667 21.2812 7.63937C21.2266 7.65345 21.1818 7.74142 21.151 7.80477C20.909 8.30008 20.6724 8.79803 20.4216 9.31973C20.1903 9.23615 19.9677 9.15433 19.7354 9.07076C20.0548 8.33615 20.3627 7.6209 20.6803 6.90916C20.7067 6.84934 20.7911 6.79655 20.8598 6.77632C21.517 6.58277 22.1759 6.3945 22.8375 6.2159C22.8911 6.20095 22.9967 6.24406 23.0266 6.29244C23.4076 6.90124 23.9407 7.1379 24.6489 6.99802C24.751 6.97778 24.8838 7.01297 24.9762 7.06664C25.7988 7.54084 26.6161 8.02559 27.4448 8.51298H27.4466Z"/>
</mask>
<path d="M27.4466 8.51298C27.3463 8.74612 27.2513 8.96606 27.151 9.20096C26.251 8.80682 25.3562 8.41533 24.4395 8.01415C24.2381 8.45844 24.0357 8.90272 23.8351 9.34876C23.6988 9.6514 23.558 9.9514 23.4375 10.2602C23.4076 10.3367 23.4199 10.4634 23.4656 10.5303C23.8897 11.1514 24.3304 11.762 24.7545 12.3831C24.8117 12.4667 24.8398 12.5986 24.824 12.6989C24.6964 13.5224 24.5574 14.345 24.4149 15.1658C24.4052 15.2212 24.341 15.311 24.3005 15.3118C23.9258 15.3233 23.5501 15.3189 23.1516 15.3189C23.2589 14.6344 23.3521 13.9728 23.4692 13.3156C23.5158 13.0544 23.5096 12.8485 23.2906 12.647C23.0372 12.4139 22.8313 12.1306 22.607 11.8711C22.5824 11.8816 22.563 11.8843 22.5586 11.8931C22.1046 12.8634 21.3542 13.6192 20.7102 14.4523C20.5299 14.6863 20.331 14.9063 20.1639 15.1491C20.0557 15.3066 19.965 15.296 19.8243 15.2054C19.5454 15.0259 19.2586 14.8596 18.9551 14.6758C19.2674 14.2385 19.5788 13.8022 19.8903 13.3667C20.1692 12.9769 20.4824 12.6057 20.7172 12.1913C20.9284 11.8192 21.0788 11.4057 21.2108 10.9966C21.5891 9.82296 21.9445 8.64231 22.3255 7.40975C21.9366 7.49245 21.6067 7.55667 21.2812 7.63937C21.2266 7.65345 21.1818 7.74142 21.151 7.80477C20.909 8.30008 20.6724 8.79803 20.4216 9.31973C20.1903 9.23615 19.9677 9.15433 19.7354 9.07076C20.0548 8.33615 20.3627 7.6209 20.6803 6.90916C20.7067 6.84934 20.7911 6.79655 20.8598 6.77632C21.517 6.58277 22.1759 6.3945 22.8375 6.2159C22.8911 6.20095 22.9967 6.24406 23.0266 6.29244C23.4076 6.90124 23.9407 7.1379 24.6489 6.99802C24.751 6.97778 24.8838 7.01297 24.9762 7.06664C25.7988 7.54084 26.6161 8.02559 27.4448 8.51298H27.4466Z" fill="#12141B" stroke="#12141B" stroke-width="2" mask="url(#path-5-inside-5_1958_89308)"/>
<mask id="path-6-inside-6_1958_89308" fill="white">
<path d="M28 15.6924V16.4648H16V15.6924H28Z"/>
</mask>
<path d="M28 15.6924V16.4648H16V15.6924H28Z" fill="#12141B" stroke="#12141B" stroke-width="2" mask="url(#path-6-inside-6_1958_89308)"/>
<mask id="path-7-inside-7_1958_89308" fill="white">
<path d="M18.3186 10.7411C18.8086 10.9927 19.2705 11.2294 19.7438 11.4713C19.4984 11.9561 19.2608 12.4267 19.0224 12.8974C18.7866 13.3628 18.55 13.8273 18.3423 14.2364C18.0951 14.2215 17.8567 14.1467 17.6676 14.2135C17.4766 14.2813 17.335 14.4898 17.1714 14.6358C17.1837 14.6569 17.196 14.6789 17.2083 14.7001C17.0913 14.6429 16.9734 14.5874 16.8573 14.5285C16.7394 14.4687 16.6233 14.4071 16.4922 14.3385C17.1001 13.1411 17.7036 11.9508 18.3177 10.7402L18.3186 10.7411Z"/>
</mask>
<path d="M18.3186 10.7411C18.8086 10.9927 19.2705 11.2294 19.7438 11.4713C19.4984 11.9561 19.2608 12.4267 19.0224 12.8974C18.7866 13.3628 18.55 13.8273 18.3423 14.2364C18.0951 14.2215 17.8567 14.1467 17.6676 14.2135C17.4766 14.2813 17.335 14.4898 17.1714 14.6358C17.1837 14.6569 17.196 14.6789 17.2083 14.7001C17.0913 14.6429 16.9734 14.5874 16.8573 14.5285C16.7394 14.4687 16.6233 14.4071 16.4922 14.3385C17.1001 13.1411 17.7036 11.9508 18.3177 10.7402L18.3186 10.7411Z" fill="#12141B" stroke="#12141B" stroke-width="2" mask="url(#path-7-inside-7_1958_89308)"/>
<mask id="path-8-inside-8_1958_89308" fill="white">
<path d="M25.6307 5.47008C25.6316 6.10791 25.1125 6.62785 24.4773 6.62609C23.8456 6.62433 23.3134 6.09735 23.3125 5.4736C23.3125 4.82345 23.8245 4.31582 24.4843 4.31494C25.1292 4.31494 25.6298 4.81729 25.6307 5.4692V5.47008Z"/>
</mask>
<path d="M25.6307 5.47008C25.6316 6.10791 25.1125 6.62785 24.4773 6.62609C23.8456 6.62433 23.3134 6.09735 23.3125 5.4736C23.3125 4.82345 23.8245 4.31582 24.4843 4.31494C25.1292 4.31494 25.6298 4.81729 25.6307 5.4692V5.47008Z" fill="#12141B" stroke="#12141B" stroke-width="2" mask="url(#path-8-inside-8_1958_89308)"/>
<mask id="path-9-inside-9_1958_89308" fill="white">
<path d="M18.3504 14.8187C18.3433 15.0906 18.0943 15.329 17.8322 15.3149C17.5577 15.2999 17.3272 15.0536 17.3404 14.7906C17.3536 14.5328 17.5911 14.3084 17.8498 14.3093C18.1225 14.3102 18.3565 14.5495 18.3504 14.8187Z"/>
</mask>
<path d="M18.3504 14.8187C18.3433 15.0906 18.0943 15.329 17.8322 15.3149C17.5577 15.2999 17.3272 15.0536 17.3404 14.7906C17.3536 14.5328 17.5911 14.3084 17.8498 14.3093C18.1225 14.3102 18.3565 14.5495 18.3504 14.8187Z" fill="#12141B" stroke="#12141B" stroke-width="2" mask="url(#path-9-inside-9_1958_89308)"/>
<mask id="path-10-inside-10_1958_89308" fill="white">
<path d="M19.8856 9.49316C19.9578 9.52923 20.0158 9.55827 20.095 9.59786C19.8399 10.0465 19.5909 10.4838 19.3331 10.9369C19.2742 10.9114 19.2179 10.8867 19.1211 10.8445C19.3789 10.3879 19.6287 9.94624 19.8847 9.49316H19.8856Z"/>
</mask>
<path d="M19.8856 9.49316C19.9578 9.52923 20.0158 9.55827 20.095 9.59786C19.8399 10.0465 19.5909 10.4838 19.3331 10.9369C19.2742 10.9114 19.2179 10.8867 19.1211 10.8445C19.3789 10.3879 19.6287 9.94624 19.8847 9.49316H19.8856Z" fill="#12141B" stroke="#12141B" stroke-width="2" mask="url(#path-10-inside-10_1958_89308)"/>
</svg>
