<svg version="1.2" xmlns="http://www.w3.org/2000/svg" viewBox="0 0 23 22" width="23" height="22"><style>.a{fill:#6c737f}</style><path fill-rule="evenodd" class="a" d="m1.9 5.5c0-1.5 1.2-2.8 2.7-2.8h12.8c1.6 0 2.8 1.3 2.8 2.8v12.8c0 1.6-1.2 2.8-2.8 2.8h-12.8c-1.5 0-2.7-1.2-2.7-2.8zm2.7-0.9c-0.5 0-0.9 0.4-0.9 0.9v12.9c0 0.5 0.4 0.9 0.9 0.9h12.8c0.5 0 1-0.4 1-0.9v-12.9c0-0.5-0.5-0.9-1-0.9z"/><path fill-rule="evenodd" class="a" d="m14.7 0.9c0.5 0 0.9 0.4 0.9 0.9v3.7c0 0.5-0.4 0.9-0.9 0.9-0.5 0-0.9-0.4-0.9-0.9v-3.7c0-0.5 0.4-0.9 0.9-0.9z"/><path fill-rule="evenodd" class="a" d="m7.4 0.9c0.5 0 0.9 0.4 0.9 0.9v3.7c0 0.5-0.4 0.9-0.9 0.9-0.6 0-1-0.4-1-0.9v-3.7c0-0.5 0.4-0.9 1-0.9z"/><path fill-rule="evenodd" class="a" d="m1.9 9.2c0-0.5 0.4-0.9 0.9-0.9h16.5c0.5 0 0.9 0.4 0.9 0.9 0 0.5-0.4 0.9-0.9 0.9h-16.5c-0.5 0-0.9-0.4-0.9-0.9z"/></svg>