<svg width="21" height="22" viewBox="0 0 21 22" fill="none" xmlns="http://www.w3.org/2000/svg">
<path fill-rule="evenodd" clip-rule="evenodd" d="M4.25 0C4.66421 0 5 0.335786 5 0.75V1.5H15.5V0.75C15.5 0.335786 15.8358 0 16.25 0C16.6642 0 17 0.335786 17 0.75V1.5H17.75C19.2688 1.5 20.5 2.73122 20.5 4.25V7.25V18.75C20.5 20.2688 19.2688 21.5 17.75 21.5H2.75C1.23122 21.5 0 20.2688 0 18.75V7.25V4.25C0 2.73122 1.23122 1.5 2.75 1.5H3.5V0.75C3.5 0.335786 3.83579 0 4.25 0ZM1.5 8V18.75C1.5 19.4404 2.05964 20 2.75 20H17.75C18.4404 20 19 19.4404 19 18.75V8H1.5ZM19 6.5H1.5V4.25C1.5 3.55964 2.05964 3 2.75 3H3.5V3.75C3.5 4.16421 3.83579 4.5 4.25 4.5C4.66421 4.5 5 4.16421 5 3.75V3H15.5V3.75C15.5 4.16421 15.8358 4.5 16.25 4.5C16.6642 4.5 17 4.16421 17 3.75V3H17.75C18.4404 3 19 3.55964 19 4.25V6.5Z" fill="#1B8354"/>
</svg>
