<svg version="1.2" xmlns="http://www.w3.org/2000/svg" viewBox="0 0 20 21" width="20" height="21"><style>.a{fill:#1b8354}</style><path class="a" d="m16.7 19.6q-0.2 0-0.3 0c-2.6-0.3-5.3-1.2-7.5-2.7-2.1-1.3-3.9-3.1-5.3-5.2-1.4-2.3-2.4-4.9-2.7-7.6-0.1-1.4 0.9-2.6 2.3-2.8q0.1 0 0.2 0h2.5q0 0 0.1 0c1.2 0 2.2 0.9 2.4 2.2q0.2 1.1 0.6 2.1c0.3 1 0.1 2-0.6 2.7l-0.6 0.6c1 1.5 2.3 2.8 3.8 3.8l0.6-0.6c0.7-0.7 1.8-0.9 2.7-0.6q1 0.4 2.1 0.6c1.3 0.2 2.2 1.2 2.2 2.5v2.5c0 0.7-0.3 1.3-0.7 1.8-0.5 0.4-1.1 0.7-1.8 0.7zm-10.8-16.6h-2.5c-0.5 0-0.8 0.4-0.8 0.9 0.3 2.4 1.1 4.8 2.4 6.9 1.2 1.9 2.9 3.5 4.8 4.7 2 1.3 4.4 2.2 6.8 2.4q0.4 0 0.7-0.2 0.2-0.3 0.2-0.6v-2.5c0-0.5-0.3-0.8-0.7-0.9q-1.3-0.1-2.5-0.6c-0.3-0.1-0.7 0-0.9 0.2l-1.1 1c-0.2 0.3-0.6 0.4-1 0.2-2.2-1.3-4-3.1-5.3-5.3-0.2-0.4-0.1-0.8 0.2-1l1-1.1c0.2-0.2 0.3-0.6 0.2-0.9q-0.5-1.2-0.6-2.5c-0.1-0.4-0.4-0.7-0.9-0.7z"/></svg>