<svg version="1.2" xmlns="http://www.w3.org/2000/svg" viewBox="0 0 24 24" width="24" height="24"><style>.a{fill:#1b8354}</style><path class="a" d="m20.8 20.8h-17.4c-0.6 0-1 0.4-1 0.9 0 0.6 0.4 1 1 1h17.4c0.5 0 1-0.4 1-1 0-0.5-0.5-0.9-1-0.9z"/><path class="a" d="m11.4 17.4q0.1 0.1 0.1 0.1 0.1 0 0.1 0.1 0.1 0 0.1 0 0.1 0 0.1 0 0 0 0.1 0.1 0.2 0 0.4 0 0-0.1 0-0.1 0.1 0 0.1 0 0.1 0 0.1 0 0.1-0.1 0.1-0.1 0.1 0 0.2-0.1l3.7-3.8c0.4-0.3 0.4-0.9 0-1.3-0.4-0.4-1-0.4-1.4 0l-2.1 2.1v-11c0-0.6-0.4-1-0.9-1-0.6 0-1 0.4-1 1v11l-2.1-2.1c-0.4-0.4-1-0.4-1.4 0-0.3 0.4-0.3 1 0 1.3z"/></svg>