<svg version="1.2" xmlns="http://www.w3.org/2000/svg" viewBox="0 0 24 24" width="24" height="24"><style>.a{fill:#1b8354}</style><path class="a" d="m3.1 22q0.1 0 0.2 0l6.4-1.3q0.3 0 0.5-0.3l10.9-10.8c0.6-0.6 0.9-1.4 0.9-2.3 0-0.8-0.3-1.6-0.9-2.2l-2.2-2.2c-0.6-0.6-1.4-0.9-2.2-0.9-0.9 0-1.7 0.3-2.3 0.9l-10.8 10.9q-0.3 0.2-0.3 0.5l-1.3 6.4c0 0.3 0 0.7 0.2 0.9 0.2 0.3 0.6 0.4 0.9 0.4zm12.8-17.5c0.2-0.2 0.5-0.4 0.8-0.4 0.3 0 0.5 0.2 0.7 0.4l2.1 2.1c0.2 0.2 0.4 0.4 0.4 0.7 0 0.3-0.2 0.6-0.4 0.8l-1.7 1.8-3.7-3.7zm-10.6 10.7l7.3-7.3 3.7 3.6-7.4 7.3-4.5 0.9z"/></svg>