<svg version="1.2" xmlns="http://www.w3.org/2000/svg" viewBox="0 0 16 16" width="16" height="16"><style>.a{fill:#1b8354}</style><path fill-rule="evenodd" class="a" d="m2.6 1.3c0.4-0.4 0.9-0.6 1.4-0.6h5.7q0.2 0 0.4 0.2l3.7 3.6q0.2 0.2 0.2 0.5v8.3c0 0.6-0.2 1.1-0.6 1.4-0.4 0.4-0.9 0.6-1.4 0.6h-8c-0.5 0-1-0.2-1.4-0.6-0.4-0.3-0.6-0.8-0.6-1.4v-10.6c0-0.6 0.2-1.1 0.6-1.4zm1.4 0.7q-0.3 0-0.5 0.2-0.2 0.2-0.2 0.5v10.6q0 0.3 0.2 0.5 0.2 0.2 0.5 0.2h8q0.3 0 0.5-0.2 0.2-0.2 0.2-0.5v-8l-3.3-3.3z"/><path fill-rule="evenodd" class="a" d="m9.3 0.7c0.4 0 0.7 0.3 0.7 0.6v3.4h3.3c0.4 0 0.7 0.3 0.7 0.6 0 0.4-0.3 0.7-0.7 0.7h-4c-0.3 0-0.6-0.3-0.6-0.7v-4c0-0.3 0.3-0.6 0.6-0.6z"/><path fill-rule="evenodd" class="a" d="m4.7 8.7c0-0.4 0.3-0.7 0.6-0.7h5.4c0.3 0 0.6 0.3 0.6 0.7 0 0.3-0.3 0.6-0.6 0.6h-5.4c-0.3 0-0.6-0.3-0.6-0.6z"/><path fill-rule="evenodd" class="a" d="m4.7 11.3c0-0.3 0.3-0.6 0.6-0.6h5.4c0.3 0 0.6 0.3 0.6 0.6 0 0.4-0.3 0.7-0.6 0.7h-5.4c-0.3 0-0.6-0.3-0.6-0.7z"/><path fill-rule="evenodd" class="a" d="m4.7 6c0-0.4 0.3-0.7 0.6-0.7h1.4c0.3 0 0.6 0.3 0.6 0.7 0 0.4-0.3 0.7-0.6 0.7h-1.4c-0.3 0-0.6-0.3-0.6-0.7z"/></svg>