<svg width="28" height="28" viewBox="0 0 28 28" fill="none" xmlns="http://www.w3.org/2000/svg">
<path d="M25.2667 11.4258H17.6425C17.4032 11.4258 17.2092 11.6196 17.2092 11.8591C17.2092 12.0987 17.4032 12.2925 17.6425 12.2925H25.2667C25.7446 12.2925 26.1333 12.6814 26.1333 13.1591V21.946C26.1333 22.4238 25.7446 22.8127 25.2667 22.8127H23.5591C23.3198 22.8127 23.1258 23.0065 23.1258 23.246V25.5206L20.5446 22.9396C20.4634 22.8584 20.3532 22.8127 20.2383 22.8127H13.3908C12.9129 22.8127 12.5242 22.4238 12.5242 21.946V13.2535H14.6092C15.5649 13.2535 16.3425 12.4761 16.3425 11.5202V2.73333C16.3425 1.77738 15.5649 1 14.6092 1H2.73333C1.77759 1 1 1.77738 1 2.73333V6.06289C1 6.3024 1.19402 6.49622 1.43333 6.49622C1.67264 6.49622 1.86667 6.3024 1.86667 6.06289V2.73333C1.86667 2.25557 2.25535 1.86667 2.73333 1.86667H14.6092C15.0871 1.86667 15.4758 2.25557 15.4758 2.73333V11.5202C15.4758 11.9979 15.0871 12.3868 14.6092 12.3868H7.76173C7.64684 12.3868 7.5366 12.4325 7.45535 12.5138L4.87419 15.0948V12.8202C4.87419 12.5807 4.68016 12.3868 4.44085 12.3868H2.73333C2.25535 12.3868 1.86667 11.9979 1.86667 11.5202V7.76152C1.86667 7.522 1.67264 7.32819 1.43333 7.32819C1.19402 7.32819 1 7.522 1 7.76152V11.5202C1 12.4761 1.77759 13.2535 2.73333 13.2535H4.00752V16.1408C4.00752 16.316 4.1131 16.4743 4.27497 16.5412C4.43539 16.608 4.62272 16.5718 4.74723 16.4472L7.94116 13.2535H11.6575V21.946C11.6575 22.9019 12.4351 23.6793 13.3908 23.6793H20.0588L23.2528 26.873C23.3771 26.9976 23.5646 27.0338 23.725 26.967C23.8869 26.9001 23.9925 26.7419 23.9925 26.5667V23.6793H25.2667C26.2224 23.6793 27 22.9019 27 21.946V13.1591C27 12.2032 26.2224 11.4258 25.2667 11.4258Z" fill="white" stroke="white" stroke-width="0.4"/>
<path d="M8.77897 3.93896C8.53966 3.93896 8.34564 4.13278 8.34564 4.3723V4.63382H5.50951C5.2702 4.63382 5.07617 4.82764 5.07617 5.06716C5.07617 5.30667 5.2702 5.50049 5.50951 5.50049H10.497C10.3369 6.12351 9.89327 7.25763 8.67516 8.24664C7.95275 7.65814 7.50629 7.02144 7.23311 6.49073C7.1235 6.27829 6.86198 6.19323 6.64954 6.30411C6.43669 6.41328 6.3529 6.67481 6.4625 6.88767C6.75431 7.4543 7.21705 8.12482 7.93703 8.75626C7.49809 9.02191 6.99544 9.26753 6.39923 9.47116C6.17283 9.5486 6.0518 9.79489 6.12925 10.0213C6.20628 10.2498 6.45884 10.3681 6.67938 10.2913C7.46868 10.0217 8.12236 9.68698 8.67264 9.32078C9.22021 9.68717 9.87584 10.0222 10.6638 10.2913C10.8842 10.3684 11.1369 10.2496 11.2139 10.0213C11.2914 9.79489 11.1703 9.5486 10.9439 9.47116C10.3504 9.26851 9.844 9.02505 9.40757 8.76001C10.7915 7.55131 11.2457 6.16962 11.3873 5.50049H11.8337C12.073 5.50049 12.267 5.30668 12.267 5.06716C12.267 4.82764 12.073 4.63383 11.8337 4.63383H9.21229V4.3723C9.21229 4.13279 9.01828 3.93896 8.77897 3.93896Z" fill="white" stroke="white" stroke-width="0.4"/>
<path d="M16.5655 20.6246C16.7898 20.7063 17.0391 20.589 17.1203 20.3643L17.8327 18.3936H20.8256L21.5381 20.3643C21.619 20.5916 21.8737 20.7054 22.0928 20.6246C22.318 20.5433 22.4346 20.2949 22.3531 20.0698L20.4266 14.7411C20.3646 14.5693 20.2017 14.4551 20.0191 14.4551H18.6391C18.4565 14.4551 18.2936 14.5693 18.2316 14.7411L16.3053 20.0698C16.2238 20.2949 16.3404 20.5433 16.5655 20.6246ZM18.9431 15.3217H19.715L20.5123 17.5269H18.146L18.9431 15.3217Z" fill="white" stroke="white" stroke-width="0.4"/>
</svg>
