<svg width="51" height="18" viewBox="0 0 51 18" fill="none" xmlns="http://www.w3.org/2000/svg">
<g clip-path="url(#clip0_173_8017)">
<path d="M21.8796 9.80371H0.530273V16.9159H21.8796V9.80371Z" fill="#84B740"/>
<path d="M21.8796 0.098877H0.530273V7.21742H21.8796V0.098877Z" fill="#259BD6"/>
<path d="M43.2288 15.4708L43.1337 15.4898C42.8041 15.5532 42.6837 15.5786 42.4428 15.5786C41.885 15.5786 41.2257 15.2933 41.2257 13.9495C41.2257 13.2585 41.3398 12.3394 42.3794 12.3394H42.3857C42.5632 12.3521 42.7661 12.3711 43.1464 12.4852L43.2288 12.5106V15.4708ZM43.4 8.77064L43.2288 8.80233V11.2872L43.0767 11.2428L43.0323 11.2301C42.8612 11.1794 42.4681 11.0653 42.0878 11.0653C40.0087 11.0653 39.5713 12.6373 39.5713 13.9558C39.5713 15.7624 40.5855 16.802 42.354 16.802C43.102 16.802 43.6535 16.7259 44.2113 16.5421C44.7248 16.3773 44.9086 16.1427 44.9086 15.642V8.51074C44.4142 8.59949 43.9007 8.68823 43.4 8.77064Z" fill="#27292D"/>
<path d="M49.4091 15.5145L49.3204 15.5399L49.0034 15.6223C48.7055 15.6984 48.4392 15.7427 48.2364 15.7427C47.7483 15.7427 47.4567 15.5019 47.4567 15.0898C47.4567 14.8236 47.5772 14.3735 48.3759 14.3735H49.4091V15.5145ZM48.6801 11.033C48.0399 11.033 47.3807 11.1471 46.5629 11.4006L46.0305 11.5591L46.208 12.7635L46.7278 12.5923C47.2729 12.4148 47.9512 12.3007 48.4583 12.3007C48.6865 12.3007 49.3837 12.3007 49.3837 13.0551V13.3847H48.4139C46.6454 13.3847 45.8276 13.9488 45.8276 15.1596C45.8276 16.1928 46.582 16.814 47.8497 16.814C48.2427 16.814 48.7879 16.7379 49.257 16.6238L49.2823 16.6175L49.3077 16.6238L49.4661 16.6492C49.9606 16.7379 50.474 16.8267 50.9748 16.9218V12.9663C50.9748 11.6859 50.2015 11.033 48.6801 11.033Z" fill="#27292D"/>
<path d="M37.0927 15.5145L37.0039 15.5399L36.687 15.6223C36.3891 15.6984 36.1292 15.7427 35.92 15.7427C35.4319 15.7427 35.1403 15.5019 35.1403 15.0898C35.1403 14.8236 35.2608 14.3735 36.0531 14.3735H37.0863L37.0927 15.5145ZM36.3701 11.033C35.7235 11.033 35.0706 11.1471 34.2529 11.4006L33.7204 11.5591L33.8979 12.7635L34.4177 12.5923C34.9628 12.4148 35.6411 12.3007 36.1482 12.3007C36.3764 12.3007 37.0737 12.3007 37.0737 13.0551V13.3847H36.1038C34.3353 13.3847 33.5112 13.9488 33.5112 15.1596C33.5112 16.1928 34.2656 16.814 35.5397 16.814C35.9327 16.814 36.4778 16.7379 36.9469 16.6238L36.9723 16.6175L36.9976 16.6238L37.1497 16.6492C37.6505 16.7379 38.1576 16.8267 38.6584 16.9281V12.9727C38.6647 11.6795 37.8914 11.033 36.3701 11.033Z" fill="#27292D"/>
<path d="M30.418 11.0459C29.613 11.0459 28.9474 11.3121 28.7002 11.4262L28.6368 11.4579L28.5797 11.4135C28.2375 11.1663 27.7367 11.0396 27.0394 11.0396C26.4245 11.0396 25.8477 11.1283 25.2202 11.3121C24.6813 11.4769 24.4722 11.7368 24.4722 12.2249V16.7445H26.1583V12.5672L26.2407 12.5419C26.583 12.4278 26.7859 12.4087 26.9824 12.4087C27.4704 12.4087 27.7177 12.6686 27.7177 13.1757V16.7509H29.3784V13.106C29.3784 12.8905 29.3341 12.7637 29.3277 12.7384L29.2707 12.6306L29.3848 12.5799C29.6383 12.4658 29.9172 12.4087 30.2088 12.4087C30.5448 12.4087 30.9441 12.5419 30.9441 13.1757V16.7509H32.5986V13.0109C32.5986 11.6861 31.8886 11.0459 30.418 11.0459Z" fill="#27292D"/>
<path d="M48.1666 4.73892C47.9194 4.73892 47.5074 4.71357 47.1841 4.65018L47.089 4.63116V2.1907C47.089 1.98786 47.051 1.86108 47.0447 1.84206L46.9939 1.74064L47.1017 1.69627C47.1271 1.68359 47.1524 1.67725 47.1841 1.66458L47.2031 1.6519C47.2412 1.63922 47.2792 1.62654 47.3172 1.61386C47.3362 1.60753 47.3489 1.60119 47.3616 1.60119C47.7356 1.49976 48.0779 1.51244 48.23 1.49976H48.2364C49.2696 1.49976 49.39 2.4189 49.39 3.10983C49.3837 4.45367 48.7181 4.73892 48.1666 4.73892ZM48.1603 0.098877C48.1476 0.098877 48.1286 0.098877 48.1159 0.098877C47.1461 0.098877 46.1509 0.365109 45.7959 0.884895C45.6057 1.13845 45.498 1.45539 45.4916 1.82939V4.34591C45.4916 4.56143 45.4473 4.64384 45.4409 4.66286L45.3839 4.77062H42.3222V3.02109H42.3159C42.2778 1.17648 41.1875 0.162266 39.6092 0.162266H39.4253H38.0688C38.0054 0.612324 37.9547 0.929267 37.8913 1.37933H39.4253C40.2304 1.37933 40.6551 2.06392 40.6551 3.11617V4.87838L40.5473 4.82133C40.5283 4.81499 40.3952 4.77062 40.186 4.77062H37.5364C37.4857 5.10658 37.4223 5.54396 37.3525 5.98134H45.498C45.7769 5.92429 46.1002 5.87358 46.3791 5.82921C46.7911 6.03205 47.5581 6.13981 48.0842 6.13981C49.8528 6.13981 51.0001 4.95444 51.0001 3.12885C50.9938 1.32228 49.8845 0.13691 48.1603 0.098877Z" fill="#27292D"/>
<path d="M33.879 6.72284H33.9551C35.7236 6.72284 36.5477 6.13966 36.5477 4.70074C36.5477 3.66751 35.7934 2.84346 34.5256 2.84346H32.8965C32.4084 2.84346 32.1168 2.56455 32.1168 2.09547C32.1168 1.77853 32.2373 1.38552 33.036 1.38552H36.5984C36.6745 0.922781 36.7125 0.631194 36.7822 0.168457H33.0803C31.3562 0.168457 30.4877 0.891087 30.4877 2.09547C30.4877 3.28718 31.2421 3.90838 32.5098 3.90838H34.1389C34.627 3.90838 34.9186 4.29505 34.9186 4.70074C34.9186 4.96697 34.7982 5.51846 34.0058 5.51846H33.7332L28.5164 5.50578H27.5655C26.7605 5.50578 26.1963 5.04938 26.1963 3.99079V3.26182C26.1963 2.15886 26.6337 1.47426 27.5655 1.47426H29.1122C29.1819 1.00519 29.2263 0.70726 29.2897 0.26354H27.3627H27.1789C25.6005 0.26354 24.5102 1.32213 24.4722 3.16674V3.23647V3.99079C24.5102 5.8354 25.6005 6.7165 27.1789 6.7165H27.3627H28.7192L31.5463 6.72284H33.2325H33.879Z" fill="#27292D"/>
</g>
<defs>
<clipPath id="clip0_173_8017">
<rect width="50.47" height="16.8297" fill="white" transform="translate(0.530273 0.449219)"/>
</clipPath>
</defs>
</svg>
