<svg version="1.2" xmlns="http://www.w3.org/2000/svg" viewBox="0 0 20 21" width="20" height="21"><style>.a{fill:#1b8354}</style><path fill-rule="evenodd" class="a" d="m0.8 5.5c0-1.4 1.2-2.5 2.5-2.5h13.4c1.3 0 2.5 1.1 2.5 2.5v10c0 1.4-1.2 2.5-2.5 2.5h-13.4c-1.3 0-2.5-1.1-2.5-2.5zm2.5-0.8c-0.4 0-0.8 0.3-0.8 0.8v10c0 0.5 0.4 0.8 0.8 0.8h13.4c0.4 0 0.8-0.3 0.8-0.8v-10c0-0.5-0.4-0.8-0.8-0.8z"/><path fill-rule="evenodd" class="a" d="m1 5.9c0.2-0.4 0.7-0.5 1.1-0.3l7.5 4.8q0.2 0.1 0.4 0.1 0.2 0 0.4-0.1l7.5-4.8c0.4-0.2 0.9-0.1 1.1 0.3 0.3 0.4 0.2 0.9-0.2 1.1l-7.5 4.8q-0.6 0.4-1.3 0.4-0.7 0-1.3-0.4l-7.5-4.8c-0.4-0.2-0.5-0.7-0.2-1.1z"/></svg>