<svg width="45" height="44" viewBox="0 0 45 44" fill="none" xmlns="http://www.w3.org/2000/svg">
<path d="M27.5723 12.4883H16.9849V31.5121H27.5723V12.4883Z" fill="#FF5F00"/>
<path d="M17.6571 22.0004C17.6571 18.1351 19.4721 14.7068 22.2618 12.4884C20.2115 10.8751 17.6235 9.90039 14.8002 9.90039C8.11157 9.90039 2.7002 15.3118 2.7002 22.0004C2.7002 28.689 8.11157 34.1003 14.8002 34.1003C17.6235 34.1003 20.2115 33.1256 22.2618 31.5123C19.4721 29.3276 17.6571 25.8656 17.6571 22.0004Z" fill="#EB001B"/>
<path d="M41.8575 22.0004C41.8575 28.689 36.4461 34.1003 29.7576 34.1003C26.9342 34.1003 24.3462 33.1256 22.2959 31.5123C25.1192 29.294 26.9006 25.8656 26.9006 22.0004C26.9006 18.1351 25.0856 14.7068 22.2959 12.4884C24.3462 10.8751 26.9342 9.90039 29.7576 9.90039C36.4461 9.90039 41.8575 15.3454 41.8575 22.0004Z" fill="#F79E1B"/>
</svg>
