<svg width="34" height="26" viewBox="0 0 34 26" fill="none" xmlns="http://www.w3.org/2000/svg">
<path d="M27.0062 3.54545H6.99303C6.7351 5.35362 5.3106 6.78954 3.51683 7.04954V18.9505C5.3106 19.2105 6.7351 20.6465 6.99303 22.4546H27.0062C27.2642 20.6465 28.6886 19.2105 30.4824 18.9505V7.04954C28.6886 6.78954 27.2642 5.35362 27.0062 3.54545ZM22.5102 16.12L20.3822 18.6964C20.265 18.8382 20.1008 18.9091 19.9308 18.9091C19.796 18.9091 19.6671 18.8618 19.5557 18.7732C19.3095 18.5664 19.2743 18.1882 19.4795 17.94L21.6133 15.3636H11.1377C10.8153 15.3636 10.5515 15.0977 10.5515 14.7727C10.5515 14.4477 10.8153 14.1818 11.1377 14.1818H21.6073C22.0704 14.1818 22.4748 14.4418 22.6742 14.8614C22.8676 15.2809 22.8033 15.7655 22.5102 16.12ZM22.8619 11.8182H12.3923C11.9292 11.8182 11.5247 11.5582 11.3254 11.1386C11.132 10.7191 11.1964 10.2345 11.4895 9.88L13.6175 7.30364C13.8285 7.05545 14.1978 7.02 14.444 7.22682C14.6902 7.43364 14.7254 7.81183 14.5202 8.05999L12.3864 10.6364H22.862C23.1844 10.6364 23.4482 10.9023 23.4482 11.2273C23.4482 11.5523 23.1843 11.8182 22.8619 11.8182ZM31.6552 0H2.34483C1.05225 0 0 1.06069 0 2.36364V23.6364C0 24.9393 1.05225 26 2.34483 26H31.6552C32.9478 26 34 24.9393 34 23.6364V2.36364C34 1.06069 32.9478 0 31.6552 0ZM31.6552 19.4998C31.6552 19.8263 31.3928 20.0907 31.069 20.0907C29.4525 20.0907 28.1379 21.4158 28.1379 23.0453C28.1379 23.3717 27.8756 23.6362 27.5517 23.6362H6.44828C6.1244 23.6362 5.86207 23.3717 5.86207 23.0453C5.86207 21.4158 4.5475 20.0907 2.93103 20.0907C2.60716 20.0907 2.34483 19.8263 2.34483 19.4998V6.49981C2.34483 6.17333 2.60716 5.9089 2.93103 5.9089C4.5475 5.9089 5.86207 4.58379 5.86207 2.95436C5.86207 2.62788 6.1244 2.36345 6.44828 2.36345H27.5517C27.8756 2.36345 28.1379 2.62788 28.1379 2.95436C28.1379 4.58379 29.4525 5.9089 31.069 5.9089C31.3928 5.9089 31.6552 6.17333 31.6552 6.49981V19.4998Z" fill="#BABABA"/>
</svg>
