<svg width="130" height="17" viewBox="0 0 130 17" fill="none" xmlns="http://www.w3.org/2000/svg">
<path fill-rule="evenodd" clip-rule="evenodd" d="M8.29619 1.2092C8.44711 1.1526 8.61343 1.1526 8.76436 1.2092L14.0977 3.2092C14.3579 3.30677 14.5303 3.55552 14.5303 3.83341V8.50008C14.5303 10.7977 13.0091 12.6336 11.6359 13.8351C10.9354 14.4481 10.2379 14.9273 9.71694 15.2529C9.45576 15.4162 9.23715 15.5419 9.08232 15.6276C9.00486 15.6705 8.94322 15.7034 8.90006 15.7261C8.87847 15.7374 8.86149 15.7462 8.84944 15.7524L8.83511 15.7597L8.83079 15.7618L8.82936 15.7626C8.82914 15.7627 8.82842 15.763 8.53027 15.1667C8.23213 15.763 8.23194 15.7629 8.23172 15.7628L8.22975 15.7618L8.22544 15.7597L8.2111 15.7524C8.19906 15.7462 8.18208 15.7374 8.16049 15.7261C8.11732 15.7034 8.05569 15.6705 7.97823 15.6276C7.82339 15.5419 7.60479 15.4162 7.34361 15.2529C6.82264 14.9273 6.12519 14.4481 5.4246 13.8351C4.05144 12.6336 2.53027 10.7977 2.53027 8.50008V3.83341C2.53027 3.55552 2.70266 3.30677 2.96286 3.2092L8.29619 1.2092ZM8.53027 15.1667L8.23172 15.7628C8.4194 15.8567 8.64073 15.8569 8.82842 15.763L8.53027 15.1667ZM8.53027 14.4086C8.65803 14.3362 8.82141 14.2403 9.01027 14.1222C9.4893 13.8229 10.1252 13.3853 10.7579 12.8317C12.0514 11.6999 13.1969 10.2025 13.1969 8.50008V4.29542L8.53027 2.54542L3.86361 4.29542V8.50008C3.86361 10.2025 5.00911 11.6999 6.30261 12.8317C6.93535 13.3853 7.57125 13.8229 8.05027 14.1222C8.23914 14.2403 8.40251 14.3362 8.53027 14.4086Z" fill="#1DAB52"/>
<path fill-rule="evenodd" clip-rule="evenodd" d="M11.0018 6.69526C11.2622 6.95561 11.2622 7.37772 11.0018 7.63807L8.33517 10.3047C8.07482 10.5651 7.65271 10.5651 7.39236 10.3047L6.05903 8.9714C5.79868 8.71106 5.79868 8.28895 6.05903 8.0286C6.31938 7.76825 6.74149 7.76825 7.00184 8.0286L7.86377 8.89052L10.059 6.69526C10.3194 6.43491 10.7415 6.43491 11.0018 6.69526Z" fill="#1DAB52"/>
<path d="M20.5423 4.6H23.9143V13H22.3063V5.236L23.0143 5.944H20.5423V4.6ZM29.3603 4.54C30.5203 4.54 31.4123 4.908 32.0363 5.644C32.6603 6.38 32.9723 7.432 32.9723 8.8C32.9723 10.168 32.6603 11.22 32.0363 11.956C31.4123 12.692 30.5203 13.06 29.3603 13.06C28.2003 13.06 27.3083 12.692 26.6843 11.956C26.0603 11.22 25.7483 10.168 25.7483 8.8C25.7483 7.432 26.0603 6.38 26.6843 5.644C27.3083 4.908 28.2003 4.54 29.3603 4.54ZM29.3603 5.728C28.7043 5.728 28.2123 5.976 27.8843 6.472C27.5643 6.968 27.4043 7.744 27.4043 8.8C27.4043 9.848 27.5643 10.624 27.8843 11.128C28.2123 11.624 28.7043 11.872 29.3603 11.872C30.0243 11.872 30.5163 11.624 30.8363 11.128C31.1563 10.624 31.3163 9.848 31.3163 8.8C31.3163 7.744 31.1563 6.968 30.8363 6.472C30.5163 5.976 30.0243 5.728 29.3603 5.728ZM37.833 4.54C38.993 4.54 39.885 4.908 40.509 5.644C41.133 6.38 41.445 7.432 41.445 8.8C41.445 10.168 41.133 11.22 40.509 11.956C39.885 12.692 38.993 13.06 37.833 13.06C36.673 13.06 35.781 12.692 35.157 11.956C34.533 11.22 34.221 10.168 34.221 8.8C34.221 7.432 34.533 6.38 35.157 5.644C35.781 4.908 36.673 4.54 37.833 4.54ZM37.833 5.728C37.177 5.728 36.685 5.976 36.357 6.472C36.037 6.968 35.877 7.744 35.877 8.8C35.877 9.848 36.037 10.624 36.357 11.128C36.685 11.624 37.177 11.872 37.833 11.872C38.497 11.872 38.989 11.624 39.309 11.128C39.629 10.624 39.789 9.848 39.789 8.8C39.789 7.744 39.629 6.968 39.309 6.472C38.989 5.976 38.497 5.728 37.833 5.728ZM44.6976 4.576C45.3936 4.576 45.9416 4.796 46.3416 5.236C46.7496 5.676 46.9536 6.288 46.9536 7.072C46.9536 7.856 46.7496 8.472 46.3416 8.92C45.9416 9.368 45.3936 9.592 44.6976 9.592C44.2416 9.592 43.8416 9.492 43.4976 9.292C43.1616 9.092 42.9016 8.804 42.7176 8.428C42.5416 8.044 42.4536 7.592 42.4536 7.072C42.4536 6.288 42.6536 5.676 43.0536 5.236C43.4536 4.796 44.0016 4.576 44.6976 4.576ZM44.6976 5.428C44.3136 5.428 44.0136 5.576 43.7976 5.872C43.5896 6.16 43.4856 6.56 43.4856 7.072C43.4856 7.6 43.5896 8.012 43.7976 8.308C44.0136 8.596 44.3136 8.74 44.6976 8.74C45.0896 8.74 45.3936 8.596 45.6096 8.308C45.8256 8.012 45.9336 7.6 45.9336 7.072C45.9336 6.56 45.8256 6.16 45.6096 5.872C45.3936 5.576 45.0896 5.428 44.6976 5.428ZM50.3136 4.6H51.5016L45.3816 13H44.1816L50.3136 4.6ZM51.0696 8.008C51.7656 8.008 52.3136 8.228 52.7136 8.668C53.1216 9.108 53.3256 9.72 53.3256 10.504C53.3256 11.288 53.1216 11.904 52.7136 12.352C52.3136 12.8 51.7656 13.024 51.0696 13.024C50.6136 13.024 50.2136 12.924 49.8696 12.724C49.5336 12.524 49.2736 12.236 49.0896 11.86C48.9136 11.476 48.8256 11.024 48.8256 10.504C48.8256 9.72 49.0256 9.108 49.4256 8.668C49.8256 8.228 50.3736 8.008 51.0696 8.008ZM51.0696 8.86C50.6856 8.86 50.3856 9.008 50.1696 9.304C49.9616 9.592 49.8576 9.992 49.8576 10.504C49.8576 11.032 49.9616 11.444 50.1696 11.74C50.3856 12.028 50.6856 12.172 51.0696 12.172C51.4616 12.172 51.7656 12.028 51.9816 11.74C52.1976 11.444 52.3056 11.032 52.3056 10.504C52.3056 9.992 52.1976 9.592 51.9816 9.304C51.7656 9.008 51.4616 8.86 51.0696 8.86ZM63.2524 6.676C62.9564 6.492 62.6524 6.34 62.3404 6.22C62.0364 6.1 61.7484 6.016 61.4764 5.968C61.2044 5.912 60.9564 5.884 60.7324 5.884C60.3564 5.884 60.0524 5.956 59.8204 6.1C59.5964 6.244 59.4844 6.456 59.4844 6.736C59.4844 6.992 59.5644 7.2 59.7244 7.36C59.8924 7.52 60.1084 7.652 60.3724 7.756C60.6444 7.86 60.9404 7.96 61.2604 8.056C61.5804 8.152 61.9004 8.26 62.2204 8.38C62.5404 8.492 62.8324 8.64 63.0964 8.824C63.3684 9.008 63.5844 9.244 63.7444 9.532C63.9044 9.82 63.9844 10.18 63.9844 10.612C63.9844 11.132 63.8444 11.576 63.5644 11.944C63.2844 12.312 62.9004 12.596 62.4124 12.796C61.9324 12.996 61.3844 13.096 60.7684 13.096C60.3204 13.096 59.8804 13.04 59.4484 12.928C59.0244 12.808 58.6204 12.648 58.2364 12.448C57.8604 12.248 57.5204 12.016 57.2164 11.752L57.8884 10.444C58.1764 10.708 58.4884 10.936 58.8244 11.128C59.1604 11.312 59.4964 11.456 59.8324 11.56C60.1764 11.656 60.4964 11.704 60.7924 11.704C61.2484 11.704 61.6004 11.616 61.8484 11.44C62.1044 11.264 62.2324 11.016 62.2324 10.696C62.2324 10.432 62.1484 10.22 61.9804 10.06C61.8204 9.9 61.6084 9.768 61.3444 9.664C61.0804 9.552 60.7844 9.456 60.4564 9.376C60.1364 9.288 59.8164 9.188 59.4964 9.076C59.1764 8.956 58.8804 8.808 58.6084 8.632C58.3444 8.448 58.1284 8.216 57.9604 7.936C57.8004 7.656 57.7204 7.3 57.7204 6.868C57.7204 6.38 57.8524 5.96 58.1164 5.608C58.3804 5.248 58.7444 4.972 59.2084 4.78C59.6804 4.58 60.2324 4.48 60.8644 4.48C61.4244 4.48 61.9684 4.56 62.4964 4.72C63.0324 4.88 63.5004 5.092 63.9004 5.356L63.2524 6.676ZM69.7796 9.316C69.7636 8.98 69.6876 8.696 69.5516 8.464C69.4156 8.224 69.2236 8.04 68.9756 7.912C68.7356 7.776 68.4596 7.708 68.1476 7.708C67.7876 7.708 67.4756 7.792 67.2116 7.96C66.9476 8.128 66.7396 8.364 66.5876 8.668C66.4436 8.972 66.3716 9.324 66.3716 9.724C66.3716 10.164 66.4516 10.544 66.6116 10.864C66.7796 11.184 67.0076 11.432 67.2956 11.608C67.5836 11.776 67.9156 11.86 68.2916 11.86C68.9716 11.86 69.5516 11.616 70.0316 11.128L70.8596 11.956C70.5396 12.308 70.1516 12.58 69.6956 12.772C69.2396 12.964 68.7316 13.06 68.1716 13.06C67.4996 13.06 66.9156 12.924 66.4196 12.652C65.9316 12.372 65.5476 11.992 65.2676 11.512C64.9956 11.024 64.8596 10.456 64.8596 9.808C64.8596 9.16 64.9956 8.592 65.2676 8.104C65.5476 7.616 65.9316 7.236 66.4196 6.964C66.9156 6.692 67.4836 6.552 68.1236 6.544C68.8836 6.544 69.4956 6.7 69.9596 7.012C70.4316 7.324 70.7676 7.764 70.9676 8.332C71.1676 8.892 71.2396 9.56 71.1836 10.336H66.1436V9.316H69.7796ZM76.9651 8.548C76.7651 8.324 76.5211 8.152 76.2331 8.032C75.9531 7.904 75.6371 7.84 75.2851 7.84C74.9411 7.84 74.6371 7.924 74.3731 8.092C74.1091 8.252 73.9011 8.48 73.7491 8.776C73.6051 9.072 73.5331 9.416 73.5331 9.808C73.5331 10.2 73.6051 10.544 73.7491 10.84C73.9011 11.136 74.1091 11.368 74.3731 11.536C74.6371 11.704 74.9411 11.788 75.2851 11.788C75.6531 11.788 75.9851 11.724 76.2811 11.596C76.5771 11.468 76.8211 11.276 77.0131 11.02L77.9851 11.812C77.7051 12.204 77.3291 12.512 76.8571 12.736C76.3851 12.952 75.8371 13.06 75.2131 13.06C74.5731 13.06 74.0091 12.924 73.5211 12.652C73.0331 12.372 72.6491 11.992 72.3691 11.512C72.0971 11.024 71.9611 10.456 71.9611 9.808C71.9611 9.16 72.0971 8.592 72.3691 8.104C72.6491 7.616 73.0331 7.236 73.5211 6.964C74.0091 6.684 74.5731 6.544 75.2131 6.544C75.8131 6.544 76.3411 6.644 76.7971 6.844C77.2531 7.036 77.6291 7.308 77.9251 7.66L76.9651 8.548ZM80.6906 10.168C80.6906 10.632 80.8106 11 81.0506 11.272C81.2986 11.536 81.6386 11.668 82.0706 11.668C82.5746 11.652 82.9666 11.464 83.2466 11.104C83.5346 10.744 83.6786 10.292 83.6786 9.748H84.0866C84.0866 10.524 83.9786 11.156 83.7626 11.644C83.5466 12.124 83.2426 12.48 82.8506 12.712C82.4586 12.936 81.9906 13.052 81.4466 13.06C80.9666 13.06 80.5506 12.96 80.1986 12.76C79.8546 12.56 79.5866 12.276 79.3946 11.908C79.2106 11.532 79.1186 11.092 79.1186 10.588V6.604H80.6906V10.168ZM83.6786 6.604H85.2506V13H83.6786V6.604ZM90.9416 7.96C90.4936 7.928 90.1056 7.996 89.7776 8.164C89.4496 8.324 89.1976 8.556 89.0216 8.86C88.8456 9.164 88.7576 9.512 88.7576 9.904L88.3376 9.856C88.3376 9.144 88.4416 8.544 88.6496 8.056C88.8576 7.56 89.1576 7.184 89.5496 6.928C89.9416 6.672 90.4056 6.544 90.9416 6.544V7.96ZM87.1976 6.604H88.7576V13H87.1976V6.604ZM96.3694 9.316C96.3534 8.98 96.2774 8.696 96.1414 8.464C96.0054 8.224 95.8134 8.04 95.5654 7.912C95.3254 7.776 95.0494 7.708 94.7374 7.708C94.3774 7.708 94.0654 7.792 93.8014 7.96C93.5374 8.128 93.3294 8.364 93.1774 8.668C93.0334 8.972 92.9614 9.324 92.9614 9.724C92.9614 10.164 93.0414 10.544 93.2014 10.864C93.3694 11.184 93.5974 11.432 93.8854 11.608C94.1734 11.776 94.5054 11.86 94.8814 11.86C95.5614 11.86 96.1414 11.616 96.6214 11.128L97.4494 11.956C97.1294 12.308 96.7414 12.58 96.2854 12.772C95.8294 12.964 95.3214 13.06 94.7614 13.06C94.0894 13.06 93.5054 12.924 93.0094 12.652C92.5214 12.372 92.1374 11.992 91.8574 11.512C91.5854 11.024 91.4494 10.456 91.4494 9.808C91.4494 9.16 91.5854 8.592 91.8574 8.104C92.1374 7.616 92.5214 7.236 93.0094 6.964C93.5054 6.692 94.0734 6.552 94.7134 6.544C95.4734 6.544 96.0854 6.7 96.5494 7.012C97.0214 7.324 97.3574 7.764 97.5574 8.332C97.7574 8.892 97.8294 9.56 97.7734 10.336H92.7334V9.316H96.3694ZM101.389 6.604H102.997L104.569 11.536L106.093 6.604H107.665L109.213 11.536L110.749 6.604H112.333L109.993 13H108.385L106.873 8.368L105.337 13H103.753L101.389 6.604ZM113.237 6.604H114.797V13H113.237V6.604ZM114.005 3.88C114.261 3.88 114.473 3.964 114.641 4.132C114.809 4.3 114.893 4.512 114.893 4.768C114.893 5.016 114.809 5.228 114.641 5.404C114.473 5.572 114.261 5.656 114.005 5.656C113.757 5.656 113.549 5.572 113.381 5.404C113.213 5.228 113.129 5.016 113.129 4.768C113.129 4.512 113.213 4.3 113.381 4.132C113.549 3.964 113.757 3.88 114.005 3.88ZM118.541 10.912C118.541 11.232 118.601 11.452 118.721 11.572C118.841 11.692 119.005 11.752 119.213 11.752C119.341 11.752 119.481 11.732 119.633 11.692C119.785 11.644 119.949 11.572 120.125 11.476L120.485 12.604C120.245 12.748 119.985 12.864 119.705 12.952C119.433 13.032 119.157 13.072 118.877 13.072C118.533 13.072 118.217 13.008 117.929 12.88C117.641 12.744 117.413 12.536 117.245 12.256C117.077 11.968 116.993 11.608 116.993 11.176V5.092H118.541V10.912ZM116.093 6.844H120.377V7.936H116.093V6.844ZM126.449 9.424C126.449 8.96 126.321 8.596 126.065 8.332C125.817 8.068 125.469 7.936 125.021 7.936C124.493 7.936 124.077 8.12 123.773 8.488C123.477 8.848 123.329 9.304 123.329 9.856H122.921C122.921 9.072 123.029 8.44 123.245 7.96C123.469 7.472 123.785 7.116 124.193 6.892C124.601 6.66 125.085 6.544 125.645 6.544C126.133 6.544 126.553 6.644 126.905 6.844C127.265 7.044 127.541 7.328 127.733 7.696C127.925 8.056 128.021 8.492 128.021 9.004V13H126.449V9.424ZM121.769 4.096H123.329V13H121.769V4.096Z" fill="#12141B"/>
</svg>
