<svg version="1.2" xmlns="http://www.w3.org/2000/svg" viewBox="0 0 24 24" width="24" height="24">
	<style>
		.s0 { fill: #ffffff } 
		.s1 { fill: #1b8354 } 
	</style>
	<path fill-rule="evenodd" class="s0" d="m12 0c6.6 0 12 5.4 12 12 0 6.6-5.4 12-12 12-6.6 0-12-5.4-12-12 0-6.6 5.4-12 12-12z"/>
	<path fill-rule="evenodd" class="s1" d="m13.6 8.4c0.3-0.2 0.7-0.2 1 0.1l2.5 2.6c0.2 0.3 0.2 0.7 0 1l-2.5 2.7c-0.3 0.3-0.7 0.3-1 0-0.3-0.3-0.4-0.8-0.1-1.1l1.3-1.3h-7.3c-0.4 0-0.7-0.4-0.7-0.8 0-0.4 0.3-0.7 0.7-0.7h7.3l-1.3-1.4c-0.3-0.3-0.2-0.8 0.1-1.1z"/>
</svg>