<svg width="84" height="24" viewBox="0 0 84 24" fill="none" xmlns="http://www.w3.org/2000/svg">
<path d="M73.3749 4.77582L68.3572 23.9395V24H72.2867L77.3043 4.83627H73.3749V4.77582ZM11.3497 15.6574C10.7452 15.9597 10.1406 16.0806 9.47563 16.0806C8.0852 16.0806 7.29931 15.8388 7.1784 14.6902V14.6297C7.1784 14.5693 7.1784 14.5693 7.1784 14.5088V11.1839V10.8212V8.46347V7.49622V7.1335V4.89673L3.6721 5.3199C6.02979 4.83627 7.35976 3.02267 7.35976 1.14862V0H3.43029V5.38035L3.18848 5.44081V15.3552C3.30938 18.136 5.18344 19.8287 8.14566 19.8287C9.23382 19.8287 10.3824 19.5869 11.2892 19.1637L11.3497 15.6574Z" fill="#292929"/>
<path d="M11.9547 4.05049L0.952148 5.74318V8.52404L11.9547 6.83134V4.05049ZM11.9547 8.16132L0.952148 9.85401V12.514L11.9547 10.8213V8.16132ZM24.2872 9.43084C24.1058 6.34772 22.1713 4.47366 19.0277 4.47366C17.2141 4.47366 15.7028 5.1991 14.6751 6.52908C13.6474 7.85905 13.1033 9.79356 13.1033 12.1512C13.1033 14.5089 13.6474 16.4434 14.6751 17.7734C15.7028 19.1034 17.2141 19.7684 19.0277 19.7684C22.1713 19.7684 24.1058 17.9548 24.2872 14.8112V19.4661H28.2166V4.83638L24.2872 5.44091V9.43084ZM24.529 12.1512C24.529 14.8716 23.0781 16.6852 20.8413 16.6852C18.5441 16.6852 17.1537 14.9926 17.1537 12.1512C17.1537 9.30993 18.5441 7.61724 20.8413 7.61724C21.9295 7.61724 22.8967 8.04041 23.5617 8.88676C24.1663 9.67265 24.529 10.8213 24.529 12.1512ZM39.6423 4.47366C36.4987 4.47366 34.5642 6.28726 34.3829 9.43084V0.544189L30.4534 1.14872V19.4661H34.3829V14.8112C34.5642 17.9548 36.4987 19.7684 39.6423 19.7684C43.33 19.7684 45.5668 16.9271 45.5668 12.1512C45.5668 7.37543 43.33 4.47366 39.6423 4.47366ZM37.8892 16.6852C35.6524 16.6852 34.2015 14.9321 34.2015 12.1512C34.2015 10.8213 34.5642 9.67265 35.1688 8.88676C35.8338 8.04041 36.7406 7.61724 37.8892 7.61724C40.1864 7.61724 41.5768 9.30993 41.5768 12.1512C41.5768 14.9926 40.1864 16.6852 37.8892 16.6852ZM56.2066 4.47366C53.063 4.47366 51.1285 6.28726 50.9471 9.43084V0.544189L47.0176 1.14872V19.4661H50.9471V14.8112C51.1285 17.9548 53.063 19.7684 56.2066 19.7684C59.8942 19.7684 62.131 16.9271 62.131 12.1512C62.131 7.37543 59.8942 4.47366 56.2066 4.47366ZM54.4534 16.6852C52.2166 16.6852 50.7657 14.9321 50.7657 12.1512C50.7657 10.8213 51.1285 9.67265 51.733 8.88676C52.398 8.04041 53.3048 7.61724 54.4534 7.61724C56.7506 7.61724 58.1411 9.30993 58.1411 12.1512C58.1411 14.9926 56.7506 16.6852 54.4534 16.6852ZM62.131 4.77593H66.3023L69.6877 19.4661H65.9396L62.131 4.77593ZM80.5088 6.28726V5.13865H80.0252V4.89684H81.2947V5.13865H80.8111V6.28726H80.5088ZM81.3552 6.28726V4.83638H81.8388L82.0806 5.50137C82.1411 5.68273 82.2015 5.74318 82.2015 5.80364C82.2015 5.74318 82.262 5.68273 82.3224 5.50137L82.5642 4.83638H83.0479V6.28726H82.7456V5.13865L82.3224 6.28726H82.0202L81.6574 5.13865V6.28726H81.3552Z" fill="#292929"/>
</svg>
