<svg width="22" height="22" viewBox="0 0 22 22" fill="none" xmlns="http://www.w3.org/2000/svg">
<path fill-rule="evenodd" clip-rule="evenodd" d="M15.6187 1.51987C13.9744 1.45166 12.2705 1.57424 11.3849 1.65561C11.1408 1.67804 10.9071 1.7782 10.7109 1.94689C7.60733 4.61426 4.78441 7.37707 2.08293 10.3942C1.33296 11.2318 1.30312 12.5175 2.01314 13.4345C3.8013 15.744 5.75594 17.6986 8.06544 19.4868C8.98245 20.1968 10.2681 20.167 11.1057 19.417C14.1229 16.7155 16.8857 13.8926 19.553 10.7891C19.7217 10.5928 19.8219 10.3592 19.8443 10.115C19.9257 9.22945 20.0483 7.52552 19.9801 5.88124C19.9459 5.05784 19.8647 4.27413 19.7159 3.62623C19.5614 2.9536 19.3581 2.53832 19.1599 2.34006C18.9616 2.1418 18.5463 1.9385 17.8737 1.78401C17.2258 1.63521 16.4421 1.55403 15.6187 1.51987ZM18.2095 0.322076C18.9581 0.494015 19.7163 0.775198 20.2205 1.2794C20.7247 1.7836 21.0059 2.54184 21.1779 3.29046C21.3555 4.0638 21.4427 4.94907 21.4788 5.81907C21.5511 7.56159 21.4217 9.34214 21.338 10.2522C21.2859 10.8202 21.0535 11.3446 20.6906 11.7668C17.9813 14.9191 15.1728 17.7888 12.1063 20.5345C10.7032 21.7908 8.60825 21.8041 7.14712 20.6728C4.73744 18.8071 2.69283 16.7625 0.827092 14.3528C-0.304211 12.8917 -0.290886 10.7967 0.965428 9.39362C3.7111 6.32712 6.58082 3.51863 9.73315 0.809313C10.1553 0.446443 10.6798 0.214085 11.2477 0.161899C12.1578 0.0782717 13.9384 -0.0511281 15.6809 0.0211625C16.5509 0.0572555 17.4361 0.144456 18.2095 0.322076ZM16.25 6.00024C15.8358 6.00024 15.5 5.66446 15.5 5.25024C15.5 4.83603 15.8358 4.50024 16.25 4.50024C16.6642 4.50024 17 4.83603 17 5.25024C17 5.66446 16.6642 6.00024 16.25 6.00024ZM14 5.25024C14 6.49289 15.0073 7.50024 16.25 7.50024C17.4926 7.50024 18.5 6.49289 18.5 5.25024C18.5 4.0076 17.4926 3.00024 16.25 3.00024C15.0073 3.00024 14 4.0076 14 5.25024ZM6.2803 12.2199C5.98741 11.927 5.51253 11.927 5.21964 12.2199C4.92675 12.5128 4.92675 12.9877 5.21964 13.2806L8.21964 16.2806C8.51253 16.5735 8.98741 16.5735 9.2803 16.2806C9.57319 15.9877 9.57319 15.5128 9.2803 15.2199L6.2803 12.2199Z" fill="#1B8354"/>
</svg>
