<svg width="20" height="22" viewBox="0 0 20 22" fill="none" xmlns="http://www.w3.org/2000/svg">
<path fill-rule="evenodd" clip-rule="evenodd" d="M10.5 1.5H11.75C12.1642 1.5 12.5 1.16421 12.5 0.75C12.5 0.335786 12.1642 0 11.75 0H9.75H7.75C7.33579 0 7 0.335786 7 0.75C7 1.16421 7.33579 1.5 7.75 1.5H9V2.02842C7.24839 2.16166 5.62614 2.75774 4.25529 3.69463L3.28033 2.71967C2.98744 2.42678 2.51256 2.42678 2.21967 2.71967C1.92678 3.01256 1.92678 3.48744 2.21967 3.78033L3.07886 4.63952C1.18378 6.41821 0 8.94586 0 11.75C0 17.1348 4.36522 21.5 9.75 21.5C15.1348 21.5 19.5 17.1348 19.5 11.75C19.5 8.94586 18.3162 6.41821 16.4211 4.63952L17.2803 3.78033C17.5732 3.48744 17.5732 3.01256 17.2803 2.71967C16.9874 2.42678 16.5126 2.42678 16.2197 2.71967L15.2447 3.69463C13.8739 2.75774 12.2516 2.16166 10.5 2.02842V1.5ZM9.75 3.5C5.19365 3.5 1.5 7.19365 1.5 11.75C1.5 16.3063 5.19365 20 9.75 20C14.3063 20 18 16.3063 18 11.75C18 7.19365 14.3063 3.5 9.75 3.5ZM10.5 8.25C10.5 7.83579 10.1642 7.5 9.75 7.5C9.33579 7.5 9 7.83579 9 8.25V12.25C9 12.4489 9.07902 12.6397 9.21967 12.7803L11.2197 14.7803C11.5126 15.0732 11.9874 15.0732 12.2803 14.7803C12.5732 14.4874 12.5732 14.0126 12.2803 13.7197L10.5 11.9393V8.25Z" fill="#1B8354"/>
</svg>
