<svg width="20" height="20" viewBox="0 0 20 20" fill="none" xmlns="http://www.w3.org/2000/svg">
<path d="M5.6235 1.25C4.59537 1.25 3.75 2.09765 3.75 3.12583V14.375C3.75 14.7203 4.02968 15 4.375 15H15.625C15.9703 15 16.25 14.7203 16.25 14.375V3.12583C16.25 2.0977 15.4024 1.25 14.3742 1.25H5.6235ZM5.6235 2.50078H14.3752C14.7275 2.50078 15.0002 2.77343 15.0002 3.12578V3.75H4.9985V3.12578C4.9985 2.77343 5.27115 2.50078 5.6235 2.50078ZM4.9985 4.99995H15.0002V8.74995H4.9985V4.99995ZM4.9985 9.99995H15.0002V13.7491H4.9985V9.99995ZM6.875 10.9375C6.35703 10.9375 5.9375 11.357 5.9375 11.875C5.9375 12.1234 6.03594 12.3625 6.21172 12.5382C6.38828 12.714 6.62657 12.8125 6.875 12.8125C7.12343 12.8125 7.36172 12.714 7.53828 12.5382C7.71407 12.3625 7.8125 12.1234 7.8125 11.875C7.8125 11.357 7.39297 10.9375 6.875 10.9375ZM13.125 10.9375C12.607 10.9375 12.1875 11.357 12.1875 11.875C12.1875 12.1234 12.2859 12.3625 12.4617 12.5382C12.6383 12.714 12.8766 12.8125 13.125 12.8125C13.3734 12.8125 13.6117 12.714 13.7883 12.5382C13.9641 12.3625 14.0625 12.1234 14.0625 11.875C14.0625 11.357 13.643 10.9375 13.125 10.9375ZM5.62333 15.6251C5.58193 15.6251 5.5413 15.629 5.50068 15.6376C5.33896 15.6696 5.19599 15.765 5.10458 15.9025L3.85458 17.779C3.66394 18.0657 3.74129 18.4532 4.02723 18.6446C4.16473 18.7368 4.33348 18.7704 4.49676 18.7384C4.65926 18.7055 4.80223 18.6102 4.89441 18.472L5.33348 17.8126H14.6663L15.1054 18.472C15.1976 18.6102 15.3405 18.7056 15.503 18.7384C15.6663 18.7704 15.8351 18.7368 15.9726 18.6446C16.2585 18.4532 16.3358 18.0657 16.1452 17.779L15.514 16.8321L14.8952 15.9024C14.8038 15.7649 14.6608 15.6696 14.4991 15.6376C14.3358 15.604 14.1663 15.6376 14.028 15.7298C13.7554 15.9141 13.6718 16.2782 13.8374 16.5626H6.16638C6.33122 16.2774 6.24528 15.9126 5.97184 15.7298C5.86872 15.661 5.74684 15.6251 5.62341 15.6251L5.62333 15.6251Z" fill="#6F7A8F"/>
</svg>
