<svg width="22" height="22" viewBox="0 0 22 22" fill="none" xmlns="http://www.w3.org/2000/svg">
<g clip-path="url(#clip0_1082_11381)">
<path fill-rule="evenodd" clip-rule="evenodd" d="M0.916016 11.0003C0.916016 5.43131 5.43034 0.916992 10.9993 0.916992C16.5684 0.916992 21.0827 5.43131 21.0827 11.0003C21.0827 16.5693 16.5684 21.0837 10.9993 21.0837C5.43034 21.0837 0.916016 16.5693 0.916016 11.0003ZM10.9993 2.75033C6.44286 2.75033 2.74935 6.44384 2.74935 11.0003C2.74935 15.5568 6.44286 19.2503 10.9993 19.2503C15.5558 19.2503 19.2494 15.5568 19.2494 11.0003C19.2494 6.44384 15.5558 2.75033 10.9993 2.75033Z" fill="#E6E1F2"/>
<path d="M13.7731 15.5786C13.6771 15.5786 13.6291 15.5786 13.5331 15.5306L10.7974 14.0907L8.06163 15.5306C7.91764 15.6265 7.72566 15.5786 7.53368 15.4826C7.3897 15.3866 7.29371 15.1946 7.3417 15.0026L7.86965 11.9309L5.66187 9.81912C5.51788 9.72313 5.46989 9.53115 5.51788 9.33917C5.56588 9.14718 5.70986 9.05119 5.90184 9.0032L8.97354 8.57124L10.3654 5.78752C10.4614 5.59553 10.6054 5.49954 10.7974 5.49954C10.9893 5.49954 11.1333 5.59553 11.2293 5.78752L12.6212 8.57124L15.6929 9.0032C15.8369 9.05119 15.9808 9.14718 16.0768 9.33917C16.1728 9.53115 16.0768 9.72313 15.9329 9.81912L13.7251 11.9309L14.253 15.0026C14.301 15.1946 14.205 15.3866 14.061 15.4826C13.965 15.5306 13.8691 15.5786 13.7731 15.5786ZM10.7974 13.0828C10.8934 13.0828 10.9413 13.0828 11.0373 13.1308L13.1491 14.2347L12.7172 11.8829C12.6692 11.7389 12.7652 11.5469 12.8612 11.451L14.541 9.81912L12.2372 9.48315C12.0932 9.48315 11.9492 9.33917 11.8533 9.24318L10.7974 7.08339L9.74146 9.19518C9.69347 9.33917 9.54948 9.43516 9.3575 9.48315L7.05373 9.81912L8.73356 11.451C8.82955 11.5469 8.87755 11.6909 8.87755 11.8829L8.44559 14.2347L10.5574 13.1308C10.6534 13.0828 10.7014 13.0828 10.7974 13.0828Z" fill="#A46CEF"/>
<path fill-rule="evenodd" clip-rule="evenodd" d="M10.7234 5.83849C10.7077 5.84889 10.6813 5.87307 10.6524 5.931L9.18512 8.86548L5.96491 9.31832C5.9065 9.33439 5.87509 9.35236 5.85903 9.3655C5.8468 9.3755 5.83649 9.38756 5.82914 9.41698C5.81694 9.46575 5.8198 9.504 5.82637 9.527C5.83222 9.54748 5.83979 9.55214 5.83979 9.55214L5.86328 9.5678L8.21476 11.817L7.65587 15.0688L7.65296 15.0804C7.64773 15.1013 7.64921 15.1256 7.66059 15.1522C7.67023 15.1747 7.68493 15.1936 7.70011 15.2068C7.76924 15.2395 7.82161 15.2557 7.85806 15.2605C7.87385 15.2626 7.88261 15.2622 7.88663 15.2616L7.89749 15.2544L10.7974 13.7281L13.6792 15.2449C13.6921 15.2512 13.6993 15.254 13.7025 15.2551C13.7053 15.2561 13.7058 15.2561 13.7058 15.2561C13.7058 15.2561 13.7102 15.2568 13.7209 15.2572C13.7329 15.2577 13.7471 15.2577 13.772 15.2577C13.772 15.2577 13.7828 15.2562 13.8044 15.2481C13.829 15.2389 13.8559 15.2262 13.8939 15.2074C13.9093 15.1942 13.9243 15.175 13.9341 15.1522C13.9455 15.1256 13.947 15.1013 13.9418 15.0804L13.9389 15.0688L13.38 11.817L15.7314 9.5678L15.7549 9.55217C15.775 9.53875 15.7881 9.52022 15.7927 9.50723C15.7946 9.5019 15.7946 9.49716 15.7946 9.49716C15.7946 9.49716 15.7943 9.49152 15.7899 9.48265C15.7432 9.38919 15.6822 9.34314 15.6152 9.31626L12.4096 8.86548L10.9424 5.931C10.9134 5.87307 10.887 5.84889 10.8714 5.83849C10.8578 5.82942 10.8372 5.82038 10.7974 5.82038C10.7575 5.82038 10.737 5.82942 10.7234 5.83849ZM7.88938 15.261L7.88755 15.2615L7.88938 15.261ZM10.3674 5.30459C10.4978 5.21767 10.6452 5.17871 10.7974 5.17871C10.9495 5.17871 11.0969 5.21767 11.2273 5.30459C11.3557 5.39017 11.4493 5.50998 11.5163 5.64403L12.8328 8.27701L15.7666 8.68957L15.7943 8.69883C16.006 8.76938 16.224 8.91612 16.3638 9.19568C16.5453 9.55869 16.3628 9.90114 16.1375 10.0673L14.0702 12.0448L14.5675 14.938C14.6452 15.2744 14.4766 15.5911 14.239 15.7495L14.2224 15.7606L14.2045 15.7695C14.1996 15.772 14.1943 15.7747 14.1886 15.7775C14.1057 15.8195 13.9476 15.8994 13.7731 15.8994C13.7705 15.8994 13.7678 15.8994 13.765 15.8994C13.7234 15.8994 13.6633 15.8995 13.6003 15.889C13.5253 15.8765 13.4585 15.8519 13.3896 15.8175L13.3836 15.8145L10.7974 14.4533L8.22334 15.808C7.92133 15.9968 7.58171 15.8653 7.3902 15.7695L7.37234 15.7606L7.35572 15.7495C7.1181 15.5911 6.94953 15.2744 7.02726 14.938L7.52454 12.0448L5.45732 10.0674C5.18711 9.86843 5.1401 9.52748 5.20663 9.26135C5.2944 8.91027 5.56926 8.75564 5.82403 8.69194L5.84043 8.68784L8.76196 8.27701L10.0784 5.64403C10.1455 5.50998 10.239 5.39017 10.3674 5.30459ZM10.8006 6.35952L12.1177 9.0535C12.1527 9.0877 12.1844 9.11677 12.2159 9.13969C12.2328 9.15195 12.2448 9.15881 12.2521 9.16232H12.2605L15.2315 9.5956L13.087 11.6789C13.0809 11.6851 13.0714 11.6965 13.0611 11.7125C13.0503 11.7292 13.0411 11.7472 13.0346 11.7641C13.0293 11.7779 13.0269 11.7882 13.0259 11.7944L13.0287 11.8028L13.5835 14.8238L10.8916 13.4166C10.8785 13.4102 10.8712 13.4074 10.8679 13.4062C10.8652 13.4053 10.8646 13.4053 10.8646 13.4053C10.8646 13.4053 10.8602 13.4046 10.8495 13.4041C10.8374 13.4037 10.8229 13.4036 10.7974 13.4036C10.7718 13.4036 10.7573 13.4037 10.7452 13.4041C10.7345 13.4046 10.7301 13.4053 10.7301 13.4053C10.7301 13.4053 10.7296 13.4053 10.7268 13.4062C10.7236 13.4074 10.7163 13.4102 10.7031 13.4166L8.01119 14.8238L8.55628 11.8561C8.55226 11.7371 8.52181 11.6935 8.50768 11.6788L6.36319 9.5956L9.29374 9.16822C9.35326 9.15196 9.39219 9.13212 9.41477 9.11569C9.42633 9.10729 9.43211 9.10089 9.43463 9.09764L9.43615 9.09551L9.43673 9.09453L9.44431 9.07209L10.8006 6.35952ZM10.037 9.32154C9.93132 9.60139 9.66514 9.73695 9.43532 9.79441L9.41971 9.79831L7.74427 10.0426L8.96045 11.2241C9.13783 11.4014 9.19838 11.6415 9.19838 11.8829V11.9121L8.87999 13.6456L10.4139 12.8438C10.4827 12.8094 10.5495 12.7848 10.6246 12.7723C10.6876 12.7618 10.7477 12.7619 10.7893 12.762C10.7921 12.762 10.7948 12.762 10.7974 12.762C10.8 12.762 10.8026 12.762 10.8054 12.762C10.847 12.7619 10.9071 12.7618 10.9701 12.7723C11.0452 12.7848 11.112 12.8094 11.1808 12.8438L11.186 12.8464L12.7147 13.6456L12.4048 11.9583C12.3597 11.7973 12.394 11.6421 12.4357 11.5338C12.4812 11.4155 12.5534 11.305 12.6343 11.2241L12.6376 11.2208L13.8504 10.0426L12.2089 9.80324C12.048 9.79484 11.9185 9.71675 11.8385 9.65863C11.7519 9.59562 11.6769 9.52055 11.631 9.47463L11.5885 9.43218L10.7941 7.80726L10.037 9.32154Z" fill="#E6E1F2"/>
</g>
<defs>
<clipPath id="clip0_1082_11381">
<rect width="22" height="22" fill="white"/>
</clipPath>
</defs>
</svg>
