<svg width="64" height="22" viewBox="0 0 64 22" fill="none" xmlns="http://www.w3.org/2000/svg">
<g clip-path="url(#clip0_106_856)">
<path d="M27.7997 20.9004H22.6963L25.8883 1.16309H30.9915L27.7997 20.9004Z" fill="#00579F"/>
<path d="M46.3001 1.64596C45.2935 1.2466 43.6969 0.805664 41.7228 0.805664C36.6829 0.805664 33.1339 3.49316 33.1122 7.33546C33.0703 10.1703 35.6532 11.7448 37.5849 12.6901C39.5594 13.6559 40.2305 14.2864 40.2305 15.1473C40.2104 16.4696 38.6351 17.0791 37.1657 17.0791C35.1282 17.0791 34.0365 16.7648 32.3774 16.0292L31.7054 15.7138L30.9912 20.1444C32.1882 20.6897 34.3934 21.1737 36.6829 21.1949C42.0378 21.1949 45.524 18.549 45.5653 14.4544C45.5857 12.2075 44.2219 10.4859 41.2815 9.07912C39.4966 8.17603 38.4034 7.56709 38.4034 6.64307C38.4244 5.80306 39.328 4.94267 41.3429 4.94267C43.002 4.90053 44.221 5.29933 45.1445 5.6984L45.6061 5.90799L46.3001 1.64596Z" fill="#00579F"/>
<path d="M53.0834 13.9082C53.5037 12.7743 55.1209 8.38582 55.1209 8.38582C55.0997 8.42796 55.5403 7.23101 55.7923 6.49621L56.149 8.19689C56.149 8.19689 57.1154 12.9213 57.3253 13.9082C56.5277 13.9082 54.0914 13.9082 53.0834 13.9082ZM59.3829 1.16309H55.4354C54.2181 1.16309 53.2932 1.51974 52.768 2.8007L45.1875 20.9001H50.5424C50.5424 20.9001 51.424 18.4641 51.6135 17.9394C52.2009 17.9394 57.4101 17.9394 58.1659 17.9394C58.3124 18.6323 58.7748 20.9001 58.7748 20.9001H63.5001L59.3829 1.16309Z" fill="#00579F"/>
<path d="M18.4339 1.16309L13.436 14.622L12.8898 11.8924C11.9658 8.74276 9.0679 5.32074 5.83398 3.61922L10.4119 20.8794H15.8087L23.8304 1.16309H18.4339Z" fill="#00579F"/>
<path d="M8.79494 1.16309H0.584001L0.5 1.56188C6.90505 3.19977 11.147 7.14784 12.8898 11.8932L11.1048 2.82219C10.811 1.5616 9.90789 1.20467 8.79494 1.16309Z" fill="#FAA61A"/>
</g>
<defs>
<clipPath id="clip0_106_856">
<rect width="63" height="20.3892" fill="white" transform="translate(0.5 0.805664)"/>
</clipPath>
</defs>
</svg>
