<svg width="16" height="16" viewBox="0 0 16 16" fill="none" xmlns="http://www.w3.org/2000/svg">
<g clip-path="url(#clip0_874_41422)">
<path d="M13.3202 15.287C13.2668 15.287 13.2068 15.287 13.1535 15.2803C11.0002 15.047 8.90683 14.3003 7.10016 13.127C5.42016 12.0603 3.96683 10.607 2.90016 8.92699C1.72683 7.11366 0.980162 5.01366 0.753495 2.86033C0.653495 1.74699 1.46016 0.773659 2.56016 0.673659C2.62016 0.666992 2.68016 0.666992 2.74016 0.666992H4.74016C4.74683 0.666992 4.7535 0.666992 4.76016 0.666992C5.74683 0.666992 6.5935 1.40033 6.7335 2.38699C6.8135 2.98033 6.96016 3.56033 7.16683 4.12033C7.44016 4.84699 7.26683 5.67366 6.71349 6.22699L6.2335 6.70699C7.02016 7.93366 8.06016 8.98032 9.2935 9.76699L9.77349 9.28699C10.3268 8.73366 11.1602 8.56033 11.8868 8.83366C12.4402 9.04033 13.0268 9.18699 13.6135 9.26699C14.6202 9.40699 15.3602 10.2803 15.3402 11.287V13.2803C15.3402 13.8137 15.1335 14.3137 14.7602 14.6937C14.3868 15.0737 13.8802 15.2803 13.3468 15.287C13.3335 15.287 13.3268 15.287 13.3202 15.287ZM4.7535 2.00033H2.74016C2.3135 2.03366 2.04683 2.36033 2.08016 2.72699C2.28683 4.66699 2.96016 6.56033 4.02016 8.20699C4.98683 9.72699 6.30016 11.0403 7.82016 12.007C9.46016 13.0737 11.3535 13.7403 13.2868 13.9537C13.5202 13.9603 13.6802 13.887 13.8068 13.7603C13.9335 13.627 14.0002 13.4603 14.0002 13.2803V11.2803C14.0002 11.2737 14.0002 11.267 14.0002 11.2603C14.0068 10.9203 13.7602 10.6337 13.4268 10.587C12.7468 10.5003 12.0668 10.327 11.4135 10.087C11.1668 9.99366 10.8935 10.0537 10.7068 10.2337L9.86016 11.0803C9.64683 11.2937 9.32016 11.3337 9.06016 11.187C7.28683 10.1803 5.82016 8.70699 4.80683 6.93366C4.66683 6.67366 4.70683 6.34699 4.92016 6.13366L5.76683 5.28699C5.94683 5.10699 6.00683 4.82699 5.9135 4.58699C5.66683 3.93366 5.50016 3.25366 5.40683 2.56699C5.36683 2.24699 5.08683 2.00033 4.7535 2.00033Z" fill="#6F7A8F"/>
</g>
<defs>
<clipPath id="clip0_874_41422">
<rect width="16" height="16" fill="white"/>
</clipPath>
</defs>
</svg>
