<svg version="1.2" xmlns="http://www.w3.org/2000/svg" viewBox="0 0 46 46" width="46" height="46"><style>.a{fill:#1b8354}</style><path class="a" d="m14.3 37.1h-3.7c-5.6-0.4-8.1-4.8-8.1-8.6 0-3.9 2.5-8.2 8-8.6 0.8-0.1 1.5 0.5 1.6 1.3 0 0.8-0.6 1.5-1.4 1.6-3.7 0.2-5.4 3-5.4 5.7 0 2.7 1.7 5.5 5.4 5.7h3.6c0.8 0 1.4 0.7 1.4 1.5 0 0.8-0.6 1.4-1.4 1.4z"/><path class="a" d="m32 37.1q-0.1 0-0.1 0c-0.8 0-1.6-0.7-1.6-1.5 0-0.8 0.7-1.4 1.5-1.4 2.3 0 4.4-0.8 6.1-2.3 3-2.6 3.2-6.4 2.3-9-0.8-2.6-3-5.7-6.9-6.1-0.6-0.1-1.1-0.6-1.3-1.2-0.7-4.6-3.2-7.8-6.9-8.9-3.9-1.3-8.4-0.1-11.3 2.9-2.7 2.8-3.3 6.8-1.7 11.3 0.2 0.7-0.2 1.5-0.9 1.8-0.8 0.3-1.6-0.1-1.8-0.9-2-5.4-1.1-10.5 2.4-14.2 3.5-3.7 9.2-5.2 14.1-3.7 4.5 1.4 7.6 5.1 8.8 10.2 3.9 0.9 7 3.9 8.3 8 1.4 4.4 0.1 9-3.2 12-2.2 1.9-4.9 3-7.8 3z"/><path class="a" d="m23 42.7c-3.9 0-7.5-2-9.4-5.4q-0.4-0.5-0.6-1.1c-0.7-1.4-1-2.9-1-4.5 0-6.1 4.9-11 11-11 6.1 0 11 4.9 11 11q0 2.4-1 4.6-0.3 0.5-0.6 1.1c-1.9 3.3-5.5 5.3-9.4 5.3zm0-19.2c-4.5 0-8.1 3.7-8.1 8.2q0 1.8 0.7 3.3 0.2 0.5 0.4 0.8c1.5 2.5 4.1 4 7 4 2.8 0 5.5-1.5 6.9-3.9q0.3-0.4 0.5-0.8 0.7-1.6 0.7-3.4c0-4.5-3.6-8.2-8.1-8.2z"/><path class="a" d="m21.9 35c-0.4 0-0.7-0.1-1-0.4l-1.9-1.9c-0.6-0.6-0.6-1.5 0-2 0.5-0.6 1.5-0.6 2 0l0.9 0.9 3.1-2.9c0.6-0.5 1.5-0.4 2 0.1 0.6 0.6 0.5 1.5 0 2.1l-4.1 3.7q-0.5 0.4-1 0.4z"/></svg>