<svg width="23" height="15" viewBox="0 0 23 15" fill="none" xmlns="http://www.w3.org/2000/svg">
<rect width="23" height="15" fill="#1E1E1E" style="fill:#1E1E1E;fill:color(display-p3 0.1176 0.1176 0.1176);fill-opacity:1;"/>
<g clip-path="url(#clip0_129_20566)">
<rect width="1440" height="1550.53" transform="translate(-396 -411)" fill="#F1F3F8" style="fill:#F1F3F8;fill:color(display-p3 0.9451 0.9529 0.9725);fill-opacity:1;"/>
<rect x="-315.5" y="-62.5" width="1279" height="221" rx="27.5" fill="white" style="fill:white;fill-opacity:1;"/>
<rect x="-315.5" y="-62.5" width="1279" height="221" rx="27.5" stroke="#E6E1F2" style="stroke:#E6E1F2;stroke:color(display-p3 0.9020 0.8824 0.9490);stroke-opacity:1;"/>
<mask id="path-2-inside-1_129_20566" fill="white">
<path d="M1.4988 0.5C0.676293 0.5 0 1.17812 0 2.00067V11C0 11.2763 0.223746 11.5 0.5 11.5H9.5C9.77625 11.5 10 11.2763 10 11V2.00067C10 1.17816 9.32188 0.5 8.49933 0.5H1.4988ZM1.4988 1.50063H8.50013C8.78201 1.50063 9.00013 1.71875 9.00013 2.00063V2.5H0.9988V2.00063C0.9988 1.71875 1.21692 1.50063 1.4988 1.50063ZM0.9988 3.49996H9.00013V6.49996H0.9988V3.49996ZM0.9988 7.49996H9.00013V10.4993H0.9988V7.49996ZM2.5 8.24996C2.08563 8.24996 1.75 8.58559 1.75 8.99996C1.75 9.19871 1.82875 9.38996 1.96937 9.53059C2.11063 9.67121 2.30125 9.74996 2.5 9.74996C2.69875 9.74996 2.88937 9.67121 3.03063 9.53059C3.17125 9.38996 3.25 9.19871 3.25 8.99996C3.25 8.58559 2.91437 8.24996 2.5 8.24996ZM7.5 8.24996C7.08563 8.24996 6.75 8.58559 6.75 8.99996C6.75 9.19871 6.82875 9.38996 6.96937 9.53059C7.11063 9.67121 7.30125 9.74996 7.5 9.74996C7.69875 9.74996 7.88937 9.67121 8.03063 9.53059C8.17125 9.38996 8.25 9.19871 8.25 8.99996C8.25 8.58559 7.91437 8.24996 7.5 8.24996ZM1.49867 12.0001C1.46554 12.0001 1.43304 12.0032 1.40054 12.0101C1.27117 12.0357 1.15679 12.112 1.08366 12.222L0.0836613 13.7232C-0.0688454 13.9525 -0.00696411 14.2625 0.221781 14.4157C0.331781 14.4894 0.466781 14.5163 0.597408 14.4907C0.727408 14.4644 0.841781 14.3882 0.915528 14.2776L1.26678 13.7501H8.73305L9.0843 14.2776C9.15805 14.3882 9.27242 14.4644 9.40242 14.4907C9.53305 14.5163 9.66805 14.4894 9.77805 14.4157C10.0068 14.2626 10.0687 13.9526 9.91617 13.7232L9.41117 12.9657L8.91617 12.2219C8.84304 12.1119 8.72867 12.0357 8.59929 12.0101C8.46866 11.9832 8.33303 12.0101 8.22241 12.0838C8.00429 12.2313 7.93741 12.5225 8.0699 12.7501H1.9331C2.06498 12.5219 1.99623 12.2301 1.77747 12.0838C1.69497 12.0288 1.59747 12.0001 1.49873 12.0001L1.49867 12.0001Z"/>
</mask>
<path d="M1.4988 0.5C0.676293 0.5 0 1.17812 0 2.00067V11C0 11.2763 0.223746 11.5 0.5 11.5H9.5C9.77625 11.5 10 11.2763 10 11V2.00067C10 1.17816 9.32188 0.5 8.49933 0.5H1.4988ZM1.4988 1.50063H8.50013C8.78201 1.50063 9.00013 1.71875 9.00013 2.00063V2.5H0.9988V2.00063C0.9988 1.71875 1.21692 1.50063 1.4988 1.50063ZM0.9988 3.49996H9.00013V6.49996H0.9988V3.49996ZM0.9988 7.49996H9.00013V10.4993H0.9988V7.49996ZM2.5 8.24996C2.08563 8.24996 1.75 8.58559 1.75 8.99996C1.75 9.19871 1.82875 9.38996 1.96937 9.53059C2.11063 9.67121 2.30125 9.74996 2.5 9.74996C2.69875 9.74996 2.88937 9.67121 3.03063 9.53059C3.17125 9.38996 3.25 9.19871 3.25 8.99996C3.25 8.58559 2.91437 8.24996 2.5 8.24996ZM7.5 8.24996C7.08563 8.24996 6.75 8.58559 6.75 8.99996C6.75 9.19871 6.82875 9.38996 6.96937 9.53059C7.11063 9.67121 7.30125 9.74996 7.5 9.74996C7.69875 9.74996 7.88937 9.67121 8.03063 9.53059C8.17125 9.38996 8.25 9.19871 8.25 8.99996C8.25 8.58559 7.91437 8.24996 7.5 8.24996ZM1.49867 12.0001C1.46554 12.0001 1.43304 12.0032 1.40054 12.0101C1.27117 12.0357 1.15679 12.112 1.08366 12.222L0.0836613 13.7232C-0.0688454 13.9525 -0.00696411 14.2625 0.221781 14.4157C0.331781 14.4894 0.466781 14.5163 0.597408 14.4907C0.727408 14.4644 0.841781 14.3882 0.915528 14.2776L1.26678 13.7501H8.73305L9.0843 14.2776C9.15805 14.3882 9.27242 14.4644 9.40242 14.4907C9.53305 14.5163 9.66805 14.4894 9.77805 14.4157C10.0068 14.2626 10.0687 13.9526 9.91617 13.7232L9.41117 12.9657L8.91617 12.2219C8.84304 12.1119 8.72867 12.0357 8.59929 12.0101C8.46866 11.9832 8.33303 12.0101 8.22241 12.0838C8.00429 12.2313 7.93741 12.5225 8.0699 12.7501H1.9331C2.06498 12.5219 1.99623 12.2301 1.77747 12.0838C1.69497 12.0288 1.59747 12.0001 1.49873 12.0001L1.49867 12.0001Z" fill="#494B90" stroke="#494B90" style="fill:#494B90;fill:color(display-p3 0.2863 0.2941 0.5647);fill-opacity:1;stroke:#494B90;stroke:color(display-p3 0.2863 0.2941 0.5647);stroke-opacity:1;" stroke-width="2.66667" mask="url(#path-2-inside-1_129_20566)"/>
<mask id="path-3-inside-2_129_20566" fill="white">
<path d="M11.5534 6.54814C11.6537 6.78128 11.7487 7.00122 11.849 7.23612C12.749 6.84198 13.6438 6.45048 14.5605 6.04931C14.7619 6.49359 14.9643 6.93788 15.1649 7.38392C15.3012 7.68656 15.442 7.98656 15.5625 8.29536C15.5924 8.3719 15.5801 8.49859 15.5344 8.56545C15.1103 9.18657 14.6696 9.79713 14.2455 10.4182C14.1883 10.5018 14.1602 10.6338 14.176 10.7341C14.3036 11.5575 14.4426 12.3801 14.5851 13.201C14.5948 13.2564 14.659 13.3461 14.6995 13.347C15.0742 13.3584 15.4499 13.354 15.8484 13.354C15.7411 12.6696 15.6479 12.008 15.5308 11.3508C15.4842 11.0895 15.4904 10.8836 15.7094 10.6822C15.9628 10.449 16.1687 10.1657 16.393 9.90622C16.4176 9.91677 16.437 9.91941 16.4414 9.92821C16.8954 10.8986 17.6458 11.6543 18.2898 12.4875C18.4701 12.7215 18.669 12.9414 18.8361 13.1842C18.9443 13.3417 19.035 13.3312 19.1757 13.2405C19.4546 13.0611 19.7414 12.8948 20.0449 12.7109C19.7326 12.2737 19.4212 11.8373 19.1097 11.4018C18.8308 11.0121 18.5176 10.6408 18.2828 10.2265C18.0716 9.85431 17.9212 9.44082 17.7892 9.03173C17.4109 7.85811 17.0555 6.67746 16.6745 5.44491C17.0634 5.52761 17.3933 5.59183 17.7188 5.67453C17.7734 5.6886 17.8182 5.77658 17.849 5.83992C18.091 6.33523 18.3276 6.83318 18.5784 7.35489C18.8097 7.27131 19.0323 7.18949 19.2646 7.10591C18.9452 6.3713 18.6373 5.65605 18.3197 4.94432C18.2933 4.88449 18.2089 4.83171 18.1402 4.81147C17.483 4.61792 16.8241 4.42965 16.1625 4.25106C16.1089 4.2361 16.0033 4.27921 15.9734 4.3276C15.5924 4.9364 15.0593 5.17306 14.3511 5.03317C14.249 5.01294 14.1162 5.04813 14.0238 5.1018C13.2012 5.57599 12.3839 6.06075 11.5552 6.54814H11.5534Z"/>
</mask>
<path d="M11.5534 6.54814C11.6537 6.78128 11.7487 7.00122 11.849 7.23612C12.749 6.84198 13.6438 6.45048 14.5605 6.04931C14.7619 6.49359 14.9643 6.93788 15.1649 7.38392C15.3012 7.68656 15.442 7.98656 15.5625 8.29536C15.5924 8.3719 15.5801 8.49859 15.5344 8.56545C15.1103 9.18657 14.6696 9.79713 14.2455 10.4182C14.1883 10.5018 14.1602 10.6338 14.176 10.7341C14.3036 11.5575 14.4426 12.3801 14.5851 13.201C14.5948 13.2564 14.659 13.3461 14.6995 13.347C15.0742 13.3584 15.4499 13.354 15.8484 13.354C15.7411 12.6696 15.6479 12.008 15.5308 11.3508C15.4842 11.0895 15.4904 10.8836 15.7094 10.6822C15.9628 10.449 16.1687 10.1657 16.393 9.90622C16.4176 9.91677 16.437 9.91941 16.4414 9.92821C16.8954 10.8986 17.6458 11.6543 18.2898 12.4875C18.4701 12.7215 18.669 12.9414 18.8361 13.1842C18.9443 13.3417 19.035 13.3312 19.1757 13.2405C19.4546 13.0611 19.7414 12.8948 20.0449 12.7109C19.7326 12.2737 19.4212 11.8373 19.1097 11.4018C18.8308 11.0121 18.5176 10.6408 18.2828 10.2265C18.0716 9.85431 17.9212 9.44082 17.7892 9.03173C17.4109 7.85811 17.0555 6.67746 16.6745 5.44491C17.0634 5.52761 17.3933 5.59183 17.7188 5.67453C17.7734 5.6886 17.8182 5.77658 17.849 5.83992C18.091 6.33523 18.3276 6.83318 18.5784 7.35489C18.8097 7.27131 19.0323 7.18949 19.2646 7.10591C18.9452 6.3713 18.6373 5.65605 18.3197 4.94432C18.2933 4.88449 18.2089 4.83171 18.1402 4.81147C17.483 4.61792 16.8241 4.42965 16.1625 4.25106C16.1089 4.2361 16.0033 4.27921 15.9734 4.3276C15.5924 4.9364 15.0593 5.17306 14.3511 5.03317C14.249 5.01294 14.1162 5.04813 14.0238 5.1018C13.2012 5.57599 12.3839 6.06075 11.5552 6.54814H11.5534Z" fill="#494B90" stroke="#494B90" style="fill:#494B90;fill:color(display-p3 0.2863 0.2941 0.5647);fill-opacity:1;stroke:#494B90;stroke:color(display-p3 0.2863 0.2941 0.5647);stroke-opacity:1;" stroke-width="2" mask="url(#path-3-inside-2_129_20566)"/>
<mask id="path-4-inside-3_129_20566" fill="white">
<path d="M11 13.7275V14.5H23V13.7275H11Z"/>
</mask>
<path d="M11 13.7275V14.5H23V13.7275H11Z" fill="#494B90" stroke="#494B90" style="fill:#494B90;fill:color(display-p3 0.2863 0.2941 0.5647);fill-opacity:1;stroke:#494B90;stroke:color(display-p3 0.2863 0.2941 0.5647);stroke-opacity:1;" stroke-width="2" mask="url(#path-4-inside-3_129_20566)"/>
<mask id="path-5-inside-4_129_20566" fill="white">
<path d="M20.6814 8.77627C20.1914 9.02788 19.7295 9.26454 19.2562 9.50648C19.5016 9.99123 19.7392 10.4619 19.9776 10.9326C20.2134 11.398 20.45 11.8625 20.6577 12.2716C20.9049 12.2566 21.1433 12.1818 21.3324 12.2487C21.5234 12.3164 21.665 12.5249 21.8286 12.671C21.8163 12.6921 21.804 12.7141 21.7917 12.7352C21.9087 12.678 22.0266 12.6226 22.1427 12.5637C22.2606 12.5038 22.3767 12.4423 22.5078 12.3736C21.8999 11.1763 21.2964 9.98595 20.6823 8.77539L20.6814 8.77627Z"/>
</mask>
<path d="M20.6814 8.77627C20.1914 9.02788 19.7295 9.26454 19.2562 9.50648C19.5016 9.99123 19.7392 10.4619 19.9776 10.9326C20.2134 11.398 20.45 11.8625 20.6577 12.2716C20.9049 12.2566 21.1433 12.1818 21.3324 12.2487C21.5234 12.3164 21.665 12.5249 21.8286 12.671C21.8163 12.6921 21.804 12.7141 21.7917 12.7352C21.9087 12.678 22.0266 12.6226 22.1427 12.5637C22.2606 12.5038 22.3767 12.4423 22.5078 12.3736C21.8999 11.1763 21.2964 9.98595 20.6823 8.77539L20.6814 8.77627Z" fill="#494B90" stroke="#494B90" style="fill:#494B90;fill:color(display-p3 0.2863 0.2941 0.5647);fill-opacity:1;stroke:#494B90;stroke:color(display-p3 0.2863 0.2941 0.5647);stroke-opacity:1;" stroke-width="2" mask="url(#path-5-inside-4_129_20566)"/>
<mask id="path-6-inside-5_129_20566" fill="white">
<path d="M13.3693 3.50523C13.3684 4.14307 13.8875 4.66301 14.5227 4.66125C15.1544 4.65949 15.6866 4.13251 15.6875 3.50875C15.6875 2.8586 15.1755 2.35098 14.5157 2.3501C13.8708 2.3501 13.3702 2.85245 13.3693 3.50435V3.50523Z"/>
</mask>
<path d="M13.3693 3.50523C13.3684 4.14307 13.8875 4.66301 14.5227 4.66125C15.1544 4.65949 15.6866 4.13251 15.6875 3.50875C15.6875 2.8586 15.1755 2.35098 14.5157 2.3501C13.8708 2.3501 13.3702 2.85245 13.3693 3.50435V3.50523Z" fill="#494B90" stroke="#494B90" style="fill:#494B90;fill:color(display-p3 0.2863 0.2941 0.5647);fill-opacity:1;stroke:#494B90;stroke:color(display-p3 0.2863 0.2941 0.5647);stroke-opacity:1;" stroke-width="2" mask="url(#path-6-inside-5_129_20566)"/>
<mask id="path-7-inside-6_129_20566" fill="white">
<path d="M20.6487 12.8539C20.6557 13.1257 20.9047 13.3641 21.1669 13.3501C21.4413 13.3351 21.6718 13.0888 21.6586 12.8257C21.6454 12.5679 21.4079 12.3436 21.1493 12.3445C20.8765 12.3454 20.6425 12.5847 20.6487 12.8539Z"/>
</mask>
<path d="M20.6487 12.8539C20.6557 13.1257 20.9047 13.3641 21.1669 13.3501C21.4413 13.3351 21.6718 13.0888 21.6586 12.8257C21.6454 12.5679 21.4079 12.3436 21.1493 12.3445C20.8765 12.3454 20.6425 12.5847 20.6487 12.8539Z" fill="#494B90" stroke="#494B90" style="fill:#494B90;fill:color(display-p3 0.2863 0.2941 0.5647);fill-opacity:1;stroke:#494B90;stroke:color(display-p3 0.2863 0.2941 0.5647);stroke-opacity:1;" stroke-width="2" mask="url(#path-7-inside-6_129_20566)"/>
<mask id="path-8-inside-7_129_20566" fill="white">
<path d="M19.1134 7.52832C19.0413 7.56439 18.9832 7.59342 18.904 7.63301C19.1592 8.08169 19.4081 8.51894 19.6659 8.97202C19.7249 8.94651 19.7812 8.92187 19.8779 8.87964C19.6202 8.42304 19.3703 7.9814 19.1143 7.52832H19.1134Z"/>
</mask>
<path d="M19.1134 7.52832C19.0413 7.56439 18.9832 7.59342 18.904 7.63301C19.1592 8.08169 19.4081 8.51894 19.6659 8.97202C19.7249 8.94651 19.7812 8.92187 19.8779 8.87964C19.6202 8.42304 19.3703 7.9814 19.1143 7.52832H19.1134Z" fill="#494B90" stroke="#494B90" style="fill:#494B90;fill:color(display-p3 0.2863 0.2941 0.5647);fill-opacity:1;stroke:#494B90;stroke:color(display-p3 0.2863 0.2941 0.5647);stroke-opacity:1;" stroke-width="2" mask="url(#path-8-inside-7_129_20566)"/>
</g>
<defs>
<clipPath id="clip0_129_20566">
<rect width="1440" height="1550.53" fill="white" style="fill:white;fill-opacity:1;" transform="translate(-396 -411)"/>
</clipPath>
</defs>
</svg>
