<svg version="1.2" xmlns="http://www.w3.org/2000/svg" viewBox="0 0 24 24" width="24" height="24"><defs><clipPath clipPathUnits="userSpaceOnUse" id="cp1"><path d="m0 0h24v24h-24z"/></clipPath></defs><style>.a{fill:#1b8354;stroke:#000;paint-order:stroke fill markers;stroke-linecap:round;stroke-linejoin:round;stroke-width:2}.b{fill:#b49164;stroke:#140442;stroke-linecap:round;stroke-linejoin:round}</style><g clip-path="url(#cp1)"><path class="a" d="m18.2 16q0.1 0.2 0.1 0.5 0 0.3-0.1 0.5-0.1 0.3-0.3 0.4-0.3 0.1-0.5 0.2h-10.4q-0.3-0.1-0.5-0.2-0.2-0.1-0.4-0.4-0.1-0.2-0.1-0.5 0-0.3 0.1-0.5l5.2-9.4q0.1-0.3 0.4-0.4 0.2-0.2 0.5-0.2 0.3 0 0.6 0.2 0.2 0.1 0.3 0.4z"/><path class="b" d="m12.2 12.3v-1.8"/><path class="b" d="m12.2 15.1c-0.1 0-0.2-0.1-0.2-0.2 0-0.1 0.1-0.2 0.2-0.2"/><path class="b" d="m12.2 15.1c0.1 0 0.2-0.1 0.2-0.2 0-0.1-0.1-0.2-0.2-0.2"/></g></svg>