<svg width="24" height="24" viewBox="0 0 24 24" fill="none" xmlns="http://www.w3.org/2000/svg">
<g id="Iocn" clip-path="url(#clip0_214_56978)">
<g id="threat-browser-1--bug-browser-file-threat-danger-internet">
<path id="Vector_3" d="M18.2181 15.9797C18.3047 16.1395 18.3499 16.3184 18.3499 16.5002C18.3499 16.6821 18.3047 16.8608 18.2181 17.0207C18.1369 17.1802 18.0131 17.3139 17.8604 17.4073C17.708 17.5008 17.5324 17.5502 17.3535 17.55H6.99634C6.81745 17.5502 6.64203 17.5008 6.48944 17.4073C6.33687 17.3139 6.21309 17.1802 6.13177 17.0207C6.04529 16.8608 6 16.6821 6 16.5002C6 16.3184 6.04529 16.1395 6.13177 15.9797L11.3369 6.59292C11.4084 6.41762 11.5305 6.26761 11.6876 6.16201C11.8447 6.05641 12.0297 6 12.219 6C12.4083 6 12.5934 6.05641 12.7506 6.16201C12.9077 6.26761 13.0298 6.41762 13.1012 6.59292L18.2181 15.9797Z" stroke="white" stroke-linecap="round" stroke-linejoin="round"/>
<path id="Vector_4" d="M12.1853 12.2564V10.4919" stroke="white" stroke-linecap="round" stroke-linejoin="round"/>
<path id="Ellipse 81" d="M12.1758 15.1241C12.0539 15.1241 11.9551 15.0253 11.9551 14.9033C11.9551 14.7814 12.0539 14.6826 12.1758 14.6826" stroke="white" stroke-linecap="round" stroke-linejoin="round"/>
<path id="Ellipse 82" d="M12.1758 15.1241C12.2978 15.1241 12.3966 15.0253 12.3966 14.9033C12.3966 14.7814 12.2978 14.6826 12.1758 14.6826" stroke="white" stroke-linecap="round" stroke-linejoin="round"/>
</g>
</g>
<defs>
<clipPath id="clip0_214_56978">
<rect width="24" height="24" fill="white"/>
</clipPath>
</defs>
</svg>
