<svg version="1.2" xmlns="http://www.w3.org/2000/svg" viewBox="0 0 20 21" width="20" height="21"><style>.a{fill:#1b8354}</style><path class="a" d="m3.1 1.3q-0.2 0-0.4 0.2-0.2 0.2-0.2 0.5v17c0 0.4 0.3 0.7 0.6 0.7 0.4 0 0.7-0.3 0.7-0.7v-17q0-0.3-0.2-0.5-0.2-0.2-0.5-0.2z"/><path class="a" d="m13.4 6.2l3.6-3.8c0.2-0.2 0.2-0.4 0.1-0.7-0.1-0.2-0.3-0.4-0.6-0.4h-13.4q-0.2 0-0.4 0.2-0.2 0.2-0.2 0.5v8.5q0 0.3 0.2 0.5 0.2 0.1 0.4 0.1h13.4q0.5 0 0.6-0.3c0.1-0.3 0.1-0.6-0.1-0.7zm-9.6 3.6v-7.3h11.2l-3 3.2c-0.2 0.3-0.2 0.7 0 0.9l3 3.2z"/></svg>