<svg version="1.2" xmlns="http://www.w3.org/2000/svg" viewBox="0 0 40 41" width="40" height="41"><style>.a{opacity:.29;fill:#1b8354}.b{fill:#1b8354}</style><path fill-rule="evenodd" class="a" d="m20 0.5c11 0 20 9 20 20 0 11-9 20-20 20-11 0-20-9-20-20 0-11 9-20 20-20z"/><path class="b" d="m20.2 12.6c2.2 0 4.2 0.9 5.7 2.4 1.5 1.5 2.4 3.6 2.4 5.7 0 2.1-0.8 4.2-2.3 5.7-1.5 1.5-3.5 2.3-5.5 2.4h-0.3c-2.1 0-4.1-0.8-5.6-2.3-1.5-1.5-2.4-3.4-2.5-5.5v-0.3c0-2.1 0.9-4.2 2.4-5.7 1.5-1.5 3.6-2.4 5.7-2.4zm2 8.9h-4c0.1 3 1.2 5.6 1.9 5.7h0.1c0.7 0 1.8-2.4 2-5.4zm4.5 0h-2.9c-0.1 2-0.6 3.9-1.2 5.3 1-0.4 1.9-1.1 2.7-2 0.7-0.9 1.1-1.9 1.3-3.1zm-10.1 0h-2.8c0.1 1.2 0.6 2.3 1.3 3.3 0.7 0.9 1.7 1.6 2.8 2-0.7-1.5-1.1-3.2-1.2-4.9v-0.4zm1.2-6.8h-0.1q-1.6 0.7-2.7 2.1c-0.7 0.9-1.2 2-1.3 3.2h2.9c0.1-1.9 0.5-3.7 1.1-5zm2.3-0.5c-0.7 0-1.8 2.6-2 5.8h4c-0.1-3.1-1.2-5.6-1.9-5.8zm2.4 0.5c0.7 1.7 1.1 3.5 1.2 5.3h2.8c-0.1-1.2-0.6-2.3-1.3-3.2q-1-1.5-2.7-2.1z"/></svg>