<svg width="22" height="22" viewBox="0 0 22 22" fill="none" xmlns="http://www.w3.org/2000/svg">
<path fill-rule="evenodd" clip-rule="evenodd" d="M10.4379 1.11009C10.7689 0.852628 11.2324 0.852628 11.5634 1.11009L19.8134 7.52675C20.0367 7.70042 20.1673 7.96745 20.1673 8.25033V18.3337C20.1673 19.063 19.8776 19.7625 19.3619 20.2782C18.8461 20.7939 18.1467 21.0837 17.4173 21.0837H4.58398C3.85464 21.0837 3.15517 20.7939 2.63944 20.2782C2.12372 19.7625 1.83398 19.063 1.83398 18.3337V8.25033C1.83398 7.96745 1.96458 7.70042 2.18787 7.52675L10.4379 1.11009ZM3.66732 8.69865V18.3337C3.66732 18.5768 3.76389 18.8099 3.9358 18.9818C4.10771 19.1538 4.34087 19.2503 4.58398 19.2503H17.4173C17.6604 19.2503 17.8936 19.1538 18.0655 18.9818C18.2374 18.8099 18.334 18.5768 18.334 18.3337V8.69865L11.0007 2.99495L3.66732 8.69865Z" fill="#E6E1F2"/>
<path fill-rule="evenodd" clip-rule="evenodd" d="M7.33398 10.9997C7.33398 10.4934 7.74439 10.083 8.25065 10.083H13.7507C14.2569 10.083 14.6673 10.4934 14.6673 10.9997V20.1663C14.6673 20.6726 14.2569 21.083 13.7507 21.083C13.2444 21.083 12.834 20.6726 12.834 20.1663V11.9163H9.16732V20.1663C9.16732 20.6726 8.75691 21.083 8.25065 21.083C7.74439 21.083 7.33398 20.6726 7.33398 20.1663V10.9997Z" fill="#E6E1F2"/>
</svg>
