<svg width="22" height="22" viewBox="0 0 22 22" fill="none" xmlns="http://www.w3.org/2000/svg">
<path fill-rule="evenodd" clip-rule="evenodd" d="M10.75 0C12.5722 0 14.2637 0.75516 15.1618 2H20.75C21.1642 2 21.5 2.33579 21.5 2.75C21.5 3.16421 21.1642 3.5 20.75 3.5H20.5V18.7947C20.5001 19.2276 20.5001 19.6244 20.4567 19.9472C20.4089 20.3027 20.2965 20.6784 19.9874 20.9874C19.6784 21.2965 19.3027 21.4089 18.9472 21.4567C18.6244 21.5001 18.2276 21.5001 17.7948 21.5001H3.70526C3.27245 21.5001 2.87561 21.5001 2.5528 21.4567C2.19732 21.4089 1.82159 21.2965 1.51257 20.9874C1.20355 20.6784 1.0911 20.3027 1.04331 19.9472C1.00859 19.689 1.00167 19.3834 1.00032 19.0498L1.00001 3.5H0.75C0.33579 3.5 0 3.16421 0 2.75C0 2.33579 0.33579 2 0.75 2H6.33818C7.23632 0.75516 8.9278 0 10.75 0ZM10.75 1.5C9.1351 1.5 7.88289 2.2396 7.40837 3.10924C7.27693 3.35013 7.02442 3.5 6.75 3.5H2.50001L2.5007 19.084C2.50248 19.3844 2.50868 19.5893 2.52993 19.7473C2.54291 19.8439 2.55821 19.8923 2.56717 19.914C2.56924 19.9191 2.57086 19.9224 2.57187 19.9243C2.57761 19.9291 2.58093 19.9308 2.58597 19.9328C2.60775 19.9418 2.65611 19.9571 2.75267 19.9701C2.96339 19.9984 3.2574 20 3.75001 20H8.00001V16.75C8.00001 15.2312 9.2312 14 10.75 14C12.2688 14 13.5 15.2312 13.5 16.75V20H17.75C18.2426 20 18.5366 19.9984 18.7473 19.9701C18.8439 19.9571 18.8923 19.9418 18.914 19.9328L18.9201 19.9302L18.9243 19.9281C18.9292 19.9224 18.9308 19.9191 18.9328 19.914C18.9418 19.8923 18.9571 19.8439 18.9701 19.7473C18.9984 19.5366 19 19.2426 19 18.75V3.5H14.75C14.4756 3.5 14.2231 3.35013 14.0916 3.10924C13.6171 2.2396 12.3649 1.5 10.75 1.5ZM10.75 15.5C10.0596 15.5 9.5 16.0596 9.5 16.75V20H12V16.75C12 16.0596 11.4404 15.5 10.75 15.5ZM5.75 14C6.16421 14 6.5 14.3358 6.5 14.75C6.5 15.1642 6.16421 15.5 5.75 15.5H4.75C4.33579 15.5 4 15.1642 4 14.75C4 14.3358 4.33579 14 4.75 14H5.75ZM16.75 14C17.1642 14 17.5 14.3358 17.5 14.75C17.5 15.1642 17.1642 15.5 16.75 15.5H15.75C15.3358 15.5 15 15.1642 15 14.75C15 14.3358 15.3358 14 15.75 14H16.75ZM5.75 10C6.16421 10 6.5 10.3358 6.5 10.75C6.5 11.1642 6.16421 11.5 5.75 11.5H4.75C4.33579 11.5 4 11.1642 4 10.75C4 10.3358 4.33579 10 4.75 10H5.75ZM16.75 10C17.1642 10 17.5 10.3358 17.5 10.75C17.5 11.1642 17.1642 11.5 16.75 11.5H15.75C15.3358 11.5 15 11.1642 15 10.75C15 10.3358 15.3358 10 15.75 10H16.75ZM12.25 6C12.6642 6 13 6.33579 13 6.75V9.75C13 10.1642 12.6642 10.5 12.25 10.5C11.8358 10.5 11.5 10.1642 11.5 9.75V9H10V9.75C10 10.1642 9.6642 10.5 9.25 10.5C8.8358 10.5 8.5 10.1642 8.5 9.75V6.75C8.5 6.33579 8.8358 6 9.25 6C9.6642 6 10 6.33579 10 6.75V7.5H11.5V6.75C11.5 6.33579 11.8358 6 12.25 6ZM5.75 6C6.16421 6 6.5 6.33579 6.5 6.75C6.5 7.16421 6.16421 7.5 5.75 7.5H4.75C4.33579 7.5 4 7.16421 4 6.75C4 6.33579 4.33579 6 4.75 6H5.75ZM16.75 6C17.1642 6 17.5 6.33579 17.5 6.75C17.5 7.16421 17.1642 7.5 16.75 7.5H15.75C15.3358 7.5 15 7.16421 15 6.75C15 6.33579 15.3358 6 15.75 6H16.75Z" fill="#1B8354"/>
</svg>
