<svg width="22" height="22" viewBox="0 0 22 22" fill="none" xmlns="http://www.w3.org/2000/svg">
<path fill-rule="evenodd" clip-rule="evenodd" d="M3.55546 1.72245C4.07118 1.20672 4.77065 0.916992 5.5 0.916992H16.5C17.2293 0.916992 17.9288 1.20672 18.4445 1.72245C18.9603 2.23817 19.25 2.93765 19.25 3.66699V18.3337C19.25 19.063 18.9603 19.7625 18.4445 20.2782C17.9288 20.7939 17.2293 21.0837 16.5 21.0837H5.5C4.77065 21.0837 4.07118 20.7939 3.55546 20.2782C3.03973 19.7625 2.75 19.063 2.75 18.3337V3.66699C2.75 2.93765 3.03973 2.23817 3.55546 1.72245ZM5.5 2.75033C5.25688 2.75033 5.02373 2.8469 4.85182 3.01881C4.67991 3.19072 4.58333 3.42388 4.58333 3.66699V18.3337C4.58333 18.5768 4.67991 18.8099 4.85182 18.9818C5.02373 19.1538 5.25689 19.2503 5.5 19.2503H16.5C16.7431 19.2503 16.9763 19.1538 17.1482 18.9818C17.3201 18.8099 17.4167 18.5768 17.4167 18.3337V3.66699C17.4167 3.42388 17.3201 3.19072 17.1482 3.01881C16.9763 2.8469 16.7431 2.75033 16.5 2.75033H5.5Z" fill="#E6E1F2"/>
<path fill-rule="evenodd" clip-rule="evenodd" d="M11.0011 14.6673C10.2685 14.6673 9.58013 14.8629 9.09108 15.2011L8.77116 15.4217C8.3544 15.7091 7.78354 15.6043 7.49612 15.1875C7.2087 14.7707 7.31355 14.1999 7.73031 13.9125L8.04839 13.6931C8.04822 13.6932 8.04855 13.693 8.04839 13.6931C8.90218 13.1029 9.97408 12.834 11.0011 12.834C12.028 12.834 13.0992 13.1025 13.9526 13.6928C13.9524 13.6926 13.9529 13.693 13.9526 13.6928L14.2712 13.9125C14.6879 14.1999 14.7928 14.7707 14.5053 15.1875C14.2179 15.6043 13.6471 15.7091 13.2303 15.4217L12.9101 15.2009C12.4217 14.8629 11.7337 14.6673 11.0011 14.6673Z" fill="#E6E1F2"/>
<path fill-rule="evenodd" clip-rule="evenodd" d="M6.41602 6.41667C6.41602 5.91041 6.82642 5.5 7.33268 5.5H7.34185C7.84811 5.5 8.25852 5.91041 8.25852 6.41667C8.25852 6.92293 7.84811 7.33333 7.34185 7.33333H7.33268C6.82642 7.33333 6.41602 6.92293 6.41602 6.41667Z" fill="#E6E1F2"/>
<path fill-rule="evenodd" clip-rule="evenodd" d="M13.75 6.41667C13.75 5.91041 14.1604 5.5 14.6667 5.5H14.6758C15.1821 5.5 15.5925 5.91041 15.5925 6.41667C15.5925 6.92293 15.1821 7.33333 14.6758 7.33333H14.6667C14.1604 7.33333 13.75 6.92293 13.75 6.41667Z" fill="#E6E1F2"/>
<path fill-rule="evenodd" clip-rule="evenodd" d="M10.084 6.41667C10.084 5.91041 10.4944 5.5 11.0007 5.5H11.0098C11.5161 5.5 11.9265 5.91041 11.9265 6.41667C11.9265 6.92293 11.5161 7.33333 11.0098 7.33333H11.0007C10.4944 7.33333 10.084 6.92293 10.084 6.41667Z" fill="#E6E1F2"/>
<path fill-rule="evenodd" clip-rule="evenodd" d="M10.084 10.0837C10.084 9.5774 10.4944 9.16699 11.0007 9.16699H11.0098C11.5161 9.16699 11.9265 9.5774 11.9265 10.0837C11.9265 10.5899 11.5161 11.0003 11.0098 11.0003H11.0007C10.4944 11.0003 10.084 10.5899 10.084 10.0837Z" fill="#E6E1F2"/>
<path fill-rule="evenodd" clip-rule="evenodd" d="M13.75 10.0837C13.75 9.5774 14.1604 9.16699 14.6667 9.16699H14.6758C15.1821 9.16699 15.5925 9.5774 15.5925 10.0837C15.5925 10.5899 15.1821 11.0003 14.6758 11.0003H14.6667C14.1604 11.0003 13.75 10.5899 13.75 10.0837Z" fill="#E6E1F2"/>
<path fill-rule="evenodd" clip-rule="evenodd" d="M6.41602 10.0837C6.41602 9.5774 6.82642 9.16699 7.33268 9.16699H7.34185C7.84811 9.16699 8.25852 9.5774 8.25852 10.0837C8.25852 10.5899 7.84811 11.0003 7.34185 11.0003H7.33268C6.82642 11.0003 6.41602 10.5899 6.41602 10.0837Z" fill="#E6E1F2"/>
<path fill-rule="evenodd" clip-rule="evenodd" d="M9.16667 13.292C9.67293 13.292 10.0833 13.7024 10.0833 14.2087V20.167C10.0833 20.6733 9.67293 21.0837 9.16667 21.0837C8.66041 21.0837 8.25 20.6733 8.25 20.167V14.2087C8.25 13.7024 8.66041 13.292 9.16667 13.292ZM12.8333 13.292C13.3396 13.292 13.75 13.7024 13.75 14.2087V20.167C13.75 20.6733 13.3396 21.0837 12.8333 21.0837C12.3271 21.0837 11.9167 20.6733 11.9167 20.167V14.2087C11.9167 13.7024 12.3271 13.292 12.8333 13.292Z" fill="#E6E1F2"/>
</svg>
