<svg width="23" height="22" viewBox="0 0 23 22" fill="none" xmlns="http://www.w3.org/2000/svg">
<path fill-rule="evenodd" clip-rule="evenodd" d="M11.8965 2.75008C10.1947 2.75008 8.56257 3.42612 7.35922 4.62948C6.15586 5.83284 5.47982 7.46494 5.47982 9.16675C5.47982 11.5546 7.10275 14.0815 8.91494 16.1202C9.79954 17.1154 10.687 17.9477 11.3543 18.5316C11.5584 18.7102 11.7413 18.865 11.8965 18.9936C12.0517 18.865 12.2346 18.7102 12.4387 18.5316C13.106 17.9477 13.9934 17.1154 14.878 16.1202C16.6902 14.0815 18.3132 11.5546 18.3132 9.16675C18.3132 7.46494 17.6371 5.83284 16.4338 4.62948C15.2304 3.42612 13.5983 2.75008 11.8965 2.75008ZM11.8965 20.1667C11.3465 20.9001 11.3463 20.8999 11.3461 20.8998L11.3455 20.8993L11.3438 20.898L11.3384 20.894L11.3198 20.8799C11.304 20.8678 11.2815 20.8506 11.2526 20.8282C11.1949 20.7834 11.1119 20.7183 11.0072 20.6342C10.7979 20.4661 10.5015 20.2215 10.147 19.9113C9.43932 19.2921 8.49343 18.4056 7.54469 17.3382C5.69022 15.252 3.64648 12.2789 3.64648 9.16675C3.64648 6.97871 4.51568 4.88029 6.06285 3.33312C7.61003 1.78594 9.70845 0.916748 11.8965 0.916748C14.0845 0.916748 16.1829 1.78594 17.7301 3.33312C19.2773 4.88029 20.1465 6.97871 20.1465 9.16675C20.1465 12.2789 18.1027 15.252 16.2483 17.3382C15.2995 18.4056 14.3536 19.2921 13.6459 19.9113C13.2914 20.2215 12.9951 20.4661 12.7858 20.6342C12.6811 20.7183 12.5981 20.7834 12.5404 20.8282C12.5115 20.8506 12.4889 20.8678 12.4732 20.8799L12.4546 20.894L12.4492 20.898L12.4475 20.8993L12.4469 20.8998C12.4467 20.8999 12.4465 20.9001 11.8965 20.1667ZM11.8965 20.1667L12.4465 20.9001C12.1206 21.1445 11.6724 21.1445 11.3465 20.9001L11.8965 20.1667Z" fill="#A2AECC"/>
<path fill-rule="evenodd" clip-rule="evenodd" d="M11.8964 7.33333C10.8839 7.33333 10.0631 8.15414 10.0631 9.16667C10.0631 10.1792 10.8839 11 11.8964 11C12.9089 11 13.7297 10.1792 13.7297 9.16667C13.7297 8.15414 12.9089 7.33333 11.8964 7.33333ZM8.22974 9.16667C8.22974 7.14162 9.87136 5.5 11.8964 5.5C13.9214 5.5 15.5631 7.14162 15.5631 9.16667C15.5631 11.1917 13.9214 12.8333 11.8964 12.8333C9.87136 12.8333 8.22974 11.1917 8.22974 9.16667Z" fill="#A2AECC"/>
</svg>
