<svg width="22" height="22" viewBox="0 0 22 22" fill="none" xmlns="http://www.w3.org/2000/svg">
<path fill-rule="evenodd" clip-rule="evenodd" d="M4.75 3.83301H17.5635V5.49967H4.75V3.83301V3.83301ZM4.75 7.33301H17.5635V8.24967H16.2999C15.7937 8.24967 15.3833 8.66008 15.3833 9.16634C15.3833 9.6726 15.7937 10.083 16.2999 10.083H17.5635V18.1663H15.5833V13.7497C15.5833 12.7372 14.7625 11.9163 13.75 11.9163H8.25C7.23748 11.9163 6.41667 12.7372 6.41667 13.7497V18.1663H4.75L4.75 10.083H6.01295C6.51922 10.083 6.92962 9.6726 6.92962 9.16634C6.92962 8.66008 6.51921 8.24967 6.01295 8.24967H4.75V7.33301ZM8.25 20.1663H6.41667L4.75 20.1663C3.64543 20.1663 2.75 19.2709 2.75 18.1663V9.16634V6.41634V3.83301C2.75 2.72844 3.64543 1.83301 4.75 1.83301H17.5635C18.668 1.83301 19.5635 2.72844 19.5635 3.83301V6.41634V18.1663C19.5635 19.2709 18.668 20.1663 17.5635 20.1663L15.5833 20.1663H13.75H8.25ZM13.75 18.1663L8.25 18.1663V13.7497H13.75V18.1663ZM12.3773 10.083C12.8835 10.083 13.2939 9.6726 13.2939 9.16634C13.2939 8.66008 12.8835 8.24967 12.3773 8.24967H10.031C9.5247 8.24967 9.1143 8.66008 9.1143 9.16634C9.1143 9.6726 9.5247 10.083 10.031 10.083H12.3773Z" fill="#E6E1F2"/>
</svg>
