<svg width="17" height="21" viewBox="0 0 17 21" fill="none" xmlns="http://www.w3.org/2000/svg">
<path fill-rule="evenodd" clip-rule="evenodd" d="M0.805456 0.805456C1.32118 0.289731 2.02065 0 2.75 0H13.75C14.4793 0 15.1788 0.289731 15.6945 0.805456C16.2103 1.32118 16.5 2.02065 16.5 2.75V17.4167C16.5 18.146 16.2103 18.8455 15.6945 19.3612C15.1788 19.8769 14.4793 20.1667 13.75 20.1667H2.75C2.02065 20.1667 1.32118 19.8769 0.805456 19.3612C0.289731 18.8455 0 18.146 0 17.4167V2.75C0 2.02065 0.289731 1.32118 0.805456 0.805456ZM2.75 1.83333C2.50688 1.83333 2.27373 1.92991 2.10182 2.10182C1.92991 2.27373 1.83333 2.50688 1.83333 2.75V17.4167C1.83333 17.6598 1.92991 17.8929 2.10182 18.0648C2.27373 18.2368 2.50689 18.3333 2.75 18.3333H13.75C13.9931 18.3333 14.2263 18.2368 14.3982 18.0648C14.5701 17.8929 14.6667 17.6598 14.6667 17.4167V2.75C14.6667 2.50689 14.5701 2.27373 14.3982 2.10182C14.2263 1.92991 13.9931 1.83333 13.75 1.83333H2.75Z" fill="#E6E1F2"/>
<path d="M5.37897 15.2275H10.621C10.8304 15.2275 11 15.3849 11 15.5791C11 15.7733 10.8304 15.9307 10.621 15.9307H5.37897C5.16959 15.9307 5 15.7733 5 15.5791C5 15.3849 5.1696 15.2275 5.37897 15.2275Z" fill="white" stroke="white" stroke-width="0.9"/>
<mask id="path-3-inside-1_989_11401" fill="white">
<path d="M8.0909 5C9.17776 5.0028 10.2191 5.43687 10.9861 6.20688C11.7532 6.97689 12.1832 8.01987 12.1818 9.10674C12.1782 10.1683 11.762 11.1868 11.0213 11.9472C10.2806 12.7076 9.27337 13.1503 8.21231 13.1818H8.08034C7.01879 13.1796 5.99968 12.7648 5.23829 12.0251C4.4769 11.2853 4.03287 10.2786 4 9.21759V9.08562C4.0014 8.00156 4.43302 6.96238 5.20006 6.19633C5.9671 5.43028 7.00684 5 8.0909 5ZM9.12022 9.48679H7.06158C7.14075 11.0176 7.67917 12.3056 8.05395 12.39H8.0909C8.44984 12.39 8.99881 11.139 9.10966 9.62932L9.12022 9.48679ZM11.3689 9.48679H9.91201C9.8645 10.5214 9.63224 11.4821 9.28914 12.1683C9.82435 11.959 10.2957 11.6138 10.6568 11.1667C11.0178 10.7196 11.256 10.186 11.3478 9.61876L11.3689 9.48679ZM6.26451 9.48679H4.81818C4.88998 10.08 5.12131 10.6427 5.48754 11.1149C5.85378 11.5871 6.34121 11.9512 6.89794 12.1683C6.53527 11.3887 6.32732 10.5462 6.28562 9.68738L6.26979 9.48679H6.26451ZM6.89794 6.01349L6.8346 6.03988C6.29231 6.26322 5.81923 6.62686 5.46394 7.09347C5.10865 7.56008 4.88395 8.11285 4.8129 8.69501H6.26451C6.31202 7.72903 6.51788 6.82639 6.82404 6.15601L6.89794 6.01349ZM8.08562 5.79179C7.71612 5.79179 7.14603 7.11671 7.06158 8.69501H9.12022C9.04104 7.16422 8.49735 5.87624 8.12257 5.79179H8.08562ZM9.28914 6.01877L9.30497 6.04516C9.68268 6.87889 9.88911 7.77999 9.91201 8.69501H11.3636C11.2903 8.10365 11.0589 7.54299 10.6939 7.07203C10.3288 6.60107 9.84353 6.23722 9.28914 6.01877Z"/>
</mask>
<path d="M8.0909 5C9.17776 5.0028 10.2191 5.43687 10.9861 6.20688C11.7532 6.97689 12.1832 8.01987 12.1818 9.10674C12.1782 10.1683 11.762 11.1868 11.0213 11.9472C10.2806 12.7076 9.27337 13.1503 8.21231 13.1818H8.08034C7.01879 13.1796 5.99968 12.7648 5.23829 12.0251C4.4769 11.2853 4.03287 10.2786 4 9.21759V9.08562C4.0014 8.00156 4.43302 6.96238 5.20006 6.19633C5.9671 5.43028 7.00684 5 8.0909 5ZM9.12022 9.48679H7.06158C7.14075 11.0176 7.67917 12.3056 8.05395 12.39H8.0909C8.44984 12.39 8.99881 11.139 9.10966 9.62932L9.12022 9.48679ZM11.3689 9.48679H9.91201C9.8645 10.5214 9.63224 11.4821 9.28914 12.1683C9.82435 11.959 10.2957 11.6138 10.6568 11.1667C11.0178 10.7196 11.256 10.186 11.3478 9.61876L11.3689 9.48679ZM6.26451 9.48679H4.81818C4.88998 10.08 5.12131 10.6427 5.48754 11.1149C5.85378 11.5871 6.34121 11.9512 6.89794 12.1683C6.53527 11.3887 6.32732 10.5462 6.28562 9.68738L6.26979 9.48679H6.26451ZM6.89794 6.01349L6.8346 6.03988C6.29231 6.26322 5.81923 6.62686 5.46394 7.09347C5.10865 7.56008 4.88395 8.11285 4.8129 8.69501H6.26451C6.31202 7.72903 6.51788 6.82639 6.82404 6.15601L6.89794 6.01349ZM8.08562 5.79179C7.71612 5.79179 7.14603 7.11671 7.06158 8.69501H9.12022C9.04104 7.16422 8.49735 5.87624 8.12257 5.79179H8.08562ZM9.28914 6.01877L9.30497 6.04516C9.68268 6.87889 9.88911 7.77999 9.91201 8.69501H11.3636C11.2903 8.10365 11.0589 7.54299 10.6939 7.07203C10.3288 6.60107 9.84353 6.23722 9.28914 6.01877Z" fill="white"/>
<path d="M8.0909 5L8.09347 4H8.0909L8.0909 5ZM12.1818 9.10674L13.1818 9.11017L13.1818 9.10803L12.1818 9.10674ZM8.21231 13.1818V14.1818H8.22714L8.24198 14.1814L8.21231 13.1818ZM8.08034 13.1818L8.07824 14.1818H8.08034V13.1818ZM4 9.21759H3V9.23307L3.00048 9.24855L4 9.21759ZM4 9.08562L3 9.08433V9.08562H4ZM9.12022 9.48679L10.1175 9.56066L10.197 8.48679H9.12022V9.48679ZM7.06158 9.48679V8.48679H6.00852L6.06291 9.53845L7.06158 9.48679ZM8.05395 12.39L7.83411 13.3656L7.94267 13.39H8.05395V12.39ZM9.10966 9.62932L8.1124 9.55545L8.11235 9.55609L9.10966 9.62932ZM11.3689 9.48679L12.3563 9.64478L12.5416 8.48679H11.3689V9.48679ZM9.91201 9.48679V8.48679H8.95687L8.91306 9.44092L9.91201 9.48679ZM9.28914 12.1683L8.39471 11.7211L7.23209 14.0463L9.65329 13.0997L9.28914 12.1683ZM11.3478 9.61876L12.3349 9.77853L12.3352 9.77675L11.3478 9.61876ZM4.81818 9.48679V8.48679H3.68986L3.82542 9.60694L4.81818 9.48679ZM6.89794 12.1683L6.53458 13.1L8.85537 14.0051L7.80463 11.7465L6.89794 12.1683ZM6.28562 9.68738L7.28445 9.63889L7.28371 9.62377L7.28252 9.60868L6.28562 9.68738ZM6.26979 9.48679L7.26669 9.40809L7.19395 8.48679H6.26979V9.48679ZM6.89794 6.01349L7.78569 6.4738L9.05135 4.0329L6.51332 5.09041L6.89794 6.01349ZM6.8346 6.03988L7.21542 6.96454L7.21921 6.96296L6.8346 6.03988ZM4.8129 8.69501L3.82027 8.57387L3.68345 9.69501H4.8129V8.69501ZM6.26451 8.69501V9.69501H7.21654L7.2633 8.74413L6.26451 8.69501ZM6.82404 6.15601L5.93628 5.69569L5.92479 5.71787L5.91441 5.74059L6.82404 6.15601ZM7.06158 8.69501L6.063 8.64157L6.00663 9.69501H7.06158V8.69501ZM9.12022 8.69501V9.69501H10.1733L10.1189 8.64335L9.12022 8.69501ZM8.12257 5.79179L8.34241 4.81625L8.23385 4.79179H8.12257V5.79179ZM9.28914 6.01877L9.65574 5.08839L6.9173 4.00934L8.43164 6.53326L9.28914 6.01877ZM9.30497 6.04516L10.2159 5.6325L10.1921 5.58004L10.1625 5.53067L9.30497 6.04516ZM9.91201 8.69501L8.91232 8.72002L8.93672 9.69501H9.91201V8.69501ZM11.3636 8.69501V9.69501H12.4953L12.356 8.57195L11.3636 8.69501ZM8.08833 6C8.91019 6.00211 9.69761 6.33035 10.2776 6.91262L11.6946 5.50114C10.7405 4.54339 9.44532 4.00348 8.09347 4L8.08833 6ZM10.2776 6.91262C10.8577 7.49489 11.1829 8.28358 11.1818 9.10545L13.1818 9.10803C13.1835 7.75617 12.6486 6.4589 11.6946 5.50114L10.2776 6.91262ZM11.1818 9.10331C11.1791 9.90534 10.8646 10.6749 10.305 11.2494L11.7377 12.645C12.6594 11.6987 13.1773 10.4312 13.1818 9.11017L11.1818 9.10331ZM10.305 11.2494C9.74537 11.824 8.98432 12.1584 8.18263 12.1822L8.24198 14.1814C9.56241 14.1422 10.8159 13.5912 11.7377 12.645L10.305 11.2494ZM8.21231 12.1818H8.08034V14.1818H8.21231V12.1818ZM8.08244 12.1818C7.28038 12.1801 6.51039 11.8667 5.93512 11.3078L4.54146 12.7423C5.48897 13.6628 6.7572 14.179 8.07824 14.1818L8.08244 12.1818ZM5.93512 11.3078C5.35985 10.7489 5.02436 9.9883 4.99952 9.18662L3.00048 9.24855C3.04139 10.569 3.59396 11.8218 4.54146 12.7423L5.93512 11.3078ZM5 9.21759V9.08562H3V9.21759H5ZM5 9.08691C5.00106 8.26785 5.32717 7.48269 5.90671 6.90389L4.49341 5.48877C3.53887 6.44208 3.00174 7.73528 3 9.08433L5 9.08691ZM5.90671 6.90389C6.48625 6.3251 7.27183 6 8.0909 6L8.0909 4C6.74185 4 5.44795 4.53546 4.49341 5.48877L5.90671 6.90389ZM9.12022 8.48679H7.06158V10.4868H9.12022V8.48679ZM6.06291 9.53845C6.1074 10.3986 6.28044 11.2019 6.5076 11.8239C6.62013 12.1319 6.75736 12.4271 6.92 12.6709C7.00122 12.7927 7.10425 12.9251 7.23301 13.0426C7.3547 13.1536 7.5556 13.3028 7.83411 13.3656L8.27379 11.4145C8.4586 11.4561 8.56069 11.5466 8.58089 11.565C8.60816 11.5899 8.60702 11.5959 8.58383 11.5611C8.53764 11.4919 8.46505 11.3535 8.38622 11.1377C8.23069 10.7119 8.09493 10.1058 8.06024 9.43514L6.06291 9.53845ZM8.05395 13.39H8.0909V11.39H8.05395V13.39ZM8.0909 13.39C8.42852 13.39 8.68359 13.2454 8.83289 13.1335C8.98698 13.0181 9.10467 12.8814 9.19132 12.7637C9.36559 12.5269 9.50898 12.2359 9.62472 11.9398C9.85991 11.3379 10.0448 10.5489 10.107 9.70255L8.11235 9.55609C8.06365 10.2194 7.91866 10.8107 7.76191 11.2118C7.68168 11.4171 7.61361 11.5333 7.58052 11.5782C7.5635 11.6013 7.57855 11.5743 7.63348 11.5331C7.68362 11.4955 7.84301 11.39 8.0909 11.39V13.39ZM10.1069 9.70319L10.1175 9.56066L8.12295 9.41292L8.1124 9.55545L10.1069 9.70319ZM11.3689 8.48679H9.91201V10.4868H11.3689V8.48679ZM8.91306 9.44092C8.87037 10.3707 8.66143 11.1877 8.39471 11.7211L10.1836 12.6155C10.6031 11.7765 10.8586 10.6721 10.911 9.53266L8.91306 9.44092ZM9.65329 13.0997C10.3505 12.8271 10.9645 12.3773 11.4348 11.7949L9.87873 10.5385C9.62696 10.8503 9.29823 11.091 8.92499 11.237L9.65329 13.0997ZM11.4348 11.7949C11.9051 11.2125 12.2153 10.5175 12.3349 9.77853L10.3606 9.45898C10.2966 9.8546 10.1305 10.2267 9.87873 10.5385L11.4348 11.7949ZM12.3352 9.77675L12.3563 9.64478L10.3815 9.3288L10.3603 9.46077L12.3352 9.77675ZM6.26451 8.48679H4.81818V10.4868H6.26451V8.48679ZM3.82542 9.60694C3.91895 10.3797 4.22028 11.1127 4.69735 11.7278L6.27773 10.5021C6.02233 10.1728 5.86101 9.78037 5.81094 9.36665L3.82542 9.60694ZM4.69735 11.7278C5.17442 12.3429 5.80936 12.8171 6.53458 13.1L7.2613 11.2367C6.87305 11.0852 6.53313 10.8314 6.27773 10.5021L4.69735 11.7278ZM7.80463 11.7465C7.49653 11.0842 7.31987 10.3685 7.28445 9.63889L5.2868 9.73587C5.33477 10.7239 5.57401 11.6932 5.99125 12.5901L7.80463 11.7465ZM7.28252 9.60868L7.26669 9.40809L5.27289 9.5655L5.28873 9.76608L7.28252 9.60868ZM6.26979 8.48679H6.26451V10.4868H6.26979V8.48679ZM6.51332 5.09041L6.44998 5.1168L7.21921 6.96296L7.28256 6.93656L6.51332 5.09041ZM6.45378 5.11523C5.74738 5.40616 5.13114 5.87985 4.66833 6.48767L6.25955 7.69928C6.50732 7.37388 6.83723 7.12028 7.21541 6.96453L6.45378 5.11523ZM4.66833 6.48767C4.20551 7.09549 3.91281 7.81553 3.82027 8.57387L5.80554 8.81614C5.85508 8.41016 6.01178 8.02468 6.25955 7.69928L4.66833 6.48767ZM4.8129 9.69501H6.26451V7.69501H4.8129V9.69501ZM7.2633 8.74413C7.30598 7.87635 7.49085 7.10312 7.73367 6.57143L5.91441 5.74059C5.54491 6.54966 5.31805 7.5817 5.26572 8.64589L7.2633 8.74413ZM7.71179 6.61633L7.78569 6.4738L6.01019 5.55317L5.93628 5.69569L7.71179 6.61633ZM8.08562 4.79179C7.73853 4.79179 7.47855 4.94438 7.32937 5.05911C7.17441 5.17828 7.05614 5.3191 6.96888 5.44082C6.79309 5.68603 6.648 5.98845 6.531 6.29875C6.29347 6.92876 6.11039 7.75607 6.063 8.64157L8.06015 8.74844C8.09722 8.05565 8.24141 7.43135 8.40241 7.00432C8.48468 6.78611 8.55667 6.65865 8.59434 6.60611C8.6138 6.57896 8.60135 6.60394 8.54862 6.64449C8.50167 6.6806 8.34033 6.79179 8.08562 6.79179V4.79179ZM7.06158 9.69501H9.12022V7.69501H7.06158V9.69501ZM10.1189 8.64335C10.0743 7.78207 9.89961 6.97808 9.67079 6.35587C9.55743 6.0476 9.41936 5.75262 9.25613 5.50906C9.17462 5.38744 9.07141 5.25535 8.94269 5.13826C8.82115 5.0277 8.62044 4.87891 8.34241 4.81625L7.90273 6.76732C7.7184 6.72578 7.61666 6.63571 7.5969 6.61773C7.56996 6.59323 7.57132 6.58758 7.59473 6.6225C7.64132 6.69203 7.7144 6.83054 7.7937 7.04618C7.95021 7.47177 8.08693 8.07716 8.12156 8.74666L10.1189 8.64335ZM8.12257 4.79179H8.08562V6.79179H8.12257V4.79179ZM8.43164 6.53326L8.44748 6.55965L10.1625 5.53067L10.1466 5.50427L8.43164 6.53326ZM8.39409 6.45782C8.71654 7.16959 8.89277 7.93887 8.91232 8.72002L10.9117 8.66999C10.8854 7.62112 10.6488 6.5882 10.2159 5.6325L8.39409 6.45782ZM9.91201 9.69501H11.3636V7.69501H9.91201V9.69501ZM12.356 8.57195C12.2606 7.80221 11.9594 7.07242 11.4842 6.45939L9.9035 7.68468C10.1584 8.01357 10.32 8.40509 10.3712 8.81806L12.356 8.57195ZM11.4842 6.45939C11.009 5.84635 10.3774 5.37274 9.65574 5.08839L8.92253 6.94914C9.30969 7.1017 9.64856 7.35579 9.9035 7.68468L11.4842 6.45939Z" fill="white" mask="url(#path-3-inside-1_989_11401)"/>
</svg>
