<svg width="100" height="24" viewBox="0 0 100 24" fill="none" xmlns="http://www.w3.org/2000/svg">
<path d="M37.6082 5.3667H32.1693C31.9892 5.36659 31.815 5.43078 31.6781 5.54772C31.5412 5.66466 31.4505 5.82666 31.4225 6.00452L29.2227 19.9515C29.2126 20.0162 29.2166 20.0823 29.2345 20.1453C29.2524 20.2084 29.2838 20.2667 29.3264 20.3165C29.369 20.3662 29.4219 20.4061 29.4815 20.4334C29.541 20.4608 29.6058 20.4749 29.6713 20.4748H32.2679C32.4481 20.4749 32.6223 20.4106 32.7593 20.2934C32.8962 20.1763 32.9868 20.0142 33.0147 19.8362L33.6079 16.0744C33.6358 15.8966 33.7263 15.7345 33.863 15.6174C33.9998 15.5003 34.1739 15.4359 34.3539 15.4358H36.0757C39.6585 15.4358 41.7262 13.7021 42.2662 10.2665C42.5096 8.76337 42.2766 7.58237 41.5727 6.75527C40.7997 5.84705 39.4286 5.3667 37.6082 5.3667ZM38.2357 10.4605C37.9383 12.4122 36.4471 12.4122 35.0053 12.4122H34.1845L34.7603 8.76735C34.7772 8.66071 34.8315 8.5636 34.9136 8.49347C34.9957 8.42335 35.1001 8.38482 35.2081 8.38482H35.5842C36.5664 8.38482 37.4929 8.38482 37.9717 8.9447C38.2572 9.27872 38.3447 9.77498 38.2357 10.4605ZM53.8663 10.3977H51.2617C51.1538 10.3977 51.0494 10.4362 50.9673 10.5063C50.8852 10.5765 50.8308 10.6736 50.814 10.7802L50.6987 11.5087L50.5165 11.2447C49.9527 10.4263 48.6953 10.1527 47.4404 10.1527C44.5622 10.1527 42.104 12.3326 41.6252 15.3905C41.3763 16.9159 41.7302 18.3744 42.5955 19.3916C43.3892 20.3269 44.5248 20.7165 45.876 20.7165C48.1951 20.7165 49.4811 19.2254 49.4811 19.2254L49.365 19.9491C49.3546 20.0138 49.3584 20.08 49.3761 20.1431C49.3938 20.2062 49.425 20.2647 49.4675 20.3146C49.5099 20.3644 49.5627 20.4045 49.6222 20.4321C49.6817 20.4596 49.7464 20.4739 49.8119 20.474H52.158C52.3382 20.4741 52.5125 20.4098 52.6494 20.2927C52.7863 20.1756 52.8769 20.0134 52.9048 19.8354L54.3124 10.921C54.3228 10.8564 54.319 10.7904 54.3014 10.7274C54.2837 10.6645 54.2526 10.6061 54.2102 10.5563C54.1678 10.5066 54.115 10.4666 54.0557 10.4392C53.9963 10.4118 53.9317 10.3977 53.8663 10.3977ZM50.2358 15.4669C49.9845 16.9548 48.8035 17.9537 47.2972 17.9537C46.5409 17.9537 45.9365 17.7112 45.5484 17.2515C45.1635 16.795 45.0171 16.1452 45.1396 15.4215C45.3742 13.9463 46.5751 12.9148 48.0583 12.9148C48.7979 12.9148 49.3992 13.1605 49.7952 13.6242C50.1921 14.0926 50.3495 14.7463 50.2358 15.4669ZM67.7377 10.3977H65.1204C64.997 10.3979 64.8754 10.4282 64.7664 10.486C64.6573 10.5438 64.564 10.6273 64.4945 10.7293L60.8847 16.0466L59.3546 10.9369C59.3076 10.781 59.2117 10.6445 59.0811 10.5474C58.9505 10.4502 58.792 10.3978 58.6293 10.3977H56.0573C55.9851 10.3975 55.9139 10.4146 55.8496 10.4474C55.7854 10.4803 55.7299 10.5281 55.6878 10.5867C55.6457 10.6454 55.6182 10.7133 55.6077 10.7847C55.5971 10.8561 55.6037 10.929 55.6271 10.9973L58.51 19.4576L55.7996 23.2837C55.7515 23.3516 55.7229 23.4314 55.7171 23.5143C55.7112 23.5973 55.7283 23.6803 55.7665 23.7543C55.8047 23.8282 55.8625 23.8902 55.9336 23.9334C56.0046 23.9767 56.0862 23.9995 56.1694 23.9995H58.7836C58.9056 23.9997 59.0259 23.9702 59.1341 23.9137C59.2422 23.8572 59.3351 23.7753 59.4047 23.675L68.1099 11.1095C68.1571 11.0415 68.1847 10.9619 68.1899 10.8793C68.1951 10.7967 68.1775 10.7143 68.1392 10.6409C68.1008 10.5676 68.0432 10.5062 67.9724 10.4633C67.9016 10.4204 67.8204 10.3977 67.7377 10.3977Z" fill="#253B80"/>
<path d="M76.4023 5.36749H70.9625C70.7826 5.36757 70.6086 5.43185 70.4719 5.54878C70.3351 5.6657 70.2446 5.82759 70.2166 6.00532L68.0168 19.9523C68.0066 20.0169 68.0105 20.0829 68.0282 20.1459C68.046 20.2088 68.0772 20.2672 68.1197 20.3169C68.1621 20.3667 68.2149 20.4066 68.2743 20.434C68.3337 20.4614 68.3983 20.4756 68.4638 20.4756H71.2552C71.3811 20.4754 71.5029 20.4303 71.5985 20.3483C71.6942 20.2664 71.7574 20.153 71.7769 20.0286L72.4012 16.0752C72.4291 15.8974 72.5195 15.7353 72.6563 15.6182C72.7931 15.5011 72.9672 15.4367 73.1472 15.4366H74.8682C78.4518 15.4366 80.5187 13.7029 81.0595 10.2673C81.3037 8.76417 81.0691 7.58317 80.3652 6.75607C79.593 5.84785 78.2227 5.36749 76.4023 5.36749ZM77.0298 10.4613C76.7332 12.4129 75.242 12.4129 73.7993 12.4129H72.9794L73.556 8.76814C73.5725 8.66151 73.6267 8.56431 73.7086 8.49414C73.7906 8.42398 73.895 8.38548 74.0029 8.38561H74.3791C75.3605 8.38561 76.2878 8.38561 76.7666 8.94549C77.0521 9.27951 77.1387 9.77577 77.0298 10.4613ZM92.6596 10.3985H90.0566C89.9487 10.3982 89.8442 10.4366 89.7622 10.5068C89.6801 10.577 89.626 10.6743 89.6096 10.781L89.4943 11.5095L89.3114 11.2455C88.7476 10.4271 87.491 10.1535 86.236 10.1535C83.3579 10.1535 80.9005 12.3334 80.4217 15.3913C80.1736 16.9167 80.5259 18.3752 81.3911 19.3924C82.1864 20.3277 83.3205 20.7173 84.6717 20.7173C86.9908 20.7173 88.2767 19.2262 88.2767 19.2262L88.1606 19.9499C88.1503 20.0147 88.1541 20.081 88.1719 20.1442C88.1897 20.2075 88.221 20.266 88.2636 20.316C88.3063 20.3659 88.3593 20.4059 88.419 20.4334C88.4786 20.4608 88.5435 20.4749 88.6092 20.4748H90.9545C91.1345 20.4747 91.3086 20.4103 91.4454 20.2932C91.5821 20.1761 91.6726 20.014 91.7005 19.8362L93.1089 10.9218C93.1189 10.857 93.1148 10.7909 93.0968 10.7279C93.0788 10.6648 93.0473 10.6065 93.0046 10.5568C92.9619 10.507 92.909 10.4672 92.8494 10.4398C92.7899 10.4125 92.7251 10.3984 92.6596 10.3985ZM89.0291 15.4676C88.7794 16.9556 87.5968 17.9545 86.0905 17.9545C85.3358 17.9545 84.7298 17.7119 84.3417 17.2523C83.9567 16.7958 83.812 16.146 83.9329 15.4223C84.1691 13.9471 85.3684 12.9156 86.8516 12.9156C87.5912 12.9156 88.1925 13.1613 88.5885 13.625C88.9869 14.0934 89.1444 14.7471 89.0291 15.4676ZM95.7302 5.75003L93.4978 19.9523C93.4876 20.0169 93.4915 20.0829 93.5092 20.1459C93.527 20.2088 93.5582 20.2672 93.6007 20.3169C93.6432 20.3667 93.6959 20.4066 93.7553 20.434C93.8147 20.4614 93.8794 20.4756 93.9448 20.4756H96.1891C96.5621 20.4756 96.8786 20.2052 96.9358 19.837L99.1372 5.89079C99.1474 5.82615 99.1435 5.76006 99.1258 5.69706C99.108 5.63407 99.0768 5.57566 99.0344 5.52586C98.9919 5.47606 98.9391 5.43605 98.8797 5.40858C98.8203 5.3811 98.7557 5.36682 98.6902 5.3667H96.1771C96.0692 5.36708 95.965 5.40587 95.8831 5.47611C95.8012 5.54635 95.747 5.64345 95.7302 5.75003Z" fill="#179BD7"/>
<path d="M6.63691 23.1874L7.05284 20.5454L6.12633 20.5239H1.70215L4.77673 1.02906C4.78588 0.969493 4.81614 0.9152 4.86198 0.876076C4.90781 0.836952 4.96619 0.815604 5.02645 0.815921H12.4862C14.9628 0.815921 16.6718 1.33127 17.5642 2.34844C17.9825 2.82561 18.2489 3.32426 18.3777 3.87301C18.5129 4.44879 18.5153 5.13672 18.3833 5.97575L18.3738 6.03698V6.5746L18.7921 6.81159C19.1114 6.97339 19.3985 7.19225 19.6391 7.45737C19.9969 7.86535 20.2284 8.38388 20.3262 8.99863C20.4272 9.63089 20.3938 10.3832 20.2284 11.235C20.0375 12.2148 19.7289 13.0681 19.3122 13.7664C18.9445 14.3919 18.4501 14.9337 17.8608 15.357C17.3073 15.7498 16.6496 16.0481 15.906 16.2389C15.1855 16.4266 14.3639 16.5213 13.4629 16.5213H12.8823C12.4672 16.5213 12.0639 16.6708 11.7474 16.9388C11.4313 17.2097 11.2217 17.5839 11.1557 17.9949L11.112 18.2327L10.3771 22.8891L10.3437 23.0601C10.335 23.1142 10.3199 23.1412 10.2976 23.1595C10.276 23.1772 10.2491 23.187 10.2213 23.1874H6.63691Z" fill="#253B80"/>
<path d="M19.1866 6.0979C19.1643 6.24026 19.1389 6.38579 19.1102 6.53531C18.1265 11.5862 14.7608 13.331 10.4623 13.331H8.27365C7.74797 13.331 7.30499 13.7128 7.22308 14.2313L6.10252 21.338L5.7852 23.3525C5.77256 23.4324 5.77738 23.5141 5.79934 23.5919C5.8213 23.6698 5.85988 23.742 5.91241 23.8035C5.96494 23.865 6.03018 23.9144 6.10363 23.9483C6.17709 23.9822 6.25702 23.9998 6.33792 23.9998H10.2197C10.6794 23.9998 11.0699 23.6658 11.1423 23.2125L11.1804 23.0153L11.9113 18.3771L11.9582 18.1226C12.0298 17.6677 12.4211 17.3337 12.8808 17.3337H13.4613C17.2222 17.3337 20.1664 15.8068 21.0269 11.3882C21.3863 9.54229 21.2003 8.00102 20.2491 6.91705C19.9476 6.58172 19.5876 6.30414 19.1866 6.0979Z" fill="#179BD7"/>
<path d="M18.1585 5.6864C17.8444 5.59553 17.5249 5.52461 17.2018 5.47406C16.5634 5.37595 15.9183 5.32888 15.2724 5.33329H9.42548C9.20296 5.33312 8.98772 5.41256 8.81867 5.55725C8.64962 5.70194 8.53791 5.90234 8.50374 6.12222L7.25991 14.0003L7.22412 14.2302C7.26287 13.9794 7.3901 13.7507 7.5828 13.5856C7.77549 13.4205 8.02093 13.3298 8.2747 13.3299H10.4633C14.7619 13.3299 18.1275 11.5843 19.1113 6.53418C19.1407 6.38466 19.1654 6.23912 19.1876 6.09677C18.928 5.96064 18.6575 5.84651 18.3788 5.75559C18.3058 5.73135 18.2323 5.70828 18.1585 5.6864Z" fill="#222D65"/>
<path d="M8.50324 6.12316C8.53713 5.90322 8.64878 5.70273 8.81791 5.55811C8.98705 5.4135 9.20245 5.33434 9.42498 5.33503H15.2719C15.9646 5.33503 16.6112 5.38036 17.2013 5.4758C17.6006 5.53856 17.9944 5.63242 18.3791 5.75654C18.6694 5.85276 18.939 5.96649 19.1879 6.09771C19.4806 4.23117 19.1855 2.9603 18.1763 1.80952C17.0637 0.54263 15.0556 0.000244141 12.486 0.000244141H5.02625C4.50136 0.000244141 4.05361 0.381982 3.97249 0.901305L0.865303 20.5966C0.85083 20.688 0.856337 20.7815 0.881443 20.8706C0.90655 20.9598 0.950661 21.0424 1.01074 21.1128C1.07082 21.1832 1.14545 21.2398 1.22949 21.2787C1.31352 21.3175 1.40498 21.3377 1.49756 21.3378H6.10307L7.25941 14.0013L8.50324 6.12316Z" fill="#253B80"/>
</svg>
