<svg width="23" height="22" viewBox="0 0 23 22" fill="none" xmlns="http://www.w3.org/2000/svg">
<path d="M11.5633 11.0001C10.555 11.0001 9.69179 10.6411 8.97373 9.923C8.25568 9.20494 7.89665 8.34175 7.89665 7.33341C7.89665 6.32508 8.25568 5.46189 8.97373 4.74383C9.69179 4.02578 10.555 3.66675 11.5633 3.66675C12.5716 3.66675 13.4348 4.02578 14.1529 4.74383C14.871 5.46189 15.23 6.32508 15.23 7.33341C15.23 8.34175 14.871 9.20494 14.1529 9.923C13.4348 10.6411 12.5716 11.0001 11.5633 11.0001ZM4.22998 18.3334V15.7667C4.22998 15.2473 4.36366 14.7699 4.63102 14.3345C4.89838 13.899 5.25359 13.5667 5.69665 13.3376C6.64387 12.864 7.60637 12.5088 8.58415 12.272C9.56192 12.0352 10.555 11.9167 11.5633 11.9167C12.5716 11.9167 13.5647 12.0352 14.5425 12.272C15.5203 12.5088 16.4828 12.864 17.43 13.3376C17.873 13.5667 18.2282 13.899 18.4956 14.3345C18.763 14.7699 18.8966 15.2473 18.8966 15.7667V18.3334H4.22998ZM6.06331 16.5001H17.0633V15.7667C17.0633 15.5987 17.0213 15.4459 16.9373 15.3084C16.8532 15.1709 16.7425 15.064 16.605 14.9876C15.78 14.5751 14.9473 14.2657 14.1071 14.0595C13.2668 13.8532 12.4189 13.7501 11.5633 13.7501C10.7078 13.7501 9.85984 13.8532 9.01956 14.0595C8.17929 14.2657 7.34665 14.5751 6.52165 14.9876C6.38415 15.064 6.27338 15.1709 6.18936 15.3084C6.10533 15.4459 6.06331 15.5987 6.06331 15.7667V16.5001ZM11.5633 9.16675C12.0675 9.16675 12.4991 8.98723 12.8581 8.62821C13.2171 8.26918 13.3966 7.83758 13.3966 7.33341C13.3966 6.82925 13.2171 6.39765 12.8581 6.03862C12.4991 5.6796 12.0675 5.50008 11.5633 5.50008C11.0591 5.50008 10.6276 5.6796 10.2685 6.03862C9.90949 6.39765 9.72998 6.82925 9.72998 7.33341C9.72998 7.83758 9.90949 8.26918 10.2685 8.62821C10.6276 8.98723 11.0591 9.16675 11.5633 9.16675Z" fill="#A2AECC"/>
</svg>
