<svg width="22" height="22" viewBox="0 0 22 22" fill="none" xmlns="http://www.w3.org/2000/svg">
<path fill-rule="evenodd" clip-rule="evenodd" d="M11.802 0H9.698H9.69797C8.79951 -2.82646e-05 8.0503 -5.18337e-05 7.45552 0.0799135C6.82773 0.164318 6.26093 0.349989 5.80546 0.805459C5.34999 1.26093 5.16432 1.82773 5.07991 2.45552C4.99995 3.0503 4.99997 3.79951 5 4.69798V4.698L5 6.0044C4.61117 6.00968 4.26709 6.02129 3.96173 6.0468C3.3844 6.09502 2.88151 6.19666 2.41499 6.43655C1.85651 6.72374 1.37704 7.1406 1.02103 7.65269C0.721567 8.08345 0.563768 8.56457 0.455224 9.11962C0.350437 9.65546 0.281401 10.3205 0.196285 11.1404L0.188659 11.2139C0.0864416 12.1983 0.00406914 12.9917 0.000150137 13.6333C-0.00388432 14.2938 0.0724202 14.878 0.346817 15.4153C0.668901 16.046 1.16585 16.5731 1.7778 16.94C2.29485 17.2501 2.87804 17.3791 3.5533 17.4403C4.01638 17.4823 4.56096 17.4947 5.20125 17.4984C5.14076 17.7721 5.0912 18.0144 5.05703 18.2289C4.99759 18.6019 4.97268 18.9566 5.0415 19.3087C5.19953 20.1173 5.69712 20.8267 6.42159 21.2103C6.74394 21.3809 7.09088 21.4435 7.44884 21.4723C7.79456 21.5 8.22142 21.5 8.73109 21.5H12.7689C13.2786 21.5 13.7054 21.5 14.0511 21.4723C14.4091 21.4435 14.756 21.3809 15.0784 21.2103C15.8028 20.8267 16.3004 20.1173 16.4585 19.3087C16.5273 18.9566 16.5024 18.6019 16.4429 18.2289C16.4088 18.0144 16.3592 17.7721 16.2987 17.4984C16.939 17.4947 17.4836 17.4823 17.9467 17.4403C18.622 17.3791 19.2052 17.2501 19.7222 16.94C20.3341 16.5731 20.8311 16.046 21.1532 15.4153C21.4276 14.878 21.5039 14.2938 21.4999 13.6333C21.4959 12.9916 21.4136 12.1983 21.3113 11.2138L21.3037 11.1404C21.2186 10.3205 21.1496 9.65547 21.0448 9.11962C20.9362 8.56457 20.7784 8.08345 20.479 7.65269C20.123 7.1406 19.6435 6.72374 19.085 6.43655C18.6185 6.19666 18.1156 6.09502 17.5383 6.0468C17.2329 6.02129 16.8888 6.00968 16.5 6.0044L16.5 4.69801V4.69798V4.69795V4.69791C16.5 3.79947 16.5001 3.05028 16.4201 2.45552C16.3357 1.82773 16.15 1.26093 15.6945 0.805459C15.2391 0.349989 14.6723 0.164318 14.0445 0.0799135C13.4497 -5.18329e-05 12.7005 -2.82646e-05 11.802 0H11.802ZM5.85282 15.2744C5.72571 15.4866 5.63576 15.7253 5.55699 15.9996C4.7636 15.9981 4.16787 15.9898 3.68865 15.9464C3.1134 15.8943 2.78792 15.7967 2.54919 15.6536C2.17321 15.4281 1.87427 15.1082 1.68269 14.7331C1.56413 14.5009 1.49677 14.1917 1.50012 13.6424C1.50354 13.0827 1.57749 12.3623 1.68467 11.3299C1.77425 10.4672 1.83701 9.86939 1.92734 9.40751C2.01538 8.95731 2.11848 8.70191 2.25265 8.50892C2.46603 8.20198 2.75668 7.94755 3.10095 7.77052C3.32195 7.65688 3.60589 7.58175 4.08659 7.54159C4.57717 7.50061 5.2052 7.5 6.10396 7.5H15.396C16.2948 7.5 16.9228 7.50061 17.4134 7.54159C17.8941 7.58175 18.1781 7.65688 18.3991 7.77052C18.7433 7.94755 19.034 8.20198 19.2474 8.50892C19.3815 8.70191 19.4846 8.95731 19.5727 9.40751C19.663 9.86939 19.7258 10.4672 19.8153 11.3299C19.9225 12.3623 19.9965 13.0827 19.9999 13.6424C20.0032 14.1917 19.9359 14.5009 19.8173 14.7331C19.6257 15.1082 19.3268 15.4281 18.9508 15.6536C18.7121 15.7967 18.3866 15.8943 17.8114 15.9464C17.3321 15.9898 16.7364 15.9981 15.943 15.9996C15.8642 15.7253 15.7742 15.4866 15.6471 15.2744C15.3405 14.7626 14.877 14.364 14.3205 14.1562C13.8986 13.9987 13.4245 13.9992 12.8516 13.9999L12.7387 14H8.7613L8.64832 13.9999C8.07548 13.9992 7.60132 13.9987 7.17945 14.1562C6.62298 14.364 6.1595 14.7626 5.85282 15.2744ZM15 6V4.75C15 3.78599 14.9984 3.13843 14.9335 2.65539C14.8714 2.19393 14.7642 1.99644 14.6339 1.86612C14.5036 1.7358 14.3061 1.62858 13.8446 1.56654C13.3616 1.5016 12.714 1.5 11.75 1.5H9.75C8.78599 1.5 8.13843 1.5016 7.65539 1.56654C7.19393 1.62858 6.99644 1.7358 6.86612 1.86612C6.7358 1.99644 6.62858 2.19393 6.56654 2.65539C6.5016 3.13843 6.5 3.78599 6.5 4.75V6H15ZM8.7613 15.5C8.01465 15.5 7.83796 15.5115 7.70416 15.5615C7.48319 15.644 7.28098 15.8093 7.13954 16.0454C7.04741 16.1991 6.98831 16.4155 6.80967 17.1908C6.67745 17.7646 6.58724 18.1579 6.53835 18.4648C6.49001 18.7683 6.49416 18.9213 6.51365 19.021C6.59113 19.4174 6.82758 19.728 7.1234 19.8846C7.18367 19.9165 7.29573 19.9552 7.56882 19.9771C7.84733 19.9994 8.21354 20 8.7613 20H12.7387C13.2864 20 13.6526 19.9994 13.9311 19.9771C14.2042 19.9552 14.3163 19.9165 14.3766 19.8846C14.6724 19.728 14.9088 19.4174 14.9863 19.021C15.0058 18.9213 15.01 18.7683 14.9616 18.4648C14.9127 18.1579 14.8225 17.7646 14.6903 17.1908C14.5117 16.4155 14.4525 16.1991 14.3604 16.0454C14.219 15.8093 14.0168 15.644 13.7958 15.5615C13.662 15.5115 13.4853 15.5 12.7387 15.5H8.7613ZM16.75 9.75C16.1977 9.75 15.75 10.1977 15.75 10.75C15.75 11.3023 16.1977 11.75 16.75 11.75H16.759C17.3113 11.75 17.759 11.3023 17.759 10.75C17.759 10.1977 17.3113 9.75 16.759 9.75H16.75Z" fill="#1B8354"/>
</svg>
