<svg width="20" height="20" viewBox="0 0 20 20" fill="none" xmlns="http://www.w3.org/2000/svg">
<path fill-rule="evenodd" clip-rule="evenodd" d="M2.39874 4.06524C2.86758 3.5964 3.50346 3.33301 4.1665 3.33301H15.8332C16.4962 3.33301 17.1321 3.5964 17.6009 4.06524C18.0698 4.53408 18.3332 5.16997 18.3332 5.83301V7.49967C18.3332 7.95991 17.9601 8.33301 17.4998 8.33301C17.0578 8.33301 16.6339 8.5086 16.3213 8.82116C16.0088 9.13372 15.8332 9.55765 15.8332 9.99967C15.8332 10.4417 16.0088 10.8656 16.3213 11.1782C16.6339 11.4907 17.0578 11.6663 17.4998 11.6663C17.9601 11.6663 18.3332 12.0394 18.3332 12.4997V14.1663C18.3332 14.8294 18.0698 15.4653 17.6009 15.9341C17.1321 16.4029 16.4962 16.6663 15.8332 16.6663H4.1665C2.7896 16.6663 1.6665 15.5432 1.6665 14.1663V12.4997C1.6665 12.0394 2.0396 11.6663 2.49984 11.6663C2.94187 11.6663 3.36579 11.4907 3.67835 11.1782C3.99091 10.8656 4.1665 10.4417 4.1665 9.99967C4.1665 9.55765 3.99091 9.13372 3.67835 8.82116C3.36579 8.5086 2.94187 8.33301 2.49984 8.33301C2.0396 8.33301 1.6665 7.95991 1.6665 7.49967V5.83301C1.6665 5.16997 1.9299 4.53408 2.39874 4.06524ZM4.1665 4.99967C3.94549 4.99967 3.73353 5.08747 3.57725 5.24375C3.42097 5.40003 3.33317 5.61199 3.33317 5.83301V6.77218C3.90486 6.9198 4.43224 7.21803 4.85686 7.64265C5.48198 8.26777 5.83317 9.11562 5.83317 9.99967C5.83317 10.8837 5.48198 11.7316 4.85686 12.3567C4.43224 12.7813 3.90486 13.0795 3.33317 13.2272V14.1663C3.33317 14.6228 3.71007 14.9997 4.1665 14.9997H15.8332C16.0542 14.9997 16.2661 14.9119 16.4224 14.7556C16.5787 14.5993 16.6665 14.3874 16.6665 14.1663V13.2272C16.0948 13.0795 15.5674 12.7813 15.1428 12.3567C14.5177 11.7316 14.1665 10.8837 14.1665 9.99967C14.1665 9.11562 14.5177 8.26777 15.1428 7.64265C15.5674 7.21803 16.0948 6.9198 16.6665 6.77218V5.83301C16.6665 5.61199 16.5787 5.40003 16.4224 5.24375C16.2661 5.08747 16.0542 4.99967 15.8332 4.99967H4.1665Z" fill="#A2AECC"/>
<path fill-rule="evenodd" clip-rule="evenodd" d="M10.8333 3.33301C11.2936 3.33301 11.6667 3.7061 11.6667 4.16634V5.83301C11.6667 6.29325 11.2936 6.66634 10.8333 6.66634C10.3731 6.66634 10 6.29325 10 5.83301V4.16634C10 3.7061 10.3731 3.33301 10.8333 3.33301Z" fill="#A2AECC"/>
<path fill-rule="evenodd" clip-rule="evenodd" d="M10.8333 13.333C11.2936 13.333 11.6667 13.7061 11.6667 14.1663V15.833C11.6667 16.2932 11.2936 16.6663 10.8333 16.6663C10.3731 16.6663 10 16.2932 10 15.833V14.1663C10 13.7061 10.3731 13.333 10.8333 13.333Z" fill="#A2AECC"/>
<path fill-rule="evenodd" clip-rule="evenodd" d="M10.8333 8.33301C11.2936 8.33301 11.6667 8.7061 11.6667 9.16634V10.833C11.6667 11.2932 11.2936 11.6663 10.8333 11.6663C10.3731 11.6663 10 11.2932 10 10.833V9.16634C10 8.7061 10.3731 8.33301 10.8333 8.33301Z" fill="#A2AECC"/>
</svg>
