<svg width="18" height="22" viewBox="0 0 18 22" fill="none" xmlns="http://www.w3.org/2000/svg">
<path fill-rule="evenodd" clip-rule="evenodd" d="M8.69358 0H8.80642H8.80643C10.6442 -1.55333e-05 12.0998 -2.78366e-05 13.239 0.153135C14.4114 0.310763 15.3604 0.64288 16.1088 1.39124C16.8571 2.13961 17.1892 3.08856 17.3469 4.26098C17.5 5.40018 17.5 6.8558 17.5 8.69354V8.69359V9.80641V9.80646C17.5 11.6442 17.5 13.0998 17.3469 14.239C17.1892 15.4114 16.8571 16.3604 16.1088 17.1088C15.7246 17.4929 15.2875 17.7674 14.7945 17.9649L16.374 20.3341C16.6037 20.6787 16.5106 21.1444 16.1659 21.3741C15.8213 21.6039 15.3556 21.5108 15.1259 21.1661L13.2458 18.346L13.239 18.3469C12.0998 18.5 10.6442 18.5 8.80646 18.5H8.80641H8.69359H8.69354C6.8558 18.5 5.40018 18.5 4.26098 18.3469L4.25422 18.346L2.37412 21.1661C2.14435 21.5108 1.6787 21.6039 1.33405 21.3741C0.989408 21.1444 0.896278 20.6787 1.12604 20.3341L2.70547 17.9649C2.21247 17.7674 1.77542 17.4929 1.39124 17.1088C0.64288 16.3604 0.310763 15.4114 0.153135 14.239C-2.78354e-05 13.0998 -1.55333e-05 11.6442 0 9.80643V9.80642V8.69358V8.69357C-1.55333e-05 6.85582 -2.78366e-05 5.40019 0.153135 4.26098C0.310763 3.08856 0.64288 2.13961 1.39124 1.39124C2.13961 0.64288 3.08856 0.310763 4.26098 0.153135C5.40019 -2.78354e-05 6.85582 -1.55333e-05 8.69357 0H8.69358ZM4.46085 1.63976C3.45476 1.77502 2.87511 2.02869 2.4519 2.4519C2.29522 2.60859 2.16177 2.78672 2.04896 3H15.451C15.3382 2.78672 15.2048 2.60859 15.0481 2.4519C14.6249 2.02869 14.0452 1.77502 13.0392 1.63976C12.0115 1.50159 10.6568 1.5 8.75 1.5C6.84318 1.5 5.48851 1.50159 4.46085 1.63976ZM15.8643 4.49135C15.827 4.49704 15.7889 4.5 15.75 4.5H1.75C1.71114 4.5 1.67298 4.49705 1.63571 4.49135C1.50156 5.51529 1.5 6.86198 1.5 8.75V9.75L1.50008 10.1582L1.56314 10.1725C1.96883 10.2638 2.55585 10.3861 3.27452 10.5086C4.7145 10.7541 6.67025 10.9979 8.7485 10.9979C10.8268 10.9979 12.7825 10.7541 14.2225 10.5086C14.9412 10.3861 15.5282 10.2638 15.9339 10.1725L15.9999 10.1575L16 9.75V8.75C16 6.86198 15.9984 5.51529 15.8643 4.49135ZM1.63458 14C1.55273 13.3706 1.52065 12.6196 1.50809 11.6962C1.90851 11.7825 2.42199 11.8849 3.02248 11.9873C4.51584 12.2418 6.56009 12.4979 8.7485 12.4979C10.9369 12.4979 12.9812 12.2418 14.4745 11.9873C15.0765 11.8847 15.5911 11.7819 15.9919 11.6956C15.9794 12.6192 15.9473 13.3705 15.8654 14H14.25C13.8358 14 13.5 14.3358 13.5 14.75C13.5 15.1642 13.8358 15.5 14.25 15.5H15.451C15.3382 15.7133 15.2048 15.8914 15.0481 16.0481C14.6249 16.4713 14.0452 16.725 13.0392 16.8602C12.0115 16.9984 10.6568 17 8.75 17C6.84318 17 5.48851 16.9984 4.46085 16.8602C3.45476 16.725 2.87511 16.4713 2.4519 16.0481C2.29522 15.8914 2.16177 15.7133 2.04896 15.5H3.25C3.66421 15.5 4 15.1642 4 14.75C4 14.3358 3.66421 14 3.25 14H1.63458Z" fill="#1B8354"/>
</svg>
