<svg width="22" height="22" viewBox="0 0 22 22" fill="none" xmlns="http://www.w3.org/2000/svg">
<path d="M6.18585 1.375C5.0549 1.375 4.125 2.30742 4.125 3.43842V15.8125C4.125 16.1923 4.43265 16.5 4.8125 16.5H17.1875C17.5673 16.5 17.875 16.1923 17.875 15.8125V3.43842C17.875 2.30747 16.9426 1.375 15.8116 1.375H6.18585ZM6.18585 2.75086H15.8127C16.2003 2.75086 16.5002 3.05078 16.5002 3.43836V4.125H5.49835V3.43836C5.49835 3.05078 5.79826 2.75086 6.18585 2.75086ZM5.49835 5.49995H16.5002V9.62494H5.49835V5.49995ZM5.49835 10.9999H16.5002V15.124H5.49835V10.9999ZM7.5625 12.0312C6.99274 12.0312 6.53125 12.4927 6.53125 13.0624C6.53125 13.3357 6.63953 13.5987 6.83289 13.7921C7.02711 13.9854 7.28922 14.0937 7.5625 14.0937C7.83578 14.0937 8.09789 13.9854 8.29211 13.7921C8.48547 13.5987 8.59375 13.3357 8.59375 13.0624C8.59375 12.4927 8.13226 12.0312 7.5625 12.0312ZM14.4375 12.0312C13.8677 12.0312 13.4062 12.4927 13.4062 13.0624C13.4062 13.3357 13.5145 13.5987 13.7079 13.7921C13.9021 13.9854 14.1642 14.0937 14.4375 14.0937C14.7108 14.0937 14.9729 13.9854 15.1671 13.7921C15.3605 13.5987 15.4688 13.3357 15.4688 13.0624C15.4688 12.4927 15.0073 12.0312 14.4375 12.0312ZM6.18567 17.1876C6.14012 17.1876 6.09543 17.1919 6.05074 17.2014C5.87285 17.2366 5.71559 17.3415 5.61503 17.4927L4.24003 19.5569C4.03034 19.8723 4.11542 20.2985 4.42995 20.5091C4.5812 20.6105 4.76682 20.6474 4.94644 20.6122C5.12519 20.5761 5.28245 20.4712 5.38385 20.3191L5.86682 19.5938H16.1329L16.6159 20.3191C16.7173 20.4713 16.8746 20.5761 17.0533 20.6122C17.2329 20.6474 17.4186 20.6105 17.5698 20.5091C17.8843 20.2985 17.9694 19.8723 17.7597 19.5569L17.0654 18.5153L16.3847 17.4927C16.2842 17.3414 16.1269 17.2366 15.949 17.2013C15.7694 17.1644 15.5829 17.2013 15.4308 17.3027C15.1309 17.5055 15.0389 17.906 15.2211 18.2188H6.78301C6.96434 17.9052 6.86981 17.5038 6.56903 17.3027C6.45559 17.2271 6.32153 17.1876 6.18575 17.1876L6.18567 17.1876Z" fill="white"/>
</svg>
