<svg width="18" height="22" viewBox="0 0 18 22" fill="none" xmlns="http://www.w3.org/2000/svg">
<path d="M1.22461 0.447266C2.59967 -0.453603 4.5509 0.0331915 5.16211 1.65332C6.26105 4.56629 6.84415 7.32756 7.15332 9.3584C7.30573 10.3596 7.39212 11.1861 7.44043 11.7695C9.35708 11.2949 11.1097 11.3207 12.4346 11.4834C13.2032 11.5778 13.8332 11.7192 14.2744 11.8379C14.4948 11.8972 14.6686 11.9512 14.79 11.9912C14.8149 11.9994 14.8529 12.0114 14.8906 12.0234C14.945 12.0408 15.0006 12.0583 15.0205 12.0654C15.0891 12.0855 15.1832 12.1157 15.2949 12.1562C15.5163 12.2367 15.8188 12.3644 16.127 12.5527C16.7214 12.916 17.5 13.6132 17.5 14.7549C17.4998 16.2817 16.2442 17.4969 14.7227 17.4971H13.126L11.25 20H14.75C15.1642 20 15.5 20.3358 15.5 20.75C15.4998 21.164 15.1641 21.5 14.75 21.5H4.75C4.33595 21.5 4.00022 21.164 4 20.75C4 20.3358 4.33582 20 4.75 20H9.375L11.252 17.4971H5.23145C3.91726 17.4969 2.77118 16.5843 2.50879 15.2949L0.0537109 3.2334C-0.166435 2.15159 0.3014 1.05216 1.22461 0.447266ZM3.75781 2.18262C3.52009 1.55303 2.70327 1.27225 2.04688 1.70215C1.62955 1.97558 1.42776 2.46272 1.52344 2.93359L3.97852 14.9961C4.09537 15.5694 4.6128 15.997 5.23145 15.9971H14.7227C15.4403 15.9968 15.9998 15.4288 16 14.7549C16 14.3895 15.7642 14.0894 15.3447 13.833C15.1462 13.7117 14.9419 13.6231 14.7832 13.5654C14.7051 13.537 14.6409 13.5172 14.5986 13.5049C14.5858 13.5003 14.5139 13.478 14.4453 13.4561C14.3925 13.4392 14.3414 13.423 14.3203 13.416C14.2234 13.384 14.0757 13.3377 13.8838 13.2861C13.4997 13.1829 12.9395 13.0572 12.251 12.9727C10.871 12.8032 8.99411 12.8012 6.9834 13.46C6.75835 13.5337 6.51198 13.4967 6.31836 13.3604C6.1248 13.224 6.0065 13.0042 6 12.7676C5.99233 12.6226 5.96994 12.195 5.94727 11.918C5.90185 11.3633 5.81878 10.5618 5.66992 9.58398C5.3718 7.62567 4.81002 4.97172 3.75781 2.18262ZM14.75 8.5C15.1642 8.5 15.5 8.83579 15.5 9.25C15.4998 9.66401 15.1641 10 14.75 10H9.25C8.83597 9.99996 8.50024 9.66398 8.5 9.25C8.5 8.83581 8.83582 8.50004 9.25 8.5H14.75Z" fill="#1B8354"/>
</svg>
