<svg width="16" height="16" viewBox="0 0 16 16" fill="none" xmlns="http://www.w3.org/2000/svg">
<path fill-rule="evenodd" clip-rule="evenodd" d="M8.5 10.75C8.5 11.1642 8.16421 11.5 7.75 11.5C7.33579 11.5 7 11.1642 7 10.75L7 2.28807L6.99394 2.29522C6.78326 2.54385 6.57697 2.80662 6.38406 3.05234L6.38404 3.05236L6.33933 3.10931C6.14711 3.35404 5.94487 3.61115 5.78781 3.77274C5.49911 4.06977 5.02428 4.07651 4.72726 3.78781C4.43023 3.49911 4.42349 3.02428 4.71219 2.72726C4.80089 2.636 4.94651 2.45419 5.15971 2.18276L5.20677 2.12282L5.2068 2.12278C5.39686 1.88065 5.61982 1.59661 5.84954 1.32551C6.09574 1.03495 6.37131 0.733158 6.64679 0.498536C6.78484 0.380961 6.94043 0.264992 7.10782 0.175414C7.26926 0.0890198 7.49171 0 7.75 0C8.00829 0 8.23074 0.0890198 8.39218 0.175414C8.55957 0.264992 8.71517 0.380961 8.85321 0.498536C9.12869 0.733158 9.40426 1.03495 9.65047 1.32551C9.88018 1.5966 10.1031 1.88064 10.2932 2.12277L10.2932 2.12281L10.3403 2.18276C10.5535 2.45419 10.6991 2.636 10.7878 2.72726C11.0765 3.02428 11.0698 3.49911 10.7727 3.78781C10.4757 4.07651 10.0009 4.06977 9.71219 3.77274C9.55513 3.61115 9.3529 3.35404 9.16067 3.10931L9.11596 3.05237L9.11592 3.05232C8.92302 2.8066 8.71674 2.54385 8.50606 2.29522L8.5 2.28807V10.75ZM0.75 14C0.335786 14 0 14.3358 0 14.75C0 15.1642 0.335786 15.5 0.75 15.5H14.7501C15.1643 15.5 15.5001 15.1642 15.5001 14.75C15.5001 14.3358 15.1643 14 14.7501 14H0.75Z" fill="#1B8354"/>
</svg>
