<svg width="20" height="20" viewBox="0 0 20 20" fill="none" xmlns="http://www.w3.org/2000/svg">
<path fill-rule="evenodd" clip-rule="evenodd" d="M10 3.33329C8.15905 3.33329 6.66667 4.82568 6.66667 6.66663C6.66667 8.50758 8.15905 9.99996 10 9.99996C11.8409 9.99996 13.3333 8.50758 13.3333 6.66663C13.3333 4.82568 11.8409 3.33329 10 3.33329ZM5 6.66663C5 3.9052 7.23858 1.66663 10 1.66663C12.7614 1.66663 15 3.9052 15 6.66663C15 9.42805 12.7614 11.6666 10 11.6666C7.23858 11.6666 5 9.42805 5 6.66663Z" fill="white"/>
<path fill-rule="evenodd" clip-rule="evenodd" d="M4.6967 12.1967C6.10322 10.7902 8.01088 10 10 10C11.9891 10 13.8968 10.7902 15.3033 12.1967C16.7098 13.6032 17.5 15.5109 17.5 17.5C17.5 17.9602 17.1269 18.3333 16.6667 18.3333C16.2064 18.3333 15.8333 17.9602 15.8333 17.5C15.8333 15.9529 15.2188 14.4692 14.1248 13.3752C13.0308 12.2812 11.5471 11.6667 10 11.6667C8.4529 11.6667 6.96917 12.2812 5.87521 13.3752C4.78125 14.4692 4.16667 15.9529 4.16667 17.5C4.16667 17.9602 3.79357 18.3333 3.33333 18.3333C2.8731 18.3333 2.5 17.9602 2.5 17.5C2.5 15.5109 3.29018 13.6032 4.6967 12.1967Z" fill="white"/>
</svg>
