<svg width="15" height="18" viewBox="0 0 15 18" fill="none" xmlns="http://www.w3.org/2000/svg">
<path fill-rule="evenodd" clip-rule="evenodd" d="M3 4.25C3 6.59 4.91 8.5 7.25 8.5C9.59 8.5 11.5 6.59 11.5 4.25C11.5 1.91 9.59 0 7.25 0C4.91 0 3 1.91 3 4.25ZM4.5 4.25C4.5 2.73 5.73 1.5 7.25 1.5C8.77 1.5 10 2.73 10 4.25C10 5.77 8.77 7 7.25 7C5.73 7 4.5 5.77 4.5 4.25ZM13 16.7521C13 17.1621 13.34 17.5021 13.75 17.5021C14.16 17.5021 14.5 17.1621 14.5 16.7521V14.7221C14.5 13.0721 13.69 11.6622 12.37 11.0622C9.3 9.68219 5.21 9.67219 2.13 11.0622C0.810001 11.6622 0 13.0621 0 14.7221V16.7521C0 17.1621 0.34 17.5021 0.75 17.5021C1.16 17.5021 1.5 17.1621 1.5 16.7521V14.7221C1.5 13.8821 1.83 12.8422 2.75 12.4222C5.44 11.2122 9.07 11.2122 11.75 12.4222C12.67 12.8522 13 13.8921 13 14.7221V16.7521Z" fill="#1B8354"/>
</svg>
