<svg version="1.2" xmlns="http://www.w3.org/2000/svg" viewBox="0 0 25 24" width="25" height="24">
	<defs>
		<clipPath clipPathUnits="userSpaceOnUse" id="cp1">
			<path d="m12.6 6.55c1.18 0 2.32 0.47 3.16 1.31 0.83 0.84 1.3 1.98 1.3 3.17 0 1.15-0.46 2.26-1.26 3.09-0.81 0.83-1.91 1.32-3.07 1.35h-0.14c-1.16 0-2.27-0.45-3.1-1.26-0.83-0.81-1.32-1.91-1.35-3.06v-0.15c0-1.18 0.47-2.31 1.31-3.15 0.83-0.84 1.97-1.3 3.15-1.3zm1.12 4.89h-2.24c0.08 1.67 0.67 3.08 1.08 3.17h0.04c0.39 0 0.99-1.37 1.11-3.01zm2.45 0h-1.59c-0.05 1.12-0.3 2.17-0.68 2.92q0.89-0.35 1.5-1.09 0.59-0.75 0.75-1.69zm-7.15 0c0.08 0.65 0.34 1.26 0.73 1.78 0.4 0.51 0.94 0.91 1.54 1.14q-0.59-1.28-0.66-2.7l-0.02-0.22zm2.27-3.79l-0.07 0.03c-0.59 0.24-1.11 0.64-1.5 1.15q-0.59 0.78-0.71 1.75h1.59c0.05-1.06 0.27-2.04 0.61-2.77zm1.29-0.25c-0.4 0-1.02 1.45-1.12 3.17h2.25c-0.09-1.67-0.68-3.07-1.09-3.17zm1.32 0.25l0.01 0.03q0.62 1.38 0.66 2.89h1.59c-0.08-0.64-0.33-1.26-0.73-1.77-0.4-0.51-0.93-0.91-1.53-1.15z"/>
		</clipPath>
	</defs>
	<style>
		.s0 { fill: #1b8354 } 
	</style>
	<path fill-rule="evenodd" class="s0" d="m4.7 2c0.5-0.6 1.3-0.9 2.1-0.9h12q1.2 0 2.1 0.9c0.6 0.5 0.9 1.3 0.9 2.1v16q0 1.2-0.9 2.1-0.9 0.9-2.1 0.9h-12c-0.8 0-1.6-0.3-2.1-0.9q-0.9-0.9-0.9-2.1v-16c0-0.8 0.3-1.6 0.9-2.1zm2.1 1.1q-0.4 0-0.7 0.3-0.3 0.3-0.3 0.7v16q0 0.4 0.3 0.7 0.3 0.3 0.7 0.3h12q0.4 0 0.7-0.3 0.3-0.3 0.3-0.7v-16q0-0.4-0.3-0.7-0.3-0.3-0.7-0.3z"/>
	<path class="s0" d="m12.6 6.5c1.2 0 2.3 0.5 3.2 1.4 0.8 0.8 1.3 1.9 1.3 3.1 0 1.2-0.5 2.3-1.3 3.1-0.8 0.9-1.9 1.3-3.1 1.4h-0.1c-1.2 0-2.3-0.5-3.1-1.3-0.8-0.8-1.3-1.9-1.4-3.1v-0.1c0-1.2 0.5-2.3 1.3-3.1 0.9-0.9 2-1.4 3.2-1.4zm1.1 4.9h-2.2c0.1 1.7 0.7 3.1 1.1 3.2 0.4 0 1-1.4 1.1-3zm2.5 0h-1.6c-0.1 1.1-0.3 2.2-0.7 2.9q0.9-0.3 1.5-1.1 0.6-0.7 0.7-1.7zm-5.5 0h-1.6c0.1 0.7 0.3 1.3 0.7 1.8 0.4 0.5 1 0.9 1.6 1.2q-0.6-1.3-0.7-2.7zm0.7-3.7h-0.1c-0.6 0.2-1.1 0.6-1.5 1.1-0.4 0.5-0.6 1.1-0.7 1.8h1.6c0-1.1 0.3-2.1 0.6-2.8zm1.3-0.2c-0.4 0-1 1.4-1.1 3.1h2.2c-0.1-1.6-0.7-3-1.1-3.1zm1.3 0.2h0.1q0.6 1.4 0.6 2.9h1.6c-0.1-0.6-0.3-1.2-0.7-1.7-0.4-0.6-1-0.9-1.6-1.2z"/>
	<path fill-rule="evenodd" class="s0" d="m17 17v2h-9v-2z"/>
	<g id="Clip-Path" clip-path="url(#cp1)">
		<g>
			<path class="s0" d="m13.9 7.7l0.5-1.3-3.7-1.4 2.1 3.3zm1.8 3.4c0 0.8-0.3 1.6-0.9 2.2l1.9 1.8c1.1-1 1.6-2.5 1.7-4zm-1.9 3.4l-1.2-0.6-1.5 3.1 3.2-1.3zm-2.6 0l-0.5 1.2 3.1 1.3-1.4-3.1zm-1-1c-0.6-0.6-0.9-1.4-0.9-2.2l-2.7 0.1c0.1 1.5 0.7 2.9 1.8 4zm-0.7-2.4c0-0.8 0.3-1.6 0.9-2.2l-1.9-1.9c-1.1 1.1-1.7 2.6-1.7 4.1zm4.2 0.5l1.4 0.1 0.1-1.5h-1.5zm-2.2 0v-1.3h-1.4l0.1 1.4zm1.1 2.7c-0.8 0-1.6-0.3-2.2-0.9l-1.9 1.9c1.1 1.1 2.6 1.6 4.1 1.7zm1.1-4.1h-2.2v2.7h2.2zm2.5 1.3l1.3 0.2 0.2-1.5h-1.5zm-1.6 0v-1.3h-1.3l-0.1 1.2zm0 1.9c-0.5 0.5-1.3 0.9-2.1 0.9l0.1 2.7c1.5-0.1 2.9-0.7 3.9-1.8zm1.6-1.7l1.4 0.2zm-7.2-0.1v-1.4h-1.5l0.2 1.5zm3.6 4.1v1.3zm-2.5-4c0.1 1 0.3 1.9 0.5 2.6q0.2 0.5 0.5 1 0.1 0.2 0.4 0.4c0.1 0.2 0.4 0.4 0.7 0.4l0.6-2.6c0.3 0.1 0.4 0.2 0.5 0.3q0.1 0 0 0 0-0.1-0.2-0.4c-0.1-0.5-0.3-1.1-0.3-1.8zm0.5-0.1l1.3-0.1-0.1-1.2h-1.2zm0.6-3.8l1.2 0.6 1.7-3.2-3.4 1.4zm0.7 3c0-1 0.2-1.8 0.5-2.3l-2.5-1.1c-0.4 0.9-0.6 2-0.7 3.2zm-2.9 0l-1.3-0.2-0.2 1.5h1.5zm1.6 0v1.3h1.2l0.1-1.2zm-0.2-1.8c0.6-0.6 1.4-0.9 2.2-0.9v-2.7c-1.5 0-3 0.6-4.1 1.7zm1.1 1.8l-1.3-0.1-0.1 1.4h1.4zm2.2 0v1.3h1.4v-1.4zm-1.2-2.7c0.9 0 1.7 0.4 2.3 1l1.9-1.9c-1.1-1.1-2.6-1.7-4.1-1.7zm0-1.4v-1.3zm3.8 1.5c-0.5-0.7-1.2-1.3-2.1-1.6l-0.9 2.5q0.6 0.2 0.9 0.7zm-1.9 2.6h-1.3v1.3h1.3zm1.6 0v1.3h1.5l-0.2-1.5zm-3.5-4.5c-0.5 0-0.8 0.2-1 0.4q-0.3 0.2-0.5 0.5-0.3 0.4-0.5 0.9c-0.2 0.8-0.4 1.7-0.5 2.7l2.7 0.1c0-0.7 0.2-1.4 0.3-1.8q0.2-0.3 0.2-0.4 0 0-0.1 0.1c-0.1 0.1-0.3 0.2-0.6 0.2zm2.2 2.7c0.6 0.6 0.9 1.4 0.9 2.3h2.7c0-1.6-0.6-3.1-1.7-4.1zm2.2 2.2h1.4zm-4.1 4.4v1.3zm-0.3-1.2h-0.1v2.6h0.1zm-0.1 1.8c0.4 0 0.8-0.2 1-0.3q0.2-0.2 0.4-0.5 0.3-0.4 0.5-0.9c0.3-0.7 0.5-1.6 0.5-2.5l-2.6-0.2c-0.1 0.7-0.2 1.3-0.4 1.7q-0.1 0.3-0.1 0.4-0.1 0 0.1-0.1c0-0.1 0.3-0.2 0.6-0.2zm-3.2-4.8v-0.2h-2.7v0.2zm-1.1-0.1h-1.4v0.1zm-0.2-0.1h-1.3zm2.6-4.5c-0.8 0.3-1.6 0.9-2.1 1.6l2.1 1.6q0.4-0.5 1-0.8zm4.3 5.3v-0.2l-2.6-0.2-0.1 0.2zm-2.5 1.9q-0.5-1-0.6-2.2l-2.6 0.1q0.1 1.7 0.8 3.2zm0 2.3v-2.6zm0-1.4l-0.3 1.3 0.1 0.1h0.2zm-1.1-2.7h2.3v-2.7h-2.3zm4.7-1.8h-1.6v2.7h1.6zm-2.9 1.2c-0.1 1-0.3 1.9-0.6 2.4l2.4 1.2c0.5-0.9 0.8-2.2 0.8-3.4zm1.2 4.2c0.8-0.3 1.5-0.8 2-1.5l-2-1.7q-0.4 0.5-1 0.7zm2.1-1.5c0.5-0.7 0.9-1.5 1-2.3l-2.6-0.4q-0.1 0.6-0.5 1zm1-2.3v-0.1l-2.6-0.4v0.1zm-6.9-1.7h-1.6v2.7h1.6zm-2.9 1.5c0.1 0.9 0.5 1.7 1 2.4l2.1-1.6q-0.4-0.5-0.4-1.1zm1 2.4c0.5 0.7 1.2 1.2 2.1 1.6l0.9-2.5q-0.5-0.3-0.9-0.8zm1.9-2.1l1.4-0.1zm1.3-0.3v-0.2l-2.7 0.2 0.1 0.2zm-1.4-1.4v2.6zm0.2-3.7l-0.1 0.1 1 2.4h0.1zm0.4 1.4l-1.1-0.6h-0.1zm-2.5 0.2c-0.6 0.7-0.9 1.6-1 2.4l2.7 0.4q0-0.6 0.4-1.1zm0.4 3.8h1.5v-2.6h-1.5zm2.2-4.2l0.5 1.2zm1.1 0.7l0.1-0.1-2.3-1.3-0.1 0.2zm2.6 2.1c-0.1-1-0.2-1.9-0.5-2.6q-0.2-0.5-0.5-1-0.1-0.2-0.4-0.4c-0.1-0.2-0.4-0.4-0.7-0.4l-0.6 2.6c-0.3-0.1-0.4-0.2-0.5-0.3q0.1 0.1 0.2 0.4c0.2 0.4 0.3 1.1 0.3 1.8zm-1.3 1l-1.3-0.1zm-1.1-4.1l0.3-1.3h-0.1-0.2zm0-1.3v2.6zm0.1 2.3h0.1l2.2-1.4zm0-0.1q0.5 1.1 0.5 2.4l2.7-0.1c0-1.2-0.3-2.3-0.8-3.4zm1.9 3.7h1.6v-2.7h-1.6zm2.9-1.5c-0.1-0.9-0.5-1.7-1-2.4l-2.1 1.6q0.4 0.5 0.4 1.2zm-3.5-2.8l1.2-0.5v-0.1l-0.1-0.1z"/>
		</g>
	</g>
</svg>