<svg width="21" height="20" viewBox="0 0 21 20" fill="none" xmlns="http://www.w3.org/2000/svg">
<g clip-path="url(#clip0_123_23523)">
<path fill-rule="evenodd" clip-rule="evenodd" d="M10.2782 0C4.60952 0 0 4.4858 0 10.0004C0 12.1872 0.726816 14.2148 1.95751 15.8636L0.673776 19.5766L4.62278 18.3463C6.24548 19.3905 8.18891 19.9992 10.2782 19.9992C15.9444 19.9992 20.5556 15.5134 20.5556 9.99959C20.5556 4.4858 15.9444 0 10.2782 0Z" fill="#4AC14B"/>
<path fill-rule="evenodd" clip-rule="evenodd" d="M16.0385 12.5441C15.9664 12.4279 15.7758 12.3588 15.4915 12.2199C15.2056 12.0809 13.8017 11.4088 13.5398 11.3162C13.2787 11.2236 13.0865 11.1772 12.8975 11.4552C12.7069 11.7331 12.1599 12.3588 11.9925 12.5441C11.8268 12.7302 11.6602 12.7522 11.3751 12.6132C11.0892 12.4742 10.1684 12.18 9.07863 11.2349C8.23081 10.4979 7.65732 9.58934 7.48991 9.31141C7.32416 9.03349 7.47333 8.88396 7.61505 8.745C7.74351 8.61985 7.90097 8.42075 8.04351 8.25904C8.18689 8.09651 8.23413 7.97949 8.32943 7.79421C8.42474 7.60892 8.3775 7.44721 8.3054 7.30824C8.23496 7.16928 7.66312 5.80241 7.42526 5.24575C7.18907 4.69072 6.95039 4.71103 6.78298 4.71103C6.61557 4.71103 6.30894 4.75979 6.30894 4.75979C6.30894 4.75979 5.73627 4.82887 5.47521 5.10679C5.21415 5.38471 4.47656 6.05677 4.47656 7.42283C4.47656 8.78888 5.49841 10.1111 5.64179 10.2955C5.78516 10.4816 7.61588 13.3779 10.519 14.4896C13.4213 15.6013 13.4213 15.2307 13.9451 15.1836C14.468 15.1381 15.6341 14.5123 15.8719 13.863C16.1098 13.2145 16.1098 12.6579 16.0393 12.5425L16.0385 12.5441Z" fill="white"/>
</g>
<defs>
<clipPath id="clip0_123_23523">
<rect width="20.5556" height="20" fill="white"/>
</clipPath>
</defs>
</svg>
