<svg width="128" height="129" viewBox="0 0 128 129" fill="none" xmlns="http://www.w3.org/2000/svg">
<path fill-rule="evenodd" clip-rule="evenodd" d="M34.6233 72.3077C34.1814 69.4776 33.9542 66.5718 33.9542 63.6164C33.9542 60.7889 34.1609 58.0219 34.5642 55.3341H84.741V38.3605H40.3002C47.902 24.8397 61.9097 15.9041 80.0069 15.9041C101.533 15.9041 116.002 29.511 116.002 29.511L124.648 16.4342C124.648 16.4342 109.297 0 79.3008 0C52.2437 0 30.2219 15.4248 20.8417 38.3605H0V55.3341H16.4618C16.1281 58.0928 15.9566 60.9156 15.9566 63.7933C15.9566 66.6842 16.1208 69.5259 16.4419 72.3077H0V89.2814H20.5977C29.7149 112.837 51.5463 129 79.6536 129C110.885 129 128 109.208 128 109.208L118.649 96.6616C118.649 96.6616 103.651 112.919 80.1831 112.919C62.1498 112.919 48.0041 103.334 40.3271 89.2814H84.741V72.3077H34.6233Z" fill="white"/>
</svg>
