<svg width="28" height="28" viewBox="0 0 28 28" fill="none" xmlns="http://www.w3.org/2000/svg">
<path fill-rule="evenodd" clip-rule="evenodd" d="M7.52645 15.6947C7.4304 15.0804 7.381 14.4497 7.381 13.8082C7.381 13.1945 7.42595 12.5939 7.51362 12.0105H18.4211V8.32631H8.76051C10.413 5.39156 13.458 3.45205 17.392 3.45205C22.0714 3.45205 25.2166 6.40548 25.2166 6.40548L27.0961 3.56712C27.0961 3.56712 23.7591 0 17.2385 0C11.3568 0 6.56967 3.34802 4.53059 8.32631H0V12.0105H3.57849C3.50594 12.6093 3.46867 13.222 3.46867 13.8466C3.46867 14.4741 3.50437 15.0909 3.57416 15.6947H0V19.3789H4.47755C6.45947 24.4917 11.2052 28 17.3152 28C24.1043 28 27.8248 23.7041 27.8248 23.7041L25.792 20.9808C25.792 20.9808 22.5317 24.5096 17.4303 24.5096C13.5102 24.5096 10.4352 22.429 8.76636 19.3789H18.4211V15.6947H7.52645Z" fill="#494B90"/>
</svg>
