<svg width="30" height="22" viewBox="0 0 30 22" fill="none" xmlns="http://www.w3.org/2000/svg">
<path d="M26.6667 0H3.33333C1.4925 0 0 1.4925 0 3.33333V18.3333C0 20.1742 1.4925 21.6667 3.33333 21.6667H26.6667C28.5075 21.6667 30 20.1742 30 18.3333V3.33333C30 1.4925 28.5075 0 26.6667 0Z" fill="#006C35"/>
<path d="M7.43188 7.54201C7.95854 7.59201 7.66771 6.65117 7.85854 6.48034C7.89438 6.39617 7.96105 6.39534 7.96605 6.50201V7.30034C7.96105 7.56034 8.13188 7.63617 8.26438 7.69034C8.40271 7.67951 8.49438 7.68451 8.54854 7.81867L8.61354 9.20034C8.61354 9.20034 8.93355 9.29201 8.94855 8.42284C8.96438 7.91284 8.84688 7.48617 8.91604 7.38701C8.91854 7.28951 9.04271 7.28367 9.12938 7.33117C9.26688 7.42784 9.32855 7.54784 9.54188 7.50034C9.86771 7.41117 10.0627 7.25284 10.0677 7.00284C10.0485 6.76534 10.0219 6.52784 9.91938 6.29034C9.93355 6.24701 9.85688 6.13534 9.87104 6.09201C9.92938 6.18367 10.0185 6.17617 10.0385 6.09201C9.98354 5.90951 9.89771 5.73451 9.75771 5.65867C9.64271 5.55701 9.47438 5.57784 9.41271 5.78951C9.38438 6.03284 9.50104 6.32284 9.67771 6.55867C9.71521 6.65117 9.76854 6.80451 9.74521 6.94284C9.65104 6.99617 9.55604 6.97451 9.47771 6.89117C9.47771 6.89117 9.21854 6.69701 9.21854 6.65367C9.28771 6.21367 9.23438 6.16367 9.19604 6.04201C9.16938 5.87367 9.08938 5.81951 9.02438 5.70451C8.95938 5.63617 8.87188 5.63617 8.83021 5.70451C8.71521 5.90284 8.76854 6.32951 8.85188 6.52034C8.91104 6.69534 9.00271 6.80617 8.95938 6.80617C8.92354 6.90534 8.85021 6.88201 8.79688 6.76784C8.72021 6.53117 8.70521 6.17867 8.70521 6.01951C8.68188 5.82284 8.65688 5.40201 8.52771 5.29534C8.44855 5.18784 8.33105 5.23951 8.29021 5.33867C8.28188 5.53367 8.28021 5.72951 8.30271 5.91034C8.39104 6.22617 8.41938 6.50451 8.46271 6.82867C8.47438 7.26284 8.21188 7.01701 8.22355 6.80201C8.28438 6.52284 8.26855 6.08284 8.21438 5.97117C8.17188 5.86034 8.12104 5.83201 8.01771 5.85034C7.93604 5.84367 7.72438 6.07534 7.66438 6.45867C7.66438 6.45867 7.61355 6.65617 7.59188 6.83201C7.56271 7.03034 7.43271 7.17034 7.34105 6.80451C7.26188 6.53867 7.21355 5.88284 7.08105 6.03617C7.04271 6.54867 6.99688 7.45034 7.43188 7.54201Z" fill="white"/>
<path d="M8.22438 7.91617C7.79104 7.92451 7.15688 8.48534 7.13938 8.79617C7.59604 8.57617 8.04521 8.36451 8.51021 8.13784C8.43521 8.02534 8.50604 7.92451 8.22438 7.91617Z" fill="white"/>
<path d="M10.6135 9.59701C10.8144 8.92784 10.581 8.43451 10.6902 8.43701C10.921 8.68617 11.2444 8.47034 11.3152 8.38367C11.346 8.34034 11.4219 8.31201 11.4752 8.36867C11.656 8.49867 11.9744 8.43701 12.0402 8.20867C12.0785 7.98534 12.1094 7.75367 12.1169 7.51451C11.9694 7.56034 11.8594 7.59117 11.8494 7.65201L11.8185 7.85034C11.806 7.91451 11.6785 7.91701 11.6735 7.83534C11.6177 7.58117 11.386 7.54784 11.246 7.94201C11.1519 8.01867 10.9819 8.03367 10.9635 7.91951C10.986 7.65534 10.8794 7.61951 10.666 7.74367C10.5977 7.21951 10.5285 6.71867 10.4602 6.19451C10.5494 6.19201 10.631 6.25784 10.7119 6.15617C10.6227 5.87867 10.4344 5.31201 10.3302 5.27117C10.2794 5.20951 10.236 5.24784 10.1702 5.26367C10.0585 5.29951 9.95438 5.39617 9.98688 5.58367C10.1194 6.38784 10.206 7.00034 10.3377 7.80451C10.3577 7.89867 10.2794 8.02284 10.1777 8.01034C10.0052 7.89367 9.96188 7.65701 9.66688 7.66701C9.45271 7.66951 9.20854 7.90117 9.17854 8.12534C9.14271 8.30284 9.13021 8.49617 9.17854 8.65201C9.32854 8.83201 9.50938 8.81451 9.66688 8.77367C9.79604 8.72034 9.90354 8.59034 9.94854 8.62117C9.97938 8.65867 9.95604 9.08617 9.33854 9.41451C8.96438 9.58201 8.66688 9.62034 8.50688 9.31534C8.40771 9.12451 8.51438 8.39951 8.27021 8.56784C7.54771 10.4303 9.96188 10.6887 10.2319 8.64451C10.2577 8.56034 10.3594 8.47617 10.3769 8.61367C10.321 10.4653 8.50938 10.5928 8.20188 10.0103C8.12521 9.87284 8.10271 9.56784 8.09521 9.38451C8.04938 9.02034 7.85855 9.16034 7.82855 9.52117C7.79771 9.72201 7.80604 9.77867 7.80604 9.97117C7.90188 11.4337 10.2352 10.8053 10.6135 9.59701ZM9.71354 8.33201C9.69854 8.36034 9.63271 8.34867 9.58438 8.34867C9.52938 8.34617 9.50354 8.33701 9.47021 8.29284C9.45521 8.24284 9.50188 8.19534 9.52271 8.15784C9.54855 8.11367 9.68771 8.06784 9.73688 8.19117C9.75855 8.24701 9.73938 8.30451 9.71354 8.33201Z" fill="white"/>
<path d="M11.3344 6.67451C11.4794 6.62117 12.1669 5.83534 12.1669 5.83534C12.131 5.80451 12.0994 5.78201 12.0635 5.75117C12.0252 5.71784 12.0294 5.68451 12.0635 5.65201C12.2335 5.55284 12.1794 5.33534 12.0902 5.23617C11.9427 5.16951 11.8144 5.19117 11.7202 5.23951C11.601 5.35367 11.5727 5.53701 11.6669 5.65201C11.7585 5.69534 11.8502 5.78784 11.7894 5.83867C11.5085 6.13867 10.7385 6.65617 10.8277 6.67451C10.8469 6.69951 11.3194 6.69867 11.3344 6.67451ZM11.8435 5.44034C11.8877 5.42951 11.9444 5.46867 11.971 5.52701C11.9977 5.58534 11.9835 5.64117 11.9402 5.65201H11.9385C11.8952 5.66284 11.8385 5.62367 11.8119 5.56534C11.786 5.50617 11.8002 5.45117 11.8435 5.44034ZM7.38438 10.2153C7.27105 10.4462 7.22354 10.2878 7.21354 10.1587C7.19604 9.91367 7.21938 9.68784 7.24605 9.50951C7.27438 9.32617 7.24605 9.38201 7.18771 9.45617C6.93021 9.86617 6.90771 10.4795 7.05021 10.662C7.12521 10.7487 7.24938 10.787 7.34188 10.7587C7.50355 10.6887 7.57438 10.3603 7.53605 10.2412C7.48105 10.157 7.43855 10.1437 7.38438 10.2153ZM15.8685 5.87534C16.1652 6.27367 16.4469 6.67951 16.7227 7.09284C16.7769 7.45117 16.816 7.80117 16.8394 8.14867C16.8852 8.81867 16.8985 9.54367 16.8569 10.2495C16.9819 10.2545 17.1844 10.0462 17.2544 9.74201C17.3002 9.32117 17.2377 8.57201 17.2335 8.32367C17.2294 8.19117 17.221 8.02867 17.211 7.85701C17.5394 8.39367 17.8594 8.95534 18.1719 9.57951C18.286 9.52617 18.261 8.88784 18.1944 8.79784C17.9444 8.26201 17.6002 7.73201 17.4902 7.52867C17.4494 7.45367 17.3102 7.24034 17.1444 6.99617C17.1185 6.71617 17.0927 6.48951 17.0744 6.41451C17.0227 6.05784 17.2219 6.45367 17.1944 6.24617C17.1302 5.88951 16.9319 5.64867 16.7002 5.32201C16.6252 5.21617 16.6277 5.19451 16.5119 5.34784C16.4635 5.45701 16.4544 5.55117 16.4569 5.64034C16.4269 5.59617 16.3935 5.55034 16.341 5.48617C16.1402 5.31367 16.1285 5.30367 15.9619 5.16284C15.8777 5.10284 15.6727 4.99451 15.636 5.17451C15.6177 5.33367 15.6277 5.41951 15.6544 5.55284C15.676 5.64201 15.8052 5.79034 15.8685 5.87534ZM16.4852 5.85534C16.501 5.92451 16.5177 5.99367 16.5285 6.06451L16.541 6.13201C16.4919 6.06534 16.451 6.01034 16.4319 5.98867C16.2952 5.82701 16.4085 5.86201 16.4852 5.85534Z" fill="white"/>
<path d="M18.2652 9.74451C17.9752 10.047 17.5569 10.4195 17.1019 10.592C17.0527 10.647 17.2235 10.8828 17.4435 10.8828C17.8127 10.8395 18.1377 10.632 18.4385 10.0862C18.5194 9.95951 18.661 9.68701 18.6644 9.47534C18.6919 8.23701 18.6027 7.27284 18.4169 6.37784C18.4044 6.29117 18.4119 6.18867 18.4269 6.16201C18.4502 6.13367 18.5319 6.16201 18.5752 6.09201C18.6377 6.02701 18.4077 5.49367 18.276 5.28867C18.2294 5.19701 18.2135 5.13534 18.136 5.29951C18.0544 5.43284 18.0002 5.66534 18.0069 5.88201C18.1827 7.10117 18.2369 8.16867 18.3519 9.38784C18.361 9.50534 18.3435 9.67701 18.2652 9.74451ZM23.1235 6.65284C23.111 6.56617 23.0727 6.36451 23.0877 6.33867C23.111 6.27701 23.2319 6.34534 23.2752 6.27451C23.3385 6.21034 22.9635 5.72867 22.8327 5.52367C22.7852 5.43201 22.7694 5.37034 22.6919 5.53451C22.6102 5.66784 22.5819 5.90701 22.6144 6.11701C22.8102 7.44117 22.956 8.43617 22.986 9.61034C22.9685 9.72201 22.9652 9.78201 22.9127 9.92201C22.7969 10.0703 22.6694 10.2553 22.5485 10.3453C22.4285 10.4345 22.1727 10.5203 22.0885 10.5862C21.8244 10.7403 21.8235 10.9162 22.0385 10.922C22.4069 10.8787 22.8435 10.8487 23.1444 10.3937C23.2252 10.267 23.321 9.92284 23.3252 9.71117C23.3527 8.47284 23.3094 7.54784 23.1235 6.65284ZM20.331 7.68367C20.3344 7.51367 20.3502 7.28867 20.3594 7.14784C20.3635 7.09534 20.376 7.03617 20.426 7.02284C20.4769 7.00951 20.5669 7.07451 20.5677 7.01951C20.5577 6.91201 20.536 6.75201 20.4752 6.67617C20.3919 6.55284 20.171 6.58284 20.1319 6.77617C20.1327 6.84784 20.1652 6.88617 20.1594 6.95117C20.1494 6.98784 20.111 7.01284 20.0202 6.96951C20.0352 6.95617 19.961 6.85367 19.961 6.85367C19.8902 6.81034 19.7952 6.85617 19.7344 6.89534C19.7002 6.95701 19.676 7.06284 19.7144 7.17034C19.8144 7.35951 20.1635 7.68034 20.331 7.68367Z" fill="white"/>
<path d="M20.2135 6.23451C20.4577 6.53367 20.7069 6.83701 20.9577 7.14534C21.0119 7.83367 21.026 8.39701 21.0794 9.08534C21.0719 9.37701 20.9819 9.63117 20.896 9.66784C20.896 9.66784 20.7669 9.74284 20.6802 9.66034C20.6169 9.6345 20.3644 9.23951 20.3644 9.23951C20.2352 9.12117 20.1502 9.15451 20.0585 9.23951C19.8052 9.48367 19.691 9.94201 19.5194 10.257C19.4744 10.3278 19.3494 10.3878 19.2102 10.252C18.8577 9.76951 19.0644 9.08367 19.021 9.26034C18.7069 9.61451 18.8452 10.2003 18.916 10.327C19.0194 10.5337 19.1035 10.667 19.3052 10.7695C19.4885 10.9045 19.6319 10.8195 19.7102 10.7253C19.8952 10.5328 19.8977 10.0453 19.9844 9.94701C20.0444 9.76951 20.1985 9.79951 20.2727 9.87867C20.3452 9.98201 20.4302 10.0487 20.5352 10.1062C20.7077 10.2587 20.9135 10.2862 21.116 10.147C21.2544 10.0695 21.3452 9.96867 21.426 9.76951C21.516 9.52951 21.4669 8.42617 21.4485 7.76451C21.5777 7.93117 21.7035 8.10534 21.831 8.27951C21.8869 8.83201 21.9185 9.38201 21.9002 9.94367C21.8869 10.0562 22.2919 9.61034 22.2885 9.39867C22.2869 9.22784 22.2885 9.07284 22.2885 8.92701C22.4835 9.22034 22.6735 9.52284 22.8519 9.84284C22.9635 9.78451 22.9269 9.15534 22.856 9.06867C22.6502 8.72367 22.376 8.36451 22.1869 8.10784C22.1744 8.07534 22.1677 8.03867 22.1527 8.00784C22.0769 7.83201 22.1244 7.69034 22.0885 7.50367C22.0535 7.31617 22.0627 7.03617 22.0085 6.81367C21.9935 6.72701 21.9485 6.44867 21.9619 6.42284C21.9835 6.36034 22.0669 6.42451 22.1077 6.35284C22.1685 6.28617 21.8969 5.58201 21.7585 5.38034C21.7085 5.29034 21.6185 5.32117 21.5069 5.46784C21.4044 5.56451 21.4427 5.78451 21.4819 5.99367C21.5794 6.50034 21.661 6.98617 21.731 7.46701C21.5969 7.28784 21.4344 7.07617 21.2769 6.87284L21.2702 6.83617C21.2702 6.82701 21.2477 6.39951 21.2277 6.29784C21.2244 6.25701 21.2144 6.24451 21.2577 6.24951C21.3035 6.28784 21.3094 6.29034 21.3385 6.30367C21.3852 6.31201 21.426 6.23284 21.3985 6.16034L20.9677 5.36701C20.9335 5.33284 20.8885 5.29617 20.8344 5.37617C20.7819 5.42201 20.726 5.50534 20.7277 5.61201C20.741 5.79951 20.7735 5.99117 20.786 6.17951L20.8044 6.28117C20.7852 6.25867 20.7619 6.23034 20.7519 6.22034C20.386 5.83534 20.9202 6.15784 20.6819 5.86034C20.4802 5.63867 20.4219 5.56951 20.2485 5.43617C20.1619 5.38034 20.1094 5.27367 20.081 5.45534C20.0702 5.61451 20.0585 5.80034 20.0685 5.93451C20.0685 6.01117 20.146 6.15117 20.2135 6.23451ZM12.796 7.13367C13.006 7.22034 13.1402 6.82034 13.2269 6.38201C13.2852 6.25867 13.3302 6.24534 13.3602 6.30867C13.3527 6.89201 13.4019 7.02117 13.5519 7.19867C13.886 7.45701 14.1627 7.23117 14.1852 7.20951L14.4452 6.94951C14.5027 6.88867 14.5802 6.88451 14.6619 6.93867C14.7419 7.01034 14.731 7.13534 14.901 7.22201C15.0444 7.27951 15.351 7.23534 15.4219 7.11201C15.5177 6.94867 15.541 6.89201 15.5844 6.83034C15.6527 6.73951 15.7694 6.78034 15.7694 6.80867C15.7585 6.85951 15.6902 6.91034 15.7369 7.00117C15.8185 7.06201 15.8369 7.02284 15.8852 7.00951C16.0552 6.92784 16.1819 6.55951 16.1819 6.55951C16.1894 6.42201 16.1127 6.43367 16.0627 6.46201C15.9977 6.50117 15.9935 6.51451 15.9285 6.55451C15.8452 6.56701 15.6844 6.62201 15.6052 6.49867C15.5235 6.35034 15.5219 6.14367 15.4602 5.99451C15.4602 5.98367 15.3519 5.75867 15.4527 5.74451C15.5035 5.75367 15.611 5.78201 15.6285 5.69201C15.681 5.60367 15.5144 5.35201 15.401 5.22451C15.3019 5.11617 15.1644 5.10284 15.0319 5.21367C14.9385 5.29951 14.9519 5.39451 14.9335 5.48534C14.9102 5.58867 14.9152 5.71701 15.021 5.85451C15.1135 6.03701 15.2827 6.27284 15.2269 6.60284C15.2269 6.60284 15.1285 6.75951 14.956 6.73951C14.8844 6.72367 14.7677 6.69284 14.706 6.23451C14.6594 5.88701 14.7177 5.40117 14.5702 5.17367C14.5169 5.03617 14.4785 4.90367 14.3485 5.13867C14.3135 5.23117 14.1635 5.37117 14.2727 5.66034C14.3619 5.84284 14.3977 6.14034 14.3577 6.47201C14.296 6.56617 14.2827 6.59784 14.2019 6.69201C14.0885 6.81367 13.966 6.78284 13.8719 6.73701C13.7835 6.67784 13.7152 6.64701 13.6752 6.45867C13.6827 6.15867 13.6994 5.66701 13.6444 5.56284C13.5635 5.40117 13.4302 5.45951 13.3727 5.50867C13.0985 5.75951 12.9635 6.18201 12.881 6.51784C12.8052 6.76284 12.7244 6.69284 12.6677 6.59367C12.5294 6.46367 12.5202 5.44951 12.3527 5.61701C12.0835 6.37867 12.5044 7.21534 12.796 7.13367Z" fill="white"/>
<path d="M16.7802 8.77034L16.7002 8.72451L15.1327 8.71701C15.0519 8.68617 15.076 8.65951 15.1327 8.63784C15.5069 8.58701 16.1727 8.47867 16.2169 7.83951C16.2094 7.50701 16.0735 7.28867 15.6652 7.22867C15.366 7.25201 15.1519 7.54284 15.186 7.86201C15.1719 7.94867 15.2144 8.11701 15.1269 8.13617C14.551 8.18867 13.9235 8.54867 13.9027 8.80701C13.8677 8.83117 13.7894 8.76117 13.7994 8.65117C13.7777 8.20534 13.631 7.70117 13.4035 7.31284C13.2219 7.13117 13.2785 7.19117 13.1569 7.27701C13.0785 7.36701 13.0644 7.42867 13.0685 7.60784C13.0685 7.61451 13.2152 8.02367 13.3394 8.31034C13.4219 8.60451 13.4994 8.94034 13.4435 9.25784C13.2502 9.67784 12.861 10.0545 12.486 10.2587C12.2927 10.3212 12.1269 10.2987 12.086 10.2553C11.9669 10.1753 11.9727 10.0278 11.9819 10.0253C12.2977 9.80451 12.6594 9.62701 12.9427 9.03284C13.026 8.80617 13.051 8.66867 12.9685 8.31784C12.936 8.18617 12.8944 8.07951 12.8044 7.98617C12.8552 7.95284 13.001 8.06367 13.0235 7.99784C12.9902 7.82951 12.876 7.60451 12.7477 7.48951C12.6352 7.38701 12.5127 7.37534 12.4094 7.46951C12.2927 7.53451 12.2677 7.76617 12.3235 7.96951C12.3852 8.12284 12.5527 8.14867 12.6727 8.45617C12.6727 8.46284 12.716 8.68617 12.6544 8.77367C12.6052 8.92701 11.9677 9.42784 11.9327 9.45034C11.9152 9.47201 11.9227 9.43951 11.9202 9.35617C11.916 9.25451 11.961 9.01451 11.9485 9.01284C11.741 9.14701 11.6719 9.55784 11.6344 9.67951C11.1094 10.042 10.5152 10.312 10.1719 10.6803C9.99271 10.9595 11.4035 10.3595 11.5677 10.287C11.6044 10.3137 11.6002 10.4395 11.6985 10.552C11.8452 10.7503 12.1552 10.8728 12.4594 10.797C12.9677 10.6128 13.2619 10.2662 13.5602 9.88201C13.6027 9.81951 13.6694 9.77201 13.731 9.81951C13.936 10.2787 14.5285 10.6037 15.2927 10.6378C15.4702 10.422 15.3844 10.3178 15.3127 10.2728C15.3127 10.2662 14.9352 10.1228 14.8777 9.97951C14.8427 9.84951 14.9277 9.73534 15.0977 9.64867C15.5885 9.58951 16.071 9.52367 16.5385 9.37367C16.5435 9.21701 16.6344 8.98201 16.6969 8.88034C16.7569 8.77701 16.7894 8.80784 16.7802 8.77034ZM15.491 7.79367C15.5144 7.75451 15.5919 7.75617 15.6644 7.79867C15.7369 7.84034 15.7777 7.90701 15.7535 7.94617C15.7302 7.98617 15.6519 7.98367 15.5794 7.94117C15.5069 7.89951 15.4677 7.83367 15.491 7.79367ZM14.8602 9.37701C14.6919 9.43451 14.5302 9.47951 14.5302 9.72284C14.5927 10.0612 14.4444 9.94534 14.3569 9.89867C14.2535 9.82451 13.9627 9.64534 13.921 9.25867C13.9144 9.16617 13.9869 9.08867 14.1027 9.08867C14.2769 9.13617 14.5344 9.13951 14.7577 9.16284C14.9402 9.17451 15.031 9.31784 14.8602 9.37701ZM9.05438 5.62284C9.23438 5.70951 9.57438 5.67284 9.55938 5.38117C9.55938 5.35534 9.55271 5.26867 9.55021 5.24534C9.51355 5.15951 9.41355 5.18034 9.39021 5.26951C9.38271 5.29867 9.40271 5.34534 9.37688 5.36034C9.36188 5.37534 9.30438 5.36617 9.30688 5.28617C9.30688 5.26034 9.28771 5.23284 9.27688 5.21701C9.26521 5.20951 9.25855 5.20701 9.23771 5.20701C9.21271 5.20784 9.21271 5.21451 9.19938 5.23617C9.19354 5.25701 9.18521 5.27867 9.18521 5.30284C9.18188 5.33117 9.17104 5.34117 9.15021 5.34617C9.12688 5.34617 9.13188 5.34867 9.11355 5.33617C9.10188 5.32367 9.08771 5.31867 9.08771 5.29784C9.08771 5.27617 9.08271 5.24117 9.07605 5.22617C9.06605 5.21284 9.05021 5.20701 9.03188 5.20201C8.93355 5.20201 8.92688 5.31451 8.93271 5.35784C8.92354 5.36534 8.92021 5.56701 9.05438 5.62284Z" fill="white"/>
<path d="M14.5927 7.52284C14.5927 7.49701 14.5735 7.47034 14.5627 7.45367C14.551 7.44617 14.5444 7.44367 14.5235 7.44367C14.4985 7.44451 14.4994 7.45117 14.4852 7.47284C14.4794 7.49451 14.471 7.51534 14.471 7.53951C14.4685 7.56867 14.4569 7.57867 14.436 7.58284C14.4127 7.58284 14.4177 7.58534 14.3985 7.57367C14.3869 7.56117 14.3727 7.55617 14.3727 7.53534C14.3727 7.51367 14.3677 7.47784 14.361 7.46367C14.351 7.45034 14.3352 7.44451 14.3169 7.44034C14.2185 7.44034 14.2119 7.55284 14.2169 7.59534C14.2094 7.60367 14.2052 7.80451 14.3394 7.86117C14.5202 7.94701 14.9494 7.89701 14.8444 7.61951C14.8444 7.59367 14.8377 7.50701 14.8352 7.48284C14.7985 7.39701 14.6977 7.41867 14.6752 7.50701C14.6685 7.53617 14.6885 7.58284 14.6619 7.59784C14.6485 7.61284 14.5902 7.60367 14.5927 7.52284ZM17.4235 6.93367C17.6035 7.02034 17.9427 6.98367 17.9277 6.69284C17.9277 6.66701 17.921 6.58034 17.9185 6.55617C17.8819 6.47034 17.7819 6.49201 17.7594 6.58034C17.7519 6.60951 17.7719 6.65617 17.7452 6.67117C17.7302 6.68617 17.6727 6.67784 17.6752 6.59701C17.6752 6.57117 17.656 6.54367 17.6452 6.52784C17.6335 6.52034 17.6269 6.51784 17.6052 6.51784C17.5802 6.51951 17.581 6.52534 17.5669 6.54701C17.561 6.56867 17.5527 6.58951 17.5527 6.61367C17.5494 6.64284 17.5385 6.65284 17.5177 6.65701C17.4944 6.65701 17.4994 6.65951 17.4802 6.64784C17.4685 6.63534 17.4552 6.63034 17.4552 6.60951C17.4552 6.58784 17.4502 6.55201 17.4435 6.53701C17.4327 6.52367 17.4177 6.51784 17.3985 6.51367C17.3002 6.51367 17.2935 6.62617 17.2994 6.66867C17.2935 6.67701 17.2894 6.87784 17.4235 6.93367ZM17.5452 5.80701C17.6094 5.98701 17.496 6.15867 17.5635 6.18367C17.6244 6.21201 17.711 5.99784 17.7427 5.80034C17.7802 5.64034 17.666 5.31284 17.5044 5.24534C17.406 5.22201 17.266 5.28034 17.311 5.41201C17.2885 5.47534 17.5094 5.69034 17.5452 5.80701ZM19.2077 10.027C19.3335 10.0278 19.4785 9.73951 19.5402 9.45367C19.5744 9.06034 19.5169 8.82117 19.5069 8.58951C19.496 8.35867 19.246 6.59617 19.1944 6.42117C19.1335 6.09034 19.4385 6.37701 19.4052 6.18451C19.2994 5.94201 19.0369 5.58951 18.9535 5.37867C18.9035 5.28867 18.9252 5.20867 18.8135 5.35534C18.711 5.69284 18.6752 5.96784 18.7144 6.17784C18.9794 7.56117 19.251 8.71117 19.2077 10.027ZM22.3377 6.41034C22.3669 6.50034 22.2935 6.79117 22.3544 6.81784C22.4102 6.84784 22.4885 6.61701 22.5177 6.40284C22.5335 6.28534 22.4477 5.87534 22.3002 5.80201C22.2102 5.77701 22.0827 5.83951 22.1244 5.98284C22.1035 6.05201 22.3052 6.28367 22.3377 6.41034ZM11.4052 9.45701C11.4594 9.47951 11.5335 9.30951 11.5619 9.15201C11.5777 9.06534 11.4944 8.76451 11.3535 8.71034C11.2669 8.69201 11.1485 8.71534 11.1852 8.84367C11.181 8.91284 11.3769 8.99617 11.3885 9.15701C11.4169 9.22367 11.3469 9.43784 11.4052 9.45701ZM7.60854 5.61117C7.63604 5.68034 7.58105 5.90117 7.63855 5.92201C7.69105 5.94534 7.76521 5.76867 7.79271 5.60617C7.80855 5.51617 7.79605 5.21117 7.58771 5.14867C7.50188 5.12951 7.38271 5.17701 7.42188 5.28617C7.40188 5.33784 7.57771 5.51451 7.60854 5.61117ZM11.6935 6.58867C11.5344 6.67534 11.4719 6.93201 11.5719 7.08117C11.6644 7.21367 11.811 7.16451 11.831 7.16451C11.9877 7.18367 12.0802 6.87117 12.0802 6.87117C12.0802 6.87117 12.0852 6.78367 11.8994 6.94951C11.821 6.96451 11.811 6.93534 11.7919 6.89034C11.7752 6.80951 11.7785 6.72784 11.816 6.64701C11.8427 6.56951 11.7827 6.53534 11.6935 6.58867ZM12.8952 5.62784C12.9544 5.58451 12.9744 5.55617 12.9935 5.48284C13.0177 5.36117 12.8644 5.54034 12.8452 5.40451C12.811 5.27867 12.9094 5.22701 13.0027 5.10534C13.006 5.02117 13.0044 4.96201 12.8902 5.03034C12.8102 5.08451 12.6502 5.24951 12.6452 5.43951C12.6402 5.54701 12.6202 5.54617 12.691 5.61451C12.7419 5.68867 12.7927 5.68117 12.8952 5.62784ZM13.9777 5.69284C14.081 5.41284 14.081 5.29451 14.0885 5.17534C14.0569 4.99451 13.9344 5.00034 13.8535 5.20117C13.8185 5.27701 13.7777 5.67617 13.7844 5.67617C13.7569 5.79534 13.9085 5.84617 13.9777 5.69284ZM20.786 7.67867C20.786 7.67867 19.9502 8.27284 19.9302 8.29367C19.8469 8.36701 19.8885 8.62701 19.9302 8.59701C19.9894 8.62034 20.8302 8.04951 20.8135 7.98284C20.8527 7.98451 20.8719 7.64867 20.786 7.67867ZM20.6835 9.29034C20.7394 9.32034 20.8869 9.13784 20.881 8.91034C20.8977 8.79284 20.8385 8.36201 20.6919 8.28867C20.6019 8.26367 20.4819 8.34034 20.5235 8.48284C20.5027 8.55117 20.6269 8.79034 20.6594 8.91701C20.6885 9.00784 20.6227 9.26367 20.6835 9.29034ZM15.9502 10.537C15.9502 10.5445 16.021 10.6053 16.1044 10.557C16.2794 10.4895 16.3894 10.4245 16.6344 10.3703C16.6985 10.3695 16.6944 10.197 16.5927 10.1912C16.4602 10.1978 16.3369 10.2045 16.2044 10.3095C16.1227 10.3278 16.1094 10.2787 16.091 10.2337C16.071 10.1228 16.1369 10.0462 16.1227 9.96367C16.1277 9.96867 16.0469 9.89451 15.9644 9.93617C15.9602 9.93617 15.7802 10.0578 15.7227 10.1428C15.6869 10.1703 15.691 10.1937 15.7019 10.2395C15.7294 10.3028 15.7785 10.2837 15.8335 10.2537C15.9069 10.2437 15.9419 10.292 15.936 10.3795C15.901 10.4903 15.9502 10.5312 15.9502 10.537ZM21.4094 10.6753C21.3819 10.7228 21.3635 10.7945 21.4485 10.817C21.6052 10.8612 21.966 10.6262 21.966 10.622C22.0244 10.5778 22.0052 10.4953 22.0002 10.4953C21.966 10.4562 21.8894 10.4787 21.8377 10.4728C21.8135 10.4728 21.7319 10.4603 21.771 10.3887C21.8027 10.3445 21.8144 10.317 21.836 10.2628C21.8602 10.2087 21.8394 10.1728 21.751 10.1437C21.6619 10.127 21.626 10.1353 21.5269 10.1437C21.4735 10.1553 21.4552 10.1787 21.4452 10.2437C21.4494 10.342 21.5085 10.337 21.5702 10.3762C21.606 10.422 21.6294 10.4637 21.5677 10.5378C21.5094 10.592 21.4685 10.622 21.4094 10.6753ZM21.2494 15.0003H19.9994V14.5837C19.9994 14.3537 19.8127 14.167 19.5827 14.167C19.3527 14.167 19.166 14.3537 19.166 14.5837V15.0003H9.16605C9.16605 15.0003 9.16604 15.8337 11.666 15.8337H19.166V16.2503C19.166 16.4803 19.3527 16.667 19.5827 16.667C19.8127 16.667 19.9994 16.4803 19.9994 16.2503V15.8337H20.8327V16.2503C20.8327 16.4803 21.0194 16.667 21.2494 16.667C21.4794 16.667 21.666 16.4803 21.666 16.2503V15.417C21.666 15.187 21.4794 15.0003 21.2494 15.0003Z" fill="white"/>
</svg>
