<?xml version="1.0" standalone="no"?>
<!DOCTYPE svg PUBLIC "-//W3C//DTD SVG 20010904//EN"
 "http://www.w3.org/TR/2001/REC-SVG-20010904/DTD/svg10.dtd">
<svg version="1.0" xmlns="http://www.w3.org/2000/svg"
 width="1453.000000pt" height="906.000000pt" viewBox="0 0 1453.000000 906.000000"
 preserveAspectRatio="xMidYMid meet">

<g transform="translate(0.000000,906.000000) scale(0.100000,-0.100000)"
fill="#000000" stroke="none">
<path d="M0 9012 c0 -4 103 -111 230 -237 l230 -230 0 -420 0 -420 242 -242
243 -243 -473 0 c-259 0 -472 -3 -472 -8 0 -4 103 -111 230 -237 l230 -230 0
-420 0 -420 242 -242 243 -243 -473 0 c-259 0 -472 -3 -472 -8 0 -4 103 -111
230 -237 l230 -230 0 -420 0 -420 242 -242 243 -243 -473 0 c-259 0 -472 -3
-472 -8 0 -4 103 -111 230 -237 l230 -230 0 -420 0 -420 242 -242 243 -243
-473 0 c-259 0 -472 -3 -472 -8 0 -4 103 -111 230 -237 l230 -230 0 -420 0
-420 242 -242 243 -243 237 237 238 238 0 420 0 420 242 242 243 243 -480 0
-480 0 238 238 237 237 0 420 0 420 242 242 243 243 -480 0 -480 0 238 238
237 237 0 420 0 420 242 242 243 243 -480 0 -480 0 238 238 237 237 0 420 0
420 242 242 243 243 -480 0 -480 0 238 238 237 237 0 420 0 420 242 242 243
243 -953 0 c-523 0 -952 -3 -952 -8z"/>
<path d="M2153 8782 l237 -237 0 -420 0 -420 240 -240 240 -240 240 240 240
240 0 415 0 415 242 242 243 243 -960 0 -960 0 238 -238z"/>
<path d="M4082 8783 l238 -238 2 -428 c2 -235 0 -427 -3 -427 -21 0 -160 60
-255 109 -174 92 -360 214 -550 364 -12 10 -25 14 -27 10 -11 -19 -47 -166
-63 -258 -19 -111 -26 -479 -11 -617 l9 -78 -754 0 -753 0 238 -238 237 -237
0 -420 0 -420 240 -240 240 -240 240 240 240 240 0 415 0 415 79 79 79 79 16
-38 c11 -25 21 -35 31 -32 8 4 61 37 117 75 112 74 264 167 292 178 14 5 57
-32 187 -162 l169 -169 0 -62 c0 -40 -9 -89 -25 -137 -30 -89 -30 -108 -5
-164 l19 -43 -33 -29 c-42 -37 -77 -117 -83 -190 -4 -44 -1 -67 17 -108 21
-49 87 -122 111 -122 21 0 119 -103 119 -126 0 -19 -8 -24 -53 -34 -68 -14
-110 -40 -142 -88 -22 -34 -31 -39 -67 -40 -98 -4 -196 -49 -257 -118 -22 -26
-41 -51 -41 -55 0 -5 -6 -9 -12 -9 -10 0 -12 -19 -10 -71 l4 -71 27 26 c15 14
31 26 37 26 5 0 44 -35 87 -78 l78 -78 -36 -45 c-42 -53 -75 -135 -75 -188 0
-20 7 -59 16 -85 l17 -48 33 63 c19 34 46 75 60 90 33 35 107 74 125 67 8 -3
27 -44 42 -92 l29 -87 -37 -41 c-88 -97 -116 -242 -66 -338 l24 -44 21 60 c12
33 33 78 47 100 l24 39 3 -260 2 -260 240 -240 240 -240 240 240 240 240 0
226 0 227 54 40 c30 23 73 64 96 91 l42 49 116 7 c64 4 148 11 186 16 38 5 71
7 74 4 3 -3 0 -17 -7 -32 -20 -43 6 -48 50 -8 49 44 78 59 209 104 l108 37 21
-37 c20 -35 21 -51 21 -380 l0 -344 181 -181 181 -181 -38 -8 c-48 -9 -98 -34
-158 -79 l-46 -36 -297 0 -298 0 181 -182 182 -183 5 -100 c4 -74 16 -133 43
-225 45 -151 59 -227 51 -262 -11 -41 -71 -73 -139 -73 -87 0 -109 28 -174
221 -19 59 -48 133 -64 164 -35 70 -114 142 -178 165 -61 21 -174 30 -239 18
-39 -8 -59 -7 -84 4 l-33 14 219 219 220 220 -960 0 -960 0 238 -238 237 -237
0 -420 0 -420 240 -240 240 -240 233 233 c230 229 234 232 275 232 l42 0 -7
-47 c-3 -28 -13 -52 -22 -57 -36 -20 -118 -114 -140 -161 -24 -52 -32 -127
-18 -177 l7 -28 -662 0 -663 0 238 -238 237 -237 0 -420 0 -420 240 -240 240
-240 240 240 240 240 0 415 0 415 242 242 243 243 -278 0 c-152 0 -277 4 -277
8 0 18 58 99 93 129 50 44 72 49 99 22 59 -56 143 -65 327 -34 97 16 126 17
190 7 109 -16 200 -46 265 -89 l57 -38 -233 -3 -232 -2 167 -168 168 -169 -25
-48 c-18 -32 -26 -64 -26 -96 0 -83 6 -85 69 -19 31 33 64 60 73 60 32 0 48
-45 48 -136 0 -82 -2 -88 -30 -120 -61 -70 -90 -161 -76 -237 9 -48 33 -43 71
13 l30 45 3 -104 c1 -57 1 -106 -2 -108 -2 -2 -21 3 -41 11 -21 9 -39 16 -41
16 -10 0 31 -91 56 -122 24 -29 30 -47 30 -85 l0 -48 240 -240 240 -240 234
234 c221 221 235 232 256 221 40 -22 158 -8 219 25 61 34 154 130 171 177 7
19 28 43 49 56 75 47 120 160 129 320 l5 102 26 0 c14 0 35 -7 45 -15 31 -24
44 -18 56 26 12 44 3 88 -31 144 -25 40 -24 57 7 86 20 18 37 24 72 24 46 0
47 1 50 34 l3 34 80 -79 79 -79 0 -415 0 -415 240 -240 240 -240 240 240 240
240 0 420 0 420 237 237 238 238 -700 0 -701 0 4 40 c9 88 -96 250 -308 474
-203 216 -230 257 -230 356 0 55 29 137 53 152 55 35 125 -28 222 -197 140
-244 163 -274 442 -555 l262 -265 241 240 240 240 0 108 c0 98 3 119 35 210
48 142 65 261 65 457 l0 165 187 187 188 188 -202 0 c-202 0 -203 0 -208 22
-3 13 -14 122 -25 242 -35 389 -24 710 34 978 46 211 35 192 228 385 l173 173
-113 0 c-61 0 -112 4 -112 9 0 18 114 269 229 506 223 455 289 640 326 909 l7
49 79 -79 79 -79 0 -415 0 -415 240 -240 240 -240 240 240 240 240 0 420 0
420 237 237 238 238 -811 0 -811 0 -32 88 c-110 308 -367 513 -685 547 l-66 7
0 342 0 341 237 237 238 238 -960 0 -960 0 243 -243 242 -242 0 -415 0 -416
65 -64 c42 -42 61 -68 55 -74 -6 -6 -18 -2 -32 11 -24 22 -110 63 -133 63 -9
0 -15 -23 -20 -75 -4 -41 -10 -75 -13 -75 -3 0 -24 11 -47 25 -47 27 -70 66
-80 137 l-7 47 -51 11 c-94 20 -159 73 -181 147 -7 21 -6 21 21 8 26 -13 127
-15 139 -2 11 10 -29 133 -49 150 -20 18 -21 19 -3 29 42 23 56 48 56 96 0 26
3 58 7 71 l6 24 -66 -7 c-87 -9 -91 -10 -122 -57 -24 -38 -27 -39 -48 -24 -30
21 -167 22 -167 1 0 -8 4 -17 9 -20 5 -4 12 -24 16 -46 4 -22 16 -51 27 -65
l19 -25 -39 0 c-51 0 -118 45 -171 114 l-40 54 -61 -5 -60 -6 0 71 c0 68 1 72
25 78 14 3 25 11 25 16 0 6 -11 23 -25 40 -22 26 -25 39 -25 110 l0 81 237
239 237 238 -954 0 -954 0 237 -239 237 -238 -2 -334 -3 -334 -115 -51 c-86
-38 -116 -56 -118 -71 -2 -11 1 -70 7 -131 14 -167 53 -219 199 -269 37 -12
60 -24 52 -26 -38 -12 -279 -25 -312 -18 -49 11 -97 42 -131 86 -46 58 -87 43
-87 -35 0 -25 10 -65 21 -90 11 -25 20 -47 19 -49 -1 -1 104 -110 234 -240
l236 -238 0 -64 -1 -64 -52 -32 c-29 -17 -119 -79 -202 -138 -82 -59 -190
-128 -240 -152 -115 -58 -291 -125 -333 -126 -21 -1 -29 -4 -22 -11 26 -26 10
-36 -55 -36 l-65 0 0 307 0 308 242 242 243 243 -528 0 -527 0 0 35 c0 44 14
44 57 3 l33 -32 28 27 c24 23 37 27 85 27 l57 0 0 58 0 57 155 155 155 155 0
415 0 415 242 242 243 243 -960 0 -960 0 237 -237z m2998 -253 c11 -11 20 -31
20 -45 0 -14 -9 -33 -20 -42 -35 -31 -20 -53 36 -53 13 0 38 -13 56 -30 28
-25 31 -31 18 -40 -25 -16 -92 -32 -117 -27 -37 7 -38 -14 -3 -83 40 -79 89
-105 184 -98 l61 5 41 -51 c77 -97 170 -135 258 -106 43 14 46 34 7 54 -20 11
-34 30 -44 61 l-16 45 43 0 c28 0 52 -7 69 -20 34 -27 44 -25 63 13 27 53 44
67 84 67 34 0 38 -3 44 -32 7 -38 -15 -67 -67 -84 -42 -14 -41 -37 2 -66 22
-15 38 -35 43 -57 11 -39 11 -39 -29 -47 -27 -5 -38 0 -76 35 -45 42 -61 49
-72 31 -10 -16 56 -170 88 -207 35 -40 117 -83 160 -83 24 0 27 -4 27 -33 0
-49 39 -118 85 -149 47 -32 123 -64 132 -55 3 4 1 24 -5 44 -14 48 -3 107 21
111 10 2 35 -13 59 -37 46 -46 57 -49 83 -21 23 26 43 25 72 -2 31 -29 29 -34
-14 -49 -82 -26 -210 -102 -297 -175 l-39 -33 -61 77 c-60 76 -61 78 -61 141
0 62 -1 65 -31 83 -18 10 -61 25 -98 32 -56 12 -77 23 -148 81 -155 125 -423
293 -635 399 -40 20 -73 38 -73 39 0 2 13 39 29 83 37 100 61 216 61 289 0 48
2 55 20 55 11 0 29 -9 40 -20z m-3307 -588 c156 -103 358 -215 449 -248 106
-39 195 -55 428 -74 135 -12 255 -23 268 -26 22 -4 22 -7 22 -147 l0 -142
-152 9 c-295 16 -446 -13 -680 -130 -135 -68 -374 -207 -479 -281 l-77 -53
-25 67 c-80 218 -109 458 -95 777 7 162 13 206 49 358 l21 87 55 -45 c30 -24
127 -93 216 -152z m3184 118 c168 -76 474 -263 616 -375 44 -35 57 -52 55 -68
-3 -23 1 -24 157 -52 37 -6 39 -8 20 -21 -60 -41 -124 -101 -124 -116 -1 -29
24 -21 75 25 77 69 124 87 124 47 0 -30 -23 -71 -70 -125 -23 -26 -39 -52 -37
-58 8 -24 27 -15 67 32 l42 49 32 -36 c18 -21 47 -58 65 -83 l32 -46 -15 -54
c-68 -236 -31 -546 79 -677 l26 -32 -35 -16 c-30 -15 -41 -16 -77 -5 -22 7
-42 11 -43 9 -5 -5 -26 -199 -33 -294 -7 -105 10 -259 38 -349 10 -33 19 -67
19 -76 0 -22 -53 -43 -109 -44 -39 0 -47 -4 -62 -30 -26 -45 -50 -146 -43
-180 17 -80 86 -156 182 -199 l41 -19 -17 -29 c-37 -65 -147 -118 -241 -118
-130 1 -225 76 -277 219 -24 63 -30 68 -48 33 -21 -41 -71 -89 -115 -111 -123
-63 -233 -18 -273 112 -6 20 -14 37 -17 37 -3 0 -21 -23 -38 -50 -43 -66 -130
-133 -223 -172 -63 -26 -92 -32 -175 -36 -125 -5 -193 16 -251 80 l-37 42 55
11 c104 21 138 65 138 183 0 55 -41 265 -55 280 -1 2 -38 -22 -80 -53 -107
-76 -198 -117 -343 -154 -134 -35 -261 -75 -304 -97 -27 -14 -28 -14 -28 14 0
54 42 197 82 280 32 64 59 102 122 166 45 46 99 97 121 115 l40 32 -45 -5
c-25 -4 -108 -9 -185 -12 -127 -6 -145 -4 -195 15 -30 11 -70 35 -89 53 l-34
32 81 27 c121 41 255 108 362 181 52 35 153 104 223 152 192 131 386 216 564
246 40 6 83 20 97 31 62 49 86 141 51 195 -40 62 -142 69 -327 24 -144 -36
-299 -48 -338 -28 -20 11 -26 22 -28 59 l-3 46 70 13 c39 7 162 43 273 80
l203 67 -35 16 c-19 8 -139 50 -266 92 -316 105 -327 114 -339 306 l-7 106 33
13 c19 7 138 63 264 123 266 126 349 161 448 187 93 24 87 25 164 -10z m-2377
-291 c0 -121 0 -121 -22 -115 -13 3 -38 6 -55 6 l-33 0 0 115 0 115 55 0 55 0
0 -121z m4721 30 c278 -70 469 -249 565 -532 70 -207 54 -492 -44 -777 -50
-145 -98 -254 -252 -570 -433 -889 -507 -1288 -411 -2220 44 -432 54 -611 41
-758 -24 -278 -116 -494 -263 -621 -158 -136 -406 -169 -594 -80 -121 58 -207
160 -357 426 -87 153 -144 213 -210 220 -39 5 -51 2 -71 -17 -33 -31 -65 -119
-65 -179 0 -103 33 -158 215 -351 156 -166 246 -279 291 -365 41 -80 42 -90 8
-92 -52 -3 -59 -22 -56 -149 3 -102 -8 -184 -25 -184 -3 0 -16 9 -30 20 -59
47 -99 9 -69 -65 9 -21 16 -39 16 -41 0 -2 -21 -4 -46 -4 -41 0 -50 -5 -80
-37 -19 -20 -34 -45 -34 -54 0 -9 13 -46 30 -81 35 -73 40 -114 13 -102 -28
12 -87 16 -100 6 -8 -5 -17 -52 -23 -123 -13 -160 -38 -236 -94 -288 l-26 -24
0 27 c0 35 -49 83 -95 92 -47 9 -88 -16 -113 -69 -19 -41 -25 -45 -68 -52 -55
-8 -124 -38 -213 -95 -99 -62 -150 -70 -296 -50 -126 18 -120 15 -120 65 0 50
-26 92 -71 114 -25 12 -34 12 -77 -3 -27 -10 -53 -14 -57 -9 -4 4 -15 29 -25
55 -12 33 -29 54 -55 72 -44 29 -94 91 -86 105 4 5 37 12 74 16 84 8 149 31
163 57 16 30 13 96 -6 125 -32 48 -106 64 -178 39 l-37 -14 20 33 c12 20 20
50 20 78 0 47 11 57 66 57 12 0 33 9 48 21 32 25 35 77 7 132 l-19 37 25 20
c50 39 125 38 212 -3 26 -12 94 -68 157 -128 121 -116 161 -136 246 -123 153
24 234 152 233 369 -1 210 -92 352 -390 614 -295 258 -345 311 -402 430 -36
75 -38 199 -4 311 78 258 329 550 614 714 54 32 57 44 32 141 -44 172 -133
295 -290 402 -33 22 -136 84 -230 138 -219 126 -275 165 -351 241 -55 56 -114
139 -114 161 0 5 16 17 36 28 48 26 102 87 131 151 l24 54 82 0 c146 0 289 56
398 157 41 38 64 53 67 45 9 -29 69 -86 107 -103 82 -38 183 -16 265 57 l49
45 26 -51 c29 -57 86 -116 138 -145 28 -15 53 -49 120 -164 161 -277 225 -409
292 -602 68 -197 74 -248 90 -744 15 -489 28 -609 81 -755 30 -85 96 -184 151
-228 78 -61 141 -85 235 -90 76 -4 92 -1 141 21 101 46 162 120 208 254 59
172 36 449 -63 753 -55 170 -103 279 -278 635 -178 363 -220 473 -227 600 -3
51 -1 107 6 130 17 64 72 146 127 190 28 22 61 59 72 81 11 23 41 67 66 97 39
48 46 63 46 101 0 55 30 154 60 195 12 17 39 40 61 51 21 11 39 26 39 34 0 21
59 96 90 114 15 9 38 37 50 61 75 154 174 264 382 419 152 114 190 152 224
226 46 99 57 181 51 380 -8 276 -51 420 -162 532 -68 69 -140 96 -255 97 -71
1 -94 -3 -140 -25 -115 -53 -200 -162 -200 -256 0 -40 4 -49 42 -81 101 -87
149 -136 173 -176 56 -97 73 -257 34 -330 -12 -22 -58 -81 -104 -132 -59 -67
-94 -117 -128 -186 -73 -148 -151 -224 -260 -253 -116 -31 -189 -12 -269 68
-32 32 -58 62 -58 66 0 5 26 6 58 4 48 -3 63 0 92 20 57 39 73 85 78 221 3 83
1 122 -8 132 -9 11 -33 15 -84 15 -39 0 -88 5 -108 10 -77 22 -128 94 -113
160 6 28 8 29 28 15 70 -49 180 22 244 155 39 83 44 105 52 245 14 225 80 379
219 506 61 56 171 114 243 128 86 17 240 12 330 -10z m17 -359 c63 -28 127
-92 163 -162 l29 -58 -315 0 c-310 0 -315 0 -315 20 0 29 43 111 72 136 38 35
113 74 159 84 62 13 153 4 207 -20z m-850 -23 l31 -32 -17 -83 -17 -82 -207 0
c-115 0 -208 2 -208 5 0 22 221 174 295 204 69 28 86 26 123 -12z m-2638 -73
c79 -82 82 -82 428 -54 121 9 124 9 210 -19 102 -33 115 -27 -167 -72 -187
-29 -211 -31 -296 -21 -129 15 -180 43 -219 119 -16 33 -22 93 -8 93 4 0 27
-21 52 -46z m-1250 -329 c0 -255 -1 -275 -17 -275 -10 0 -35 -3 -55 -6 l-38
-7 0 276 0 276 23 4 c12 2 37 5 55 6 l32 1 0 -275z m-140 235 l0 -30 -92 1
-93 0 40 15 c31 12 86 28 143 43 1 1 2 -12 2 -29z m5109 -209 c15 -101 16
-339 1 -411 -13 -67 -57 -163 -95 -208 -23 -27 -282 -229 -309 -241 -4 -2 -7
122 -5 283 l4 286 189 189 c105 105 193 188 197 186 4 -3 12 -41 18 -84z
m-1402 -310 c1 -21 9 -56 17 -76 14 -32 16 -94 16 -394 l0 -356 216 -216 c197
-197 215 -218 209 -242 l-7 -27 -390 0 -389 0 -15 37 c-18 41 -14 88 12 152
14 35 19 40 62 46 59 9 102 27 125 52 16 19 16 22 -3 79 -47 135 -60 292 -40
482 16 148 13 142 66 142 41 0 89 17 122 43 9 7 4 19 -24 50 -70 77 -123 234
-124 367 l0 44 73 -72 c64 -63 73 -77 74 -111z m-3490 -67 c29 -14 63 -39 75
-57 l23 -32 -36 27 c-111 85 -234 75 -282 -24 -22 -45 -17 -67 30 -118 26 -30
52 -45 114 -65 43 -15 77 -30 75 -34 -3 -4 -23 -16 -46 -26 -39 -18 -42 -18
-78 0 -22 10 -69 20 -114 23 -75 4 -77 5 -92 37 -21 44 -20 73 5 141 27 71 83
128 146 148 59 19 112 13 180 -20z m14 -73 c80 -50 150 -157 165 -252 l7 -43
-39 31 c-50 39 -121 74 -209 103 -77 25 -135 73 -135 110 0 12 14 35 31 51 44
41 116 41 180 0z m105 -293 c25 -23 57 -62 72 -87 l27 -46 3 68 3 68 47 -39
c71 -59 164 -116 239 -148 59 -24 83 -28 178 -29 107 -2 112 -3 155 -34 68
-49 133 -64 270 -60 l118 4 -67 -71 c-72 -75 -119 -150 -161 -253 l-26 -64
-121 -52 c-67 -29 -136 -64 -154 -78 l-34 -25 -105 32 c-162 50 -308 120 -452
218 l-58 39 0 102 0 102 57 30 c50 27 124 98 112 109 -2 2 -26 0 -54 -5 -27
-5 -64 -6 -82 -3 l-33 6 0 129 c0 81 4 129 10 129 6 0 31 -19 56 -42z m-271
-2 c78 -37 135 -107 135 -168 0 -18 -5 -16 -48 16 -75 55 -160 96 -199 96 -26
0 -43 -8 -68 -33 -65 -65 -54 -137 31 -202 34 -26 59 -37 143 -62 29 -8 -8
-26 -62 -31 -155 -13 -248 130 -188 289 12 31 29 63 39 72 57 52 138 61 217
23z m-42 -117 c23 -12 74 -43 112 -69 82 -55 121 -70 184 -70 l46 0 -25 -20
c-60 -46 -216 -59 -322 -27 -74 22 -138 80 -138 124 0 17 9 42 21 57 26 32 64
34 122 5z m117 -355 c0 -106 0 -106 -22 -99 -13 4 -38 9 -55 12 l-33 5 0 63 0
63 53 30 c28 17 53 31 55 31 1 1 2 -47 2 -105z m-14 -151 c42 -20 87 -61 190
-169 162 -171 205 -198 319 -199 62 0 80 5 145 37 41 20 99 55 128 77 51 38
260 137 269 127 2 -2 -1 -41 -7 -86 -6 -45 -9 -85 -6 -88 3 -3 36 9 73 26 93
43 139 58 275 92 164 42 242 73 339 135 46 30 87 51 91 47 13 -13 38 -151 38
-207 0 -102 -25 -129 -137 -147 -37 -6 -70 -12 -72 -14 -2 -2 8 -23 23 -48 28
-48 103 -112 143 -122 13 -4 23 -8 23 -10 0 -3 -13 -31 -29 -63 -50 -99 -102
-134 -297 -201 -65 -22 -133 -49 -151 -60 l-32 -19 -6 28 -6 28 -38 -19 c-39
-19 -198 -37 -326 -38 l-60 0 -40 -50 c-70 -88 -150 -142 -238 -160 -73 -15
-140 3 -223 59 l-58 39 -45 -14 c-139 -44 -256 -38 -349 18 l-32 20 42 21 c62
32 82 65 73 118 -16 95 -99 126 -201 74 -27 -14 -50 -25 -51 -25 -3 0 -42 124
-45 144 -2 14 7 21 41 31 67 21 91 49 91 107 0 38 -6 54 -28 80 -26 28 -35 32
-83 32 -30 1 -57 5 -61 11 -4 5 -8 30 -8 54 0 40 2 43 22 38 33 -9 87 18 99
50 6 15 8 43 4 61 -7 36 -56 98 -86 107 -18 6 -18 7 -1 31 9 14 40 36 67 50
70 34 148 33 221 -3z m-265 -141 c33 -36 38 -82 13 -106 -19 -20 -37 -20 -139
-2 -103 18 -183 8 -231 -29 -39 -30 -53 -27 -36 9 44 97 176 168 301 163 57
-3 66 -6 92 -35z m749 -28 c47 -21 119 -48 160 -60 l75 -23 -199 0 c-192 -1
-201 0 -223 21 l-23 22 42 44 c50 50 47 50 168 -4z m-691 -281 c11 -10 24 -32
27 -48 9 -50 -18 -72 -118 -96 -104 -25 -171 -66 -215 -132 -25 -38 -33 -44
-37 -29 -9 29 22 130 54 177 72 104 232 175 289 128z m3708 -175 l113 -113 0
-415 0 -415 240 -240 240 -239 39 38 c29 29 42 35 45 25 3 -8 10 -26 15 -41
l11 -28 -329 0 -328 0 -6 208 c-6 244 -20 334 -84 525 -49 149 -179 421 -287
602 -36 61 -66 113 -66 116 0 4 33 8 74 11 61 4 85 11 137 41 35 19 66 36 69
36 3 1 55 -50 117 -111z m-3538 -184 c25 -32 27 -71 5 -95 -9 -10 -52 -30 -96
-45 -103 -34 -155 -74 -193 -149 l-30 -59 -5 39 c-11 84 23 170 98 248 59 61
105 86 159 87 33 0 46 -5 62 -26z m49 -423 l3 -151 -56 0 -55 0 0 174 0 175
53 -23 52 -23 3 -152z m2605 -462 c10 -30 20 -72 23 -94 l6 -40 -78 -53 c-44
-29 -98 -66 -120 -83 l-42 -31 -58 16 c-33 10 -66 19 -73 22 -10 3 38 58 144
164 88 88 164 159 170 157 5 -2 18 -28 28 -58z m-358 -294 c54 -13 100 -27
103 -30 3 -3 -35 -46 -84 -97 -242 -250 -362 -535 -310 -738 24 -94 67 -160
187 -284 l107 -111 -30 -35 c-16 -19 -45 -65 -64 -102 -44 -87 -61 -98 -151
-98 l-73 0 0 -33 c0 -95 -84 -209 -198 -270 l-52 -28 -28 20 c-51 36 -186 89
-264 104 -85 16 -150 14 -307 -9 -57 -8 -118 -12 -135 -9 -45 9 -86 26 -86 36
0 5 12 9 28 9 33 0 102 31 121 54 16 19 18 80 3 118 -6 15 -22 34 -36 43 -29
19 -107 22 -150 5 l-28 -10 6 54 c4 30 3 57 -2 60 -5 3 -36 1 -68 -5 -32 -5
-97 -7 -144 -3 -76 6 -87 10 -112 36 -32 34 -46 87 -27 99 7 4 46 11 86 15
116 10 164 55 149 136 -8 45 -47 84 -88 90 -31 5 -96 -4 -131 -18 -18 -6 -18
-5 1 33 21 39 82 101 121 123 18 9 21 17 15 46 -8 45 3 104 21 104 7 0 42 -13
77 -30 76 -36 108 -38 145 -6 24 21 28 31 27 78 0 29 -3 62 -5 73 -4 19 1 20
86 20 141 0 221 -41 280 -141 14 -24 47 -104 71 -177 58 -169 82 -209 137
-236 50 -24 73 -26 131 -9 55 16 93 43 112 81 20 38 14 101 -21 218 -50 168
-67 259 -63 355 3 81 7 98 42 168 28 58 59 99 120 160 161 163 270 195 481
141z m1354 -664 c-1 -131 -9 -122 -34 39 -20 127 -20 128 10 100 24 -23 25
-28 24 -139z m-2877 128 c72 -16 118 -61 118 -116 0 -72 -38 -81 -140 -32 -36
18 -94 38 -130 45 -58 11 -71 11 -120 -6 -30 -10 -56 -18 -57 -16 -1 1 10 16
24 34 40 52 139 94 235 101 9 0 41 -4 70 -10z m-98 -500 c20 -16 26 -29 26
-59 0 -52 -24 -67 -115 -75 -93 -9 -180 -51 -236 -113 l-42 -47 7 49 c12 95
87 183 200 237 73 34 123 37 160 8z m325 -452 c46 -23 53 -105 11 -127 -12 -6
-56 -17 -100 -25 -43 -8 -96 -23 -117 -34 -37 -18 -93 -73 -120 -117 -10 -17
-12 -13 -12 24 -2 94 85 208 201 266 57 28 100 32 137 13z m1627 -59 c92 -98
159 -207 179 -290 l7 -28 -533 0 -534 0 54 31 c54 31 159 127 179 164 10 18
19 12 117 -85 l105 -105 183 183 c100 100 185 182 188 182 3 0 28 -24 55 -52z
m1024 -303 c11 -13 8 -15 -20 -15 -28 0 -31 2 -20 15 7 8 16 15 20 15 4 0 13
-7 20 -15z m-1711 -271 c13 -9 29 -32 37 -51 28 -67 -13 -90 -142 -78 -106 10
-171 -6 -228 -56 -25 -23 -46 -39 -46 -36 0 15 27 78 47 109 64 97 259 163
332 112z m76 -369 c30 -29 33 -75 6 -99 -11 -10 -54 -22 -107 -30 -110 -16
-178 -49 -234 -113 l-42 -48 6 43 c14 98 83 184 188 237 88 44 147 47 183 10z
m1008 -366 c31 -17 37 -28 37 -72 0 -52 -29 -104 -88 -159 -78 -73 -166 -109
-229 -93 -27 6 -27 6 18 31 83 48 112 87 144 199 26 93 64 122 118 94z m-888
-94 c54 -53 14 -130 -79 -154 -64 -16 -166 -14 -224 5 -52 17 -115 61 -132 94
-9 17 -7 17 38 3 89 -27 146 -20 242 31 47 25 95 45 108 46 13 0 34 -11 47
-25z m720 -42 c-10 -43 -57 -95 -111 -125 -27 -15 -52 -28 -56 -28 -5 0 -8 27
-8 60 0 57 1 60 32 76 47 24 100 43 127 43 20 1 22 -2 16 -26z"/>
<path d="M6736 7850 c-35 -11 -76 -48 -76 -69 0 -18 107 -106 147 -122 45 -17
173 7 173 32 0 12 -77 99 -120 135 -30 25 -84 36 -124 24z m34 -34 c0 -1 -5
-17 -11 -34 -9 -27 -13 -30 -30 -19 -25 16 -24 32 4 45 23 11 37 14 37 8z
m137 -118 c-19 -12 -64 -9 -102 6 -41 18 -42 24 -10 55 14 13 25 28 25 34 0 6
22 -11 50 -38 35 -34 46 -51 37 -57z"/>
<path d="M9868 8777 l242 -242 0 -415 0 -415 240 -240 240 -240 240 240 240
240 0 420 0 420 237 237 238 238 -960 0 -960 0 243 -243z"/>
<path d="M11798 8777 l242 -242 0 -420 0 -420 237 -237 238 -238 -480 0 -480
0 243 -243 242 -242 0 -420 0 -420 237 -237 238 -238 -480 0 -480 0 243 -243
242 -242 0 -420 0 -420 237 -237 238 -238 -480 0 -480 0 243 -243 242 -242 0
-420 0 -420 237 -237 238 -238 -480 0 -480 0 243 -243 242 -242 0 -420 0 -420
238 -238 237 -237 243 243 242 242 0 420 0 420 237 237 238 238 -480 0 -480 0
243 243 242 242 0 420 0 420 237 237 238 238 -480 0 -480 0 243 243 242 242 0
420 0 420 237 237 238 238 -480 0 -480 0 243 243 242 242 0 420 0 420 237 237
238 238 -480 0 -480 0 243 243 242 242 0 420 0 420 237 237 238 238 -960 0
-960 0 243 -243z"/>
<path d="M2153 5182 l237 -237 0 -420 0 -420 240 -240 240 -240 240 240 240
240 0 415 0 415 242 242 243 243 -960 0 -960 0 238 -238z"/>
<path d="M9868 5177 l242 -242 0 -415 0 -415 240 -240 240 -240 240 240 240
240 0 420 0 420 237 237 238 238 -960 0 -960 0 243 -243z"/>
<path d="M2153 3382 l237 -237 0 -420 0 -420 240 -240 240 -240 240 240 240
240 0 415 0 415 242 242 243 243 -960 0 -960 0 238 -238z"/>
<path d="M9868 3377 l242 -242 0 -415 0 -415 240 -240 240 -240 240 240 240
240 0 420 0 420 237 237 238 238 -960 0 -960 0 243 -243z"/>
<path d="M2153 1582 l237 -237 0 -420 0 -420 240 -240 240 -240 240 240 240
240 0 415 0 415 242 242 243 243 -960 0 -960 0 238 -238z"/>
<path d="M9868 1577 l242 -242 0 -415 0 -415 240 -240 240 -240 240 240 240
240 0 420 0 420 237 237 238 238 -960 0 -960 0 243 -243z"/>
</g>
</svg>
